<svg width="30" height="30" viewBox="0 0 30 30" fill="none" xmlns="http://www.w3.org/2000/svg">
<path fill-rule="evenodd" clip-rule="evenodd" d="M8.02326 0C3.59213 0 0 3.59213 0 8.02326V21.9767C0 26.4079 3.59213 30 8.02326 30H21.9767C26.4079 30 30 26.4079 30 21.9767V8.02326C30 3.59213 26.4079 0 21.9767 0H8.02326ZM21.75 15C21.75 15.4142 21.4142 15.75 21 15.75H15.75V21C15.75 21.4142 15.4142 21.75 15 21.75C14.5858 21.75 14.25 21.4142 14.25 21V15.75H9C8.58579 15.75 8.25 15.4142 8.25 15C8.25 14.5858 8.58579 14.25 9 14.25H14.25V9C14.25 8.58579 14.5858 8.25 15 8.25C15.4142 8.25 15.75 8.58579 15.75 9V14.25H21C21.4142 14.25 21.75 14.5858 21.75 15Z" fill="#2B3F6C"/>
</svg>
