<svg width="381" height="389" viewBox="0 0 381 389" fill="none" xmlns="http://www.w3.org/2000/svg">
<path d="M340.714 177.816C335.338 181.728 329.506 184.922 323.354 187.322C314.754 191.144 305.654 193.521 296.754 196.393C294.894 197.013 292.994 197.612 291.094 198.129C292.174 206.56 293.094 214.164 294.334 227.369C297.664 226.418 300.903 225.159 304.014 223.608C304.72 223.267 305.391 222.852 306.014 222.368C303.734 221.087 302.754 220.715 302.754 218.235C302.396 217.727 302.237 217.099 302.307 216.474C302.378 215.85 302.673 215.276 303.134 214.867C303.195 214.704 303.307 214.567 303.452 214.477C303.597 214.387 303.767 214.35 303.934 214.371C304.8 214.241 305.683 214.4 306.454 214.826C307.608 215.351 308.719 215.973 309.774 216.685C311.554 217.843 313.274 218.587 315.194 216.892C317.114 215.198 327.594 213.317 346.994 201.084C347.307 200.959 347.573 200.732 347.75 200.438C347.926 200.143 348.005 199.797 347.974 199.451C346.114 192.033 343.974 184.656 341.974 177.279C341.754 177.237 341.294 177.361 340.714 177.816Z" fill="#FEF0BB"/>
<path d="M328.714 238.238C330.254 236.73 331.874 235.345 333.534 234.002C333.818 233.081 334.361 232.267 335.094 231.667C345.334 222.265 348.314 222.306 351.094 219.558C351.694 218.958 352.154 218.359 351.794 217.491C350.573 214.119 349.818 210.585 349.554 206.994C349.334 204.927 348.754 204.927 347.194 205.733C342.934 207.8 339.194 210.713 334.854 212.573C329.134 215.053 323.814 218.401 317.534 220.219C317.934 220.546 318.309 220.906 318.654 221.293C319.863 221.883 320.919 222.761 321.734 223.856C322.214 224.6 321.734 225.199 321.274 224.889C319.674 223.877 319.954 225.406 319.814 226.108C319.314 228.609 319.114 228.774 316.874 227.741C314.634 226.708 312.274 225.674 309.994 224.517C302.574 228.65 305.614 227.431 294.634 230.861C294.894 234.085 295.154 237.35 295.354 240.594C295.514 242.888 296.014 245.14 296.334 247.413C296.534 248.736 296.334 249.48 294.714 249.913L293.094 250.203C304.714 249.645 317.594 244.004 327.454 240.139C327.134 239.313 328.154 238.734 328.714 238.238Z" fill="#FEF0BB"/>
<path d="M276.354 233.031C261.614 232.555 266.694 232.865 257.794 231.378C257.274 231.378 256.614 231.026 256.754 230.282C256.894 229.539 257.494 229.724 257.954 229.724C263.954 229.724 269.954 229.539 275.954 229.869C274.714 219.062 275.214 220.901 273.094 200.795C268.06 200.59 263.046 200.003 258.094 199.038C248.274 197.488 238.514 195.69 228.834 193.397C227.334 197.53 225.894 201.456 224.674 205.589C224.898 205.692 225.113 205.817 225.314 205.961C245.494 218.628 247.414 219.537 251.754 223.319C252.534 224 253.094 224.228 253.854 223.422C254.729 222.584 255.665 221.817 256.654 221.128C257.894 219.971 258.434 219.516 258.654 219.062C259.674 217.739 261.234 217.574 262.414 219.475C263.954 221.128 264.214 222.12 262.634 223.484C257.824 227.883 253.319 232.626 249.154 237.68C248.394 238.589 247.794 238.61 247.414 237.308C245.274 230.014 244.814 231.915 248.894 228.361C249.128 228.154 249.342 227.926 249.534 227.679C250.514 226.522 250.374 226.17 249.254 225.282C242.18 219.778 234.786 214.727 227.114 210.155C225.789 209.545 224.683 208.518 223.954 207.221C222.434 211.189 219.794 212.015 220.174 213.214C222.874 215.447 225.438 217.849 227.854 220.405C232.234 224.538 236.474 228.877 240.794 233.113C241.096 233.404 241.321 233.769 241.45 234.173C241.58 234.577 241.609 235.009 241.534 235.428C241.478 238.469 241.659 241.509 242.074 244.52C242.175 244.863 242.342 245.181 242.565 245.455C242.789 245.728 243.064 245.952 243.374 246.111C245.543 247.045 247.823 247.67 250.154 247.971C256.016 249.169 261.939 250.018 267.894 250.513C273.208 251.19 278.581 251.19 283.894 250.513C281.714 248.838 279.655 247.001 277.734 245.016C276.774 243.694 277.534 244.086 276.354 233.031Z" fill="#FEF0BB"/>
<path d="M282.594 199.927C283.103 200.415 283.506 201.01 283.778 201.67C284.049 202.331 284.182 203.044 284.169 203.761C284.156 204.479 283.996 205.186 283.701 205.835C283.405 206.485 282.981 207.063 282.454 207.531C281.836 207.944 281.085 208.087 280.365 207.928C279.645 207.769 279.015 207.322 278.614 206.684C278.315 206.237 278.11 205.73 278.014 205.196C277.547 204.517 277.276 203.714 277.234 202.882C277.184 202.671 277.184 202.451 277.234 202.241C277.734 200.898 277.134 200.65 275.974 200.712C275.388 200.742 274.801 200.742 274.214 200.712C275.214 210.424 276.201 220.143 277.174 229.869C282.598 230.283 288.046 229.53 293.174 227.658C290.794 200.671 290.154 199.741 290.154 198.377C287.619 199.045 285.038 199.515 282.434 199.782L282.594 199.927Z" fill="#FEF0BB"/>
<path d="M287.034 233.506C287.352 234.426 287.455 235.41 287.334 236.378C287.174 237.97 287.054 239.664 285.134 240.036C283.914 240.284 282.454 238.3 282.274 236.337C282.215 235.954 282.215 235.563 282.274 235.18C282.434 233.775 281.914 233.341 280.514 233.299H277.554C277.92 235.549 278.147 237.819 278.234 240.098C278.054 243.859 280.474 245.677 282.814 247.909C283.897 249.11 285.282 249.976 286.814 250.409H288.434C289.187 250.235 289.9 249.912 290.534 249.459C290.786 249.326 291.056 249.236 291.334 249.19C295.054 248.095 295.014 248.095 294.674 244.21C294.314 239.953 293.941 235.697 293.554 231.44C292.314 231.832 291.094 232.204 289.854 232.556C288.854 232.634 287.887 232.96 287.034 233.506Z" fill="#FEF0BB"/>
<path d="M228.154 76.3131C227.734 76.9537 226.774 77.5323 227.594 78.5449C227.594 78.5449 227.714 78.8962 227.594 78.9375C224.314 81.7685 224.834 86.108 223.594 89.7449C222.604 93.1397 222.059 96.6564 221.974 100.201C221.867 101.492 222.153 102.786 222.794 103.9C226.579 110.807 231.292 117.124 236.794 122.663C238.534 124.113 240.357 125.451 242.254 126.672C243.014 127.251 244.654 127.56 244.054 128.738C243.454 129.916 242.634 128.056 241.594 128.304C243.021 130.285 244.766 131.998 246.754 133.367C249.974 133.367 253.194 133.884 256.914 133.863C260.19 133.859 263.444 133.315 266.554 132.251L266.374 130.412C266.25 129.921 266.253 129.405 266.383 128.915C266.512 128.425 266.765 127.979 267.114 127.622C269.374 125.556 271.694 123.614 273.994 121.609C274.274 121.382 274.594 121.237 275.194 121.609C273.462 123.598 271.568 125.43 269.534 127.085C268.799 127.565 268.23 128.274 267.91 129.11C267.59 129.945 267.535 130.865 267.754 131.735C277.434 128.263 271.554 130.536 280.334 127.932C280.334 127.932 280.334 127.932 280.334 127.808C279.314 120.411 278.514 120.101 279.374 119.295C280.094 119.646 280.014 120.349 280.154 121.01C280.574 123.2 280.974 125.411 281.334 127.622C291.028 124.517 300.222 119.942 308.614 114.046C307.493 110.974 305.994 108.064 304.154 105.388C304.014 105.153 303.853 104.932 303.674 104.726C303.294 104.871 302.534 105.698 301.674 105.264C301.543 105.504 301.374 105.721 301.174 105.904C300.774 106.318 300.334 106.834 299.754 106.359C299.174 105.884 299.754 105.429 299.894 105.016C302.554 100.346 302.574 100.387 304.874 96.5434C308.604 89.1829 311.89 81.5916 314.714 73.8128C315.122 72.9808 315.274 72.0398 315.148 71.1163C315.023 70.1928 314.627 69.3309 314.014 68.6467C312.924 67.3244 311.681 66.1447 310.314 65.1338C297.914 56.1655 280.454 50.8341 265.434 49.4909C261.094 49.119 256.694 48.7884 252.614 51.3301C249.594 53.2312 246.614 55.1736 243.754 57.2814C237.928 63.0475 232.7 69.4259 228.154 76.3131V76.3131ZM245.014 65.5884C252.603 68.8834 259.898 72.8593 266.814 77.4703C275.137 83.3263 282.828 90.0877 289.754 97.6386C292.474 100.49 292.554 104.21 292.254 107.971C292.254 108.322 292.114 108.715 291.674 108.735C290.894 108.735 291.354 108.115 291.274 107.805C290.894 105.863 291.474 101.606 288.654 98.7132C289.07 100.054 289.332 101.442 289.434 102.846C289.434 104.231 289.174 105.512 289.434 105.491C289.894 106.524 289.254 107.351 288.754 108.012C282.494 116.484 274.754 122.477 263.994 122.911C260.505 123.081 257.008 122.831 253.574 122.167C251.279 121.62 249.126 120.566 247.262 119.079C245.398 117.592 243.867 115.706 242.774 113.55C242.454 113.013 242.114 112.496 241.754 111.98L241.534 111.814C239.661 110.701 238.045 109.18 236.798 107.357C235.551 105.533 234.703 103.451 234.314 101.255C233.994 99.6224 233.754 100.056 232.654 97.7213C231.756 96.362 231.231 94.7768 231.134 93.1338C230.564 89.3753 230.564 85.5477 231.134 81.7892C230.294 83.525 227.934 86.418 227.274 89.7449C227.274 90.2408 226.994 90.5921 226.474 90.5095C226.352 90.4927 226.235 90.4476 226.132 90.3777C226.029 90.3078 225.943 90.2147 225.879 90.1055C225.816 89.9963 225.777 89.8737 225.766 89.7469C225.755 89.6201 225.771 89.4922 225.814 89.3729C225.932 88.8097 226.092 88.2569 226.294 87.7198C229.378 80.4056 233.799 73.7751 239.314 68.1921C239.65 67.8507 240.018 67.546 240.414 67.2829C241.714 65.981 242.614 65.3817 243.694 65.4644C244.154 64.9271 244.554 65.4024 244.974 65.5884H245.014Z" fill="#FEF0BB"/>
<path d="M151.014 241.296C151.814 242.95 152.834 243.59 154.474 242.371C156.114 241.152 157.594 241.565 156.994 239.747C154.618 232.523 153.362 224.955 153.274 217.326C152.954 215.275 152.767 213.204 152.714 211.127C152.261 211.096 151.808 211.181 151.394 211.375C147.734 214.226 146.074 214.805 145.394 215.507C145.561 215.523 145.714 215.606 145.823 215.737C145.931 215.868 145.986 216.038 145.974 216.21C145.734 222.099 147.314 227.699 148.334 233.403C148.876 236.148 149.777 238.804 151.014 241.296V241.296Z" fill="#FEF0BB"/>
<path d="M126.394 241.462C125.854 239.395 125.454 237.68 123.174 238.486C119.494 238.3 119.454 238.052 120.374 240.553C121.594 243.983 122.874 247.413 124.094 250.885C125.734 255.472 124.394 254.46 129.234 253.922C132.154 253.612 129.014 252.104 126.394 241.462Z" fill="#FEF0BB"/>
<path d="M158.454 249.851C158.074 248.839 157.734 248.116 156.334 248.612C150.241 250.687 144.287 253.179 138.514 256.071C137.434 256.629 137.274 257.063 137.854 258.138C139.749 261.749 141.445 265.468 142.934 269.276C144.134 272.499 144.174 272.479 147.494 272.252C148.874 272.252 150.274 272.004 151.654 272.004C153.517 272.214 155.4 271.864 157.074 270.995C158.749 270.127 160.145 268.776 161.094 267.106C161.745 266.276 162.178 265.286 162.349 264.233C162.521 263.179 162.426 262.097 162.074 261.093C160.674 257.456 159.874 253.55 158.454 249.851Z" fill="#FEF0BB"/>
<path d="M172.694 251.835C175.184 258.336 177.189 265.023 178.694 271.838C181.414 282.749 177.694 290.436 174.554 304.901C174.074 306.967 174.794 306.967 176.234 306.967C176.488 307.024 176.75 307.025 177.004 306.969C177.258 306.913 177.498 306.803 177.708 306.645C177.917 306.487 178.092 306.285 178.221 306.052C178.35 305.819 178.429 305.561 178.454 305.294C179.074 303 182.734 293.081 183.494 284.423C184.414 273.636 180.454 264.151 175.194 255.141C174.594 254.17 174.414 252.579 172.694 251.835Z" fill="#FEF0BB"/>
<path d="M152.154 308.269C158.547 307.264 165.009 306.815 171.474 306.926C171.705 306.984 171.945 306.989 172.178 306.94C172.41 306.892 172.63 306.791 172.821 306.645C173.012 306.499 173.169 306.312 173.282 306.096C173.395 305.881 173.461 305.642 173.474 305.397C174.834 299.198 176.834 293.102 177.874 286.799C178.517 284.221 178.839 281.568 178.834 278.905C178.394 272.376 176.254 266.28 174.674 260.039C173.094 253.798 170.474 248.219 164.874 244.644C163.694 243.88 161.994 240.387 157.694 242.702C153.394 245.016 151.934 246.835 149.814 242.805C148.894 241.111 148.034 241.214 146.654 241.937C142.431 244.003 137.987 245.55 133.414 246.545C129.854 247.475 129.834 247.372 131.174 250.843C132.214 253.55 131.574 254.79 128.774 255.39C128.293 255.492 127.805 255.554 127.314 255.576C126.014 255.576 125.654 256.03 126.154 257.415C127.134 260.018 128.154 262.643 129.014 265.267C137.854 283.41 141.674 286.903 143.494 293.742C144.634 297.979 146.154 302.008 147.354 306.306C147.439 306.61 147.56 306.902 147.714 307.174C148.714 303.372 149.554 299.942 150.574 296.594C151.022 294.238 151.692 291.934 152.574 289.713C154.594 286.256 157.326 283.3 160.574 281.055C161.494 280.414 161.494 280.435 162.774 280.951C158.574 283.968 155.154 287.316 153.754 292.771C152.634 297.276 150.934 301.657 149.754 306.141C149.394 307.422 149.354 308.021 149.754 308.207C150.552 308.279 151.354 308.3 152.154 308.269ZM149.734 274.029C143.274 274.38 143.254 274.463 141.734 270.66C140.034 266.528 138.314 262.395 136.414 258.262C135.694 256.733 135.914 255.906 137.274 255.121C143.683 251.756 150.329 248.896 157.154 246.566C158.614 246.008 159.034 247.083 159.494 248.012C161.054 251.091 161.794 254.563 164.614 263.759C164.994 264.998 164.614 265.391 163.974 266.321C158.954 273.471 158.834 273.533 149.714 274.029H149.734Z" fill="#FEF0BB"/>
<path d="M271.974 179.448C272.354 182.589 273.654 195.236 273.974 198.439C278.474 198.129 282.154 197.054 285.974 196.579C287.275 196.408 288.564 196.153 289.834 195.814C289.054 189.739 288.194 183.685 287.334 177.63C282.299 178.846 277.145 179.456 271.974 179.448V179.448Z" fill="#FEF0BB"/>
<path d="M261.574 178.539C255.883 176.907 250.047 175.876 244.154 175.46C241.339 175.511 238.541 174.999 235.914 173.952C234.594 177.754 230.454 189.285 229.714 191.227C237.054 192.901 265.474 198.831 272.934 198.48C272.794 197.158 271.474 184.49 270.934 179.469C267.787 179.639 264.633 179.325 261.574 178.539V178.539Z" fill="#FEF0BB"/>
<path d="M325.074 181.845C330.014 179.283 334.474 175.853 339.574 173.58C339.759 173.533 339.931 173.443 340.078 173.318C340.225 173.192 340.342 173.034 340.421 172.855C340.499 172.676 340.538 172.481 340.534 172.284C340.529 172.088 340.481 171.895 340.394 171.72C339.154 167.814 337.934 163.888 336.754 159.983C335.974 157.379 335.074 159.652 325.314 163.744C314.454 168.331 303.314 171.844 292.254 176.142C290.934 176.638 289.634 177.051 288.254 177.423C289.094 183.471 289.914 189.526 290.714 195.587C294.554 194.492 298.274 192.921 302.154 191.93C310.374 189.801 317.674 185.668 325.074 181.845Z" fill="#FEF0BB"/>
<path d="M333.614 154.982C333.822 154.897 334.011 154.768 334.169 154.605C334.327 154.441 334.451 154.246 334.534 154.031C334.616 153.817 334.655 153.587 334.648 153.356C334.642 153.125 334.589 152.897 334.494 152.688C328.674 134.38 329.134 132.85 326.814 134.359C321.914 137.541 316.714 140.186 311.534 142.873C303.056 147.302 294.137 150.767 284.934 153.205C285.154 155.044 287.114 168.992 287.854 174.138C293.854 172.278 299.674 170.005 305.654 168.083C315.469 164.945 324.863 160.544 333.614 154.982V154.982Z" fill="#FEF0BB"/>
<path d="M247.034 154.341C245.576 154.319 244.131 154.054 242.754 153.556C240.688 159.893 238.568 166.216 236.394 172.526C238.814 172.526 241.234 172.877 243.674 173.022C248.601 173.206 253.505 173.814 258.334 174.84C261.434 175.584 264.474 176.907 267.094 176.473L270.554 176.328C269.554 166.967 269.294 163.929 268.554 155.664C265.394 155.56 264.154 155.147 247.034 154.341Z" fill="#FEF0BB"/>
<path d="M269.774 155.622C270.554 165.789 270.594 166.988 271.634 176.287C273.494 176.287 275.234 176.121 276.954 175.894C279.642 175.745 282.316 175.393 284.954 174.84C285.574 174.675 286.174 174.468 286.774 174.282C283.554 151.738 284.154 153.225 283.754 153.329C279.19 154.621 274.502 155.391 269.774 155.622ZM280.034 172.154C279.374 173.332 278.554 174.386 277.074 174.22C276.376 174.116 275.73 173.775 275.238 173.252C274.746 172.729 274.435 172.052 274.354 171.327C273.931 169.405 274.186 167.39 275.074 165.645C275.734 163.744 277.074 163.454 278.614 164.735C279.713 165.583 280.467 166.823 280.729 168.213C280.992 169.604 280.744 171.045 280.034 172.257V172.154Z" fill="#FEF0BB"/>
<path d="M263.874 252.579C244.254 250.967 242.674 247.062 242.814 250.513C242.954 253.158 243.094 255.823 243.214 258.489C243.145 261.449 243.265 264.411 243.574 267.354C243.59 267.773 243.728 268.177 243.971 268.513C244.214 268.849 244.55 269.101 244.934 269.234C254.603 272.95 264.785 275.043 275.094 275.434C281.814 275.723 288.194 273.884 294.654 272.396C309.954 268.863 324.514 263.51 337.414 254.026C338.634 253.158 339.194 252.476 338.414 250.905C337.589 249.079 336.875 247.202 336.274 245.285C335.214 242.185 335.294 242.33 332.274 243.218C326.274 245.14 320.434 247.062 314.434 248.612C307.014 250.513 299.614 252.744 291.834 252.352C284.894 252.104 284.154 254.274 263.874 252.579Z" fill="#FEF0BB"/>
<path d="M248.154 135.434C248.256 136.229 248.167 137.038 247.894 137.789C246.414 142.514 244.908 147.226 243.374 151.924C246.874 152.647 258.834 152.399 265.154 153.039C266.279 153.143 267.41 153.143 268.534 153.039C268.354 150.622 267.314 138.574 266.954 135.103C259.734 136.797 255.774 136.177 248.154 135.434Z" fill="#FEF0BB"/>
<path d="M281.754 130.185C282.794 136.715 283.634 143.286 284.494 149.837C306.154 144.65 311.354 137.169 324.694 130.846C325.247 130.646 325.715 130.251 326.014 129.73C321.747 124.665 317.063 119.991 312.014 115.761C311.774 115.906 312.014 115.761 311.134 116.381C311.203 116.567 311.243 116.762 311.254 116.96C311.254 117.704 311.254 118.51 310.354 118.675C309.454 118.84 309.454 118.138 309.414 117.6C299.654 124.461 292.694 129.441 281.754 130.185Z" fill="#FEF0BB"/>
<path d="M268.014 134.69C268.574 140.724 269.074 146.778 269.554 152.833C271.734 152.544 278.234 151.386 283.434 150.167L280.674 130.391C277.465 130.791 274.35 131.778 271.474 133.305C270.374 133.897 269.214 134.362 268.014 134.69V134.69ZM271.714 139.194C271.743 138.83 271.743 138.464 271.714 138.099C271.714 137.748 271.714 137.397 271.714 137.045C271.61 136.444 271.725 135.823 272.037 135.304C272.349 134.784 272.835 134.402 273.403 134.23C273.971 134.058 274.58 134.109 275.114 134.373C275.648 134.638 276.068 135.096 276.294 135.661C277.075 136.809 277.429 138.209 277.293 139.605C277.157 141.001 276.54 142.3 275.554 143.265C274.174 144.34 273.174 143.637 272.374 142.501C271.759 141.524 271.524 140.343 271.714 139.194Z" fill="#FEF0BB"/>
<path d="M290.934 291.242C295.471 291.116 299.979 290.465 304.374 289.3C308.574 285.993 312.834 282.811 317.074 279.546C324.314 272.995 330.314 268.863 334.154 265.081C335.477 263.828 336.918 262.713 338.454 261.754C339.254 261.093 340.054 260.411 340.874 259.688C341.694 258.964 342.054 258.82 341.454 257.973C340.854 257.125 340.414 257.973 339.914 258.241C338.954 258.592 326.054 268.573 310.034 271.838C302.334 273.388 294.594 274.814 286.834 275.971C281.225 277.05 275.507 277.397 269.814 277.004C261.414 276.403 253.114 274.758 245.094 272.107C242.394 271.136 244.274 274.173 244.274 280.083C244.245 280.593 244.317 281.103 244.485 281.583C244.654 282.063 244.915 282.502 245.254 282.873C247.642 283.291 249.976 283.985 252.214 284.939C268.154 291.366 279.234 290.601 290.934 291.242Z" fill="#FEF0BB"/>
<path d="M309.174 370.489C308.734 371.213 308.134 371.977 308.614 372.886C309.094 373.796 310.114 373.775 311.034 373.734C312.979 373.534 314.894 373.09 316.734 372.411C322.276 370.723 327.702 368.652 332.974 366.212C341.668 362.439 350.148 358.162 358.374 353.4C362.174 351.334 361.914 351.334 361.614 348.895C361.314 347.759 360.834 346.56 360.794 346.354C360.254 343.647 360.454 344.969 356.174 331.062C355.654 329.347 355.094 329.306 353.814 330.483C347.396 336.283 340.563 341.574 333.374 346.312C332.294 347.035 330.894 346.953 330.034 347.986C324.314 354.785 313.954 362.782 309.174 370.489Z" fill="#FEF0BB"/>
<path d="M248.654 372.266C252.874 371.419 256.954 369.828 261.174 368.96C269.171 367.346 276.966 364.809 284.414 361.397C284.561 359.855 284.828 358.328 285.214 356.83C285.434 355.322 284.854 355.094 283.534 355.094C276.586 355.164 269.77 353.123 263.934 349.226C263.04 348.431 261.909 347.977 260.73 347.94C259.551 347.902 258.395 348.283 257.454 349.019C256.814 349.474 256.114 349.825 255.454 350.28C247.917 355.789 240.673 361.714 233.754 368.03C231.806 369.567 230.122 371.432 228.774 373.548C228.374 374.23 227.594 375.015 227.774 375.759C228.674 375.759 243.194 373.341 248.654 372.266Z" fill="#FEF0BB"/>
<path d="M60.3744 66.7249C62.5944 66.9729 64.7744 67.4068 66.9944 67.5308C67.5157 67.4845 68.0338 67.6511 68.4376 67.9949C68.8414 68.3387 69.0987 68.8324 69.1544 69.3699C69.7944 71.6636 70.5944 73.8747 71.2944 76.1478C71.6744 77.3876 72.1544 78.5655 73.5344 78.6895C74.9144 78.8135 75.1544 77.5116 75.5344 76.6231C76.7944 73.8747 78.0944 71.1677 79.2344 68.3574C79.3706 67.9056 79.6332 67.5055 79.9891 67.2076C80.345 66.9098 80.7783 66.7274 81.2344 66.6836C84.0344 66.229 86.8344 65.5884 89.6344 64.9891C90.6344 64.7618 91.6344 64.3072 91.6344 63.1706C91.6344 62.0341 91.0944 61.4968 90.3144 60.9596C88.3144 59.4717 86.3144 57.9219 84.1744 56.4548C83.9908 56.3744 83.8259 56.2544 83.6908 56.1029C83.5557 55.9514 83.4535 55.7718 83.391 55.5761C83.3285 55.3805 83.3072 55.1733 83.3284 54.9685C83.3497 54.7636 83.4131 54.5658 83.5144 54.3883C84.3744 52.1359 84.9944 49.7802 85.5144 47.9411C85.5144 45.73 84.6344 45.1101 82.7944 45.73C80.8066 46.402 78.8569 47.1884 76.9544 48.0857C76.3655 48.3901 75.7114 48.5346 75.0537 48.5056C74.3959 48.4767 73.756 48.2753 73.1944 47.9204C70.4744 46.4739 67.6544 45.1721 64.8944 43.7876C64.49 43.4983 64.0155 43.3315 63.5243 43.3059C63.0331 43.2804 62.5448 43.3971 62.1144 43.6429C61.1344 44.4075 61.6544 45.482 61.9944 46.4326C62.9344 49.119 63.9944 51.826 64.8944 54.5123C65.0468 54.7459 65.1515 55.0091 65.2019 55.286C65.2523 55.5628 65.2474 55.8474 65.1874 56.1222C65.1275 56.397 65.0138 56.6563 64.8533 56.884C64.6929 57.1118 64.489 57.3033 64.2544 57.4466C62.3667 59.1555 60.5643 60.9626 58.8544 62.8607C58.2744 63.4599 57.6144 64.0592 58.0744 65.1131C58.2534 65.5916 58.5696 66.0024 58.9806 66.2904C59.3915 66.5784 59.8778 66.73 60.3744 66.7249Z" fill="#FEF0BB"/>
<path d="M26.1544 48.4577C28.2175 48.5004 30.2677 48.1102 32.1808 47.3109C34.0938 46.5115 35.8301 45.3196 37.2846 43.8071C38.7391 42.2946 39.8816 40.4931 40.643 38.5114C41.4044 36.5297 41.7689 34.409 41.7144 32.2776C41.9344 24.4045 34.5744 16.5314 25.5544 16.3661C16.8544 16.2215 9.55436 25.1278 9.93436 32.8975C10.0065 35.0209 10.4838 37.1087 11.3388 39.0411C12.1938 40.9735 13.4096 42.7124 14.9166 44.1581C16.4236 45.6038 18.1921 46.7278 20.1206 47.4657C22.049 48.2035 24.0995 48.5406 26.1544 48.4577ZM16.8544 23.6606C19.2667 21.7286 22.2322 20.6801 25.2844 20.6801C28.3365 20.6801 31.3021 21.7286 33.7144 23.6606C35.6752 25.2051 37.1066 27.3568 37.7997 29.8016C38.4928 32.2464 38.4112 34.8561 37.5668 37.2495C36.7224 39.643 35.1595 41.6948 33.1063 43.1052C31.0531 44.5157 28.6172 45.211 26.1544 45.0894C24.4543 45.1396 22.7618 44.8347 21.1785 44.193C19.5951 43.5514 18.1534 42.5862 16.9396 41.3552C15.7258 40.1243 14.7649 38.6529 14.1145 37.0292C13.4641 35.4055 13.1375 33.6628 13.1544 31.9056C13.1384 30.3362 13.4687 28.7836 14.1201 27.3657C14.7716 25.9478 15.7272 24.7019 16.9144 23.7226L16.8544 23.6606Z" fill="#FEF0BB"/>
<path d="M19.4743 37.3816C20.1743 36.9064 19.8743 36.2864 19.5943 35.6665C19.3143 35.0466 19.1743 34.4473 18.9343 33.848C18.766 33.4085 18.7218 32.9286 18.8068 32.4641C18.8917 31.9996 19.1024 31.5695 19.4143 31.2237C20.1143 30.3765 20.9543 31.2237 21.6943 31.513C21.8943 31.513 23.3743 32.6289 23.9743 31.699C24.2943 31.1617 23.9743 30.7484 23.5543 30.3765C21.5543 27.9381 18.1143 27.6694 16.7743 30.5418C16.3414 31.6135 16.2416 32.7978 16.4888 33.9307C16.7361 35.0636 17.3181 36.089 18.1543 36.865C18.4743 37.1957 18.8343 37.8156 19.4743 37.3816Z" fill="#FEF0BB"/>
<path d="M30.8344 33.0628C30.6944 35.1292 30.5544 36.803 27.7944 36.4311C27.3144 36.4311 26.8544 36.1831 26.3744 36.1005C25.1344 35.8938 24.5344 37.3197 25.8144 37.9189C26.6365 38.3916 27.5524 38.6634 28.4919 38.7135C29.4314 38.7637 30.3696 38.5908 31.2344 38.2082C31.9801 37.8568 32.5935 37.262 32.9801 36.5153C33.3667 35.7686 33.5053 34.9113 33.3744 34.0754C33.3744 32.4222 33.4944 30.8311 31.9344 30.9137C30.3744 30.9964 30.8944 32.0503 30.8344 33.0628Z" fill="#FEF0BB"/>
<path d="M26.1544 29.2606C27.2944 28.9094 26.0344 27.8555 25.9944 27.1942C25.9544 26.533 25.7544 25.8717 26.3344 25.4171C27.4344 24.5905 28.3344 25.7477 29.9144 26.9256C30.7944 27.6488 31.3144 27.1736 31.3144 26.1197C31.3144 24.4872 29.0744 22.8961 26.9544 22.9581C24.8344 23.02 24.1544 23.9086 24.1544 26.2643C24.2544 27.6902 24.8144 29.6326 26.1544 29.2606Z" fill="#FEF0BB"/>
<path d="M99.9745 89.3109C99.9745 88.8563 99.9745 88.1743 99.2545 88.257C98.5345 88.3396 98.7745 88.8976 98.7745 89.3109C98.7745 90.4474 98.4145 99.0231 98.4945 99.643C98.4945 100.676 97.7145 102.536 99.0945 102.557C100.475 102.577 99.8545 100.656 99.9345 99.643C100.248 96.2072 100.261 92.7492 99.9745 89.3109Z" fill="#FFC7D6"/>
<path d="M46.4545 156.346C52.0545 152.213 57.7745 148.555 64.8145 148.08C68.1942 148.15 71.4839 149.218 74.2945 151.159C75.4545 151.8 75.8545 151.593 76.0545 150.332C77.9126 139.22 81.6496 128.532 87.0945 118.757C89.2145 114.769 91.5944 110.967 93.9344 107.123C94.0766 106.822 94.2781 106.554 94.526 106.337C94.7739 106.12 95.0629 105.958 95.3745 105.863C95.8345 106.566 95.3744 107.041 94.9944 107.537C86.2944 121.175 79.3944 134.669 76.9944 151.366C76.8711 151.87 76.9206 152.403 77.1345 152.874C82.4785 150.42 88.1145 148.711 93.8944 147.791C98.3144 146.551 102.554 145.373 107.294 147.791C111.914 149.093 112.334 151.18 115.694 149.857C120.081 148.08 124.685 146.939 129.374 146.468C137.254 145.125 141.374 144.753 150.654 148.865C152.974 149.919 154.494 149.96 154.654 150.932C155.367 150.97 156.072 150.758 156.654 150.332C155.994 147.935 155.334 145.538 154.654 143.141C152.567 138.347 149.691 133.963 146.154 130.185C142.548 126.262 138.627 122.661 134.434 119.419C128.575 115.441 122.468 111.865 116.154 108.715C110.206 105.587 103.517 104.282 96.8745 104.954C94.2412 105.279 91.723 106.258 89.5344 107.805C79.033 114.499 69.373 122.509 60.7745 131.652C54.1984 138.549 48.9099 146.64 45.1745 155.519C44.9082 156.039 44.81 156.632 44.8945 157.214C46.5545 156.408 45.8145 156.8 46.4545 156.346ZM107.254 107.082C115.98 111.453 124.099 117.013 131.394 123.614C137.511 129.212 143.011 135.49 147.794 142.335C148.146 142.783 148.46 143.26 148.734 143.761C149.074 144.484 150.154 145.456 149.334 145.993C148.514 146.53 148.154 145.166 147.774 144.567C140.516 133.669 131.41 124.218 120.894 116.67C116.894 113.757 112.574 111.132 108.274 108.632C107.318 108.259 106.456 107.665 105.754 106.896C106.434 106.462 106.834 106.876 107.254 107.082V107.082Z" fill="#FFC7D6"/>
<path d="M130.634 245.45C136.075 244.144 141.379 242.296 146.474 239.933C147.994 239.168 147.814 238.527 147.494 236.895C141.236 239.402 134.821 241.473 128.294 243.094C128.914 244.747 128.954 245.905 130.634 245.45Z" fill="#FFC7D6"/>
<path d="M178.034 227.307C178.194 227.203 178.434 227.121 178.654 226.976C177.774 225.736 176.854 224.517 175.934 223.319C175.255 223.178 174.55 223.28 173.934 223.608C170.534 225.674 161.314 230.696 157.014 232.762C157.314 234.209 157.614 235.655 157.954 237.081C165.754 233.981 171.094 232.08 178.034 227.307Z" fill="#FFC7D6"/>
<path d="M113.854 245.905C114.038 246.949 113.99 248.023 113.714 249.046C116.374 248.674 118.954 248.198 121.494 247.682L120.554 244.768C114.334 246.008 115.014 245.615 113.854 245.905Z" fill="#FFC7D6"/>
<path d="M279.335 350.9C284.995 330.235 293.815 307.505 297.555 294.59C295.675 294.321 295.655 294.342 295.115 296.139C294.215 299.074 293.275 302.008 292.435 304.963C288.795 318.064 283.795 330.69 279.855 343.688C279.268 345.952 278.471 348.153 277.475 350.259C277.015 351.168 278.035 352.904 279.335 350.9Z" fill="#FFC7D6"/>
<path d="M164.154 212.842C162.715 212.566 161.258 212.407 159.794 212.366C157.952 213.195 156.202 214.228 154.574 215.445C154.574 217.367 154.814 219.248 154.994 221.149C156.957 220.003 158.853 218.74 160.674 217.367C162.234 216.238 163.443 214.666 164.154 212.842Z" fill="#FFC7D6"/>
<path d="M145.394 226.108C145.154 224.496 144.974 222.885 144.874 221.252C142.314 222.595 139.734 223.877 137.114 225.054C136.324 225.714 135.365 226.123 134.354 226.232C132.874 226.852 131.334 227.41 129.794 227.906C130.374 229.27 130.994 230.551 131.614 231.832C136.325 230.239 140.928 228.327 145.394 226.108V226.108Z" fill="#FFC7D6"/>
<path d="M101.974 48.2716C103.194 48.8916 103.974 48.2716 103.754 46.6805C103.564 45.6315 103.523 44.5593 103.634 43.4982C104.834 35.2325 108.734 30.645 106.414 24.6317C106.238 23.9695 105.913 23.3595 105.466 22.8509C105.019 22.3424 104.462 21.9496 103.841 21.7042C103.221 21.4588 102.552 21.3678 101.891 21.4384C101.23 21.509 100.594 21.7393 100.034 22.1107C97.1744 23.7019 96.3544 26.5948 95.6744 29.8598C95.1344 29.3639 94.8544 29.0539 94.5344 28.7853C92.6344 27.2561 91.0344 25.2517 88.3744 24.921C83.5144 24.3218 83.0544 29.9425 85.6944 34.1786C89.7437 40.3523 95.3825 45.2336 101.974 48.2716V48.2716ZM86.6344 27.1941C87.5744 26.3469 88.6344 26.8841 89.5944 27.3388C91.8229 28.6948 93.7457 30.5265 95.2344 32.7115C95.8344 33.4554 96.3944 34.5919 97.5544 34.096C98.7144 33.6 98.1144 32.5048 98.0344 31.6163C97.8324 30.3873 97.9196 29.1261 98.2886 27.9392C98.6576 26.7523 99.2975 25.6746 100.154 24.7971C101.994 23.0819 103.834 23.5985 104.614 26.0576C106.234 31.2236 101.254 37.6296 101.234 46.0606C94.9944 41.7624 88.8344 37.9602 86.1344 30.4591C85.8501 29.9361 85.7448 29.3293 85.8355 28.7368C85.9262 28.1444 86.2077 27.6008 86.6344 27.1941V27.1941Z" fill="#FFC7D6"/>
<path d="M49.7745 13.4111C52.3555 15.3602 55.1729 16.9512 58.1545 18.1432C60.6145 19.2591 63.5145 19.2591 65.5745 21.3255C66.0345 21.7801 66.5345 22.3381 67.1945 21.8421C67.8545 21.3462 67.6945 19.941 67.3945 19.5484C63.5345 14.4856 63.9145 7.14983 60.9745 1.7358C60.7968 1.25419 60.4897 0.835001 60.0894 0.527512C59.689 0.220023 59.212 0.0370148 58.7145 0C57.6745 0 57.0745 0.82657 56.5745 1.79779C55.6655 3.88141 55.3532 6.19043 55.6745 8.45168C54.074 7.49975 52.3684 6.75044 50.5945 6.21994C50.0644 6.03733 49.4929 6.02656 48.9567 6.18908C48.4204 6.35159 47.9451 6.67962 47.5945 7.12917C47.1818 7.54005 46.9294 8.09313 46.8852 8.68351C46.8409 9.27389 47.0079 9.86051 47.3545 10.3321C47.95 11.5179 48.7734 12.5656 49.7745 13.4111V13.4111ZM49.4945 8.51367C50.0745 7.74909 50.9745 8.51367 51.4945 8.80297C53.0745 9.52622 54.5745 10.4768 56.0945 11.3447C56.6745 11.6753 57.2145 12.3986 57.9545 11.7993C58.6945 11.2 58.5345 10.3735 58.2545 9.60888C57.4167 7.60413 57.3808 5.33832 58.1545 3.30628C58.6145 2.27307 58.8345 1.77713 59.8145 3.9882C60.1745 4.77344 59.8145 3.82289 63.3145 16.3868C63.4745 16.986 63.9145 17.9366 62.6745 17.482C58.2545 15.8495 53.6345 14.465 50.1545 10.7247C49.6945 10.0842 48.8345 9.38157 49.4945 8.51367V8.51367Z" fill="#FFC7D6"/>
<path d="M197.634 238.3C196.546 237.28 195.328 236.418 194.014 235.738C193.854 238.569 189.274 251.298 188.294 253.943C188.089 254.409 187.993 254.919 188.014 255.431C189.479 255.504 190.93 255.761 192.334 256.195C195.18 250.63 196.978 244.558 197.634 238.3V238.3Z" fill="#FFC7D6"/>
<path d="M277.074 99.4363C276.513 98.9299 275.815 98.6127 275.074 98.5271C273.807 98.6082 272.613 99.1734 271.726 100.113C270.839 101.052 270.322 102.299 270.274 103.611C271.655 103.556 273 103.146 274.188 102.417C275.376 101.688 276.368 100.663 277.074 99.4363Z" fill="#FFC7D6"/>
<path d="M270.155 105.388C270.28 106.64 270.843 107.803 271.737 108.658C272.631 109.514 273.796 110.004 275.015 110.037C276.243 109.984 277.416 109.492 278.332 108.643C279.248 107.795 279.85 106.644 280.035 105.388C279.992 103.752 279.429 102.177 278.435 100.904C277.512 102.291 276.276 103.425 274.833 104.207C273.39 104.988 271.784 105.394 270.155 105.388V105.388Z" fill="#FFC7D6"/>
<path d="M186.154 238.238C186.726 236.892 187.22 235.512 187.634 234.105C186.771 233.872 185.933 233.546 185.134 233.134C184.916 233.361 184.74 233.627 184.614 233.919C181.994 239.664 175.354 248.384 174.794 251.05L177.134 253.116C177.394 252.93 177.634 252.662 177.914 252.414C181.834 248.488 183.754 243.239 186.154 238.238Z" fill="#FFC7D6"/>
<path d="M245.734 112.496C246.138 113.251 246.713 113.894 247.409 114.369C248.106 114.844 248.904 115.137 249.734 115.224C253.894 115.224 255.734 108.611 252.314 105.925C252.272 106.231 252.212 106.535 252.134 106.834C250.954 110.905 249.774 112.104 245.734 112.496Z" fill="#FFC7D6"/>
<path d="M245.074 110.884C246.037 111.149 247.06 111.033 247.944 110.559C248.828 110.085 249.509 109.287 249.855 108.322C250.296 107.3 250.58 106.212 250.695 105.098C249.918 104.875 249.097 104.868 248.317 105.08C247.537 105.291 246.825 105.712 246.253 106.3C245.682 106.888 245.272 107.622 245.065 108.428C244.858 109.233 244.861 110.081 245.074 110.884Z" fill="#FFC7D6"/>
<path d="M110.534 268.635C110.714 268.945 110.834 269.338 111.174 269.421C111.974 268.511 112.774 267.602 113.554 266.672C113.711 266.331 113.779 265.954 113.754 265.577C112.908 262.515 111.555 259.627 109.754 257.043C108.174 257.92 106.453 258.494 104.674 258.737C106.874 261.837 108.574 265.308 110.534 268.635Z" fill="#FFC7D6"/>
<path d="M124.874 200.609C124.866 201.202 124.975 201.792 125.194 202.34C125.414 202.889 125.74 203.386 126.152 203.8C126.563 204.214 127.053 204.537 127.59 204.748C128.127 204.96 128.7 205.056 129.274 205.031C130.305 205.032 131.296 204.622 132.041 203.887C132.786 203.151 133.228 202.147 133.274 201.084C133.259 199.826 132.77 198.625 131.911 197.733C131.052 196.842 129.891 196.332 128.674 196.31C128.145 196.314 127.623 196.431 127.14 196.653C126.656 196.875 126.223 197.198 125.866 197.602C125.509 198.006 125.237 198.481 125.066 198.998C124.896 199.516 124.83 200.064 124.874 200.609V200.609Z" fill="#FFC7D6"/>
<path d="M148.254 195.339C148.517 196.096 148.989 196.758 149.611 197.243C150.232 197.727 150.977 198.014 151.754 198.067C152.704 198.013 153.598 197.589 154.257 196.881C154.916 196.172 155.291 195.232 155.307 194.25C155.322 193.268 154.976 192.316 154.339 191.586C153.702 190.857 152.822 190.403 151.874 190.318C151.102 190.342 150.353 190.597 149.717 191.051C149.082 191.506 148.588 192.141 148.294 192.88C148.575 193.227 148.725 193.666 148.717 194.117C148.71 194.569 148.546 195.003 148.254 195.339Z" fill="#FFC7D6"/>
<path d="M199.494 354.66C200.674 354.02 201.034 353.276 199.934 352.181C199.223 351.602 198.408 351.174 197.536 350.923C196.665 350.671 195.753 350.6 194.854 350.714C193.784 350.656 192.712 350.768 191.674 351.044C191.101 352.251 190.299 353.327 189.314 354.206C189.696 354.477 190.152 354.615 190.614 354.598C198.274 354.64 197.914 355.425 199.494 354.66Z" fill="#FFC7D6"/>
<path d="M198.154 347.635C199.214 347.635 200.814 347.759 200.894 346.457C200.974 345.155 199.454 344.535 198.174 344.39C197.51 344.319 196.842 344.285 196.174 344.287C195.172 344.231 194.179 344.522 193.354 345.114C193.078 346.59 192.71 348.046 192.254 349.474C193.434 349.453 195.374 347.49 198.154 347.635Z" fill="#FFC7D6"/>
<path d="M115.594 236.399C114.246 235.568 112.678 235.199 111.114 235.345C109.894 235.345 108.174 235.097 107.574 236.192C107.354 236.606 107.154 237.04 106.954 237.494C107.154 237.453 105.114 237.845 115.594 236.399Z" fill="#FFC7D6"/>
<path d="M101.394 246.628C101.219 246.998 101.129 247.404 101.129 247.816C101.129 248.228 101.219 248.634 101.394 249.004C101.452 249.342 101.403 249.69 101.254 249.996C102 250.052 102.749 250.052 103.494 249.996C104.744 249.998 105.991 249.866 107.214 249.604H107.574C107.951 249.053 108.228 248.437 108.394 247.785C108.534 247.227 108.914 246.587 108.194 246.277C107.874 246.277 107.494 246.277 107.234 246.401C105.154 246.359 103.274 246.545 101.394 246.628Z" fill="#FFC7D6"/>
<path d="M127.354 361.728C131.494 365.22 132.254 366.418 133.174 365.675C135.174 364.083 132.574 361.066 130.454 359.723C129.294 360.24 128.154 360.798 127.014 361.376L127.354 361.728Z" fill="#FFC7D6"/>
<path d="M129.474 368.072C129.474 366.295 126.974 363.546 124.834 362.554L122.954 363.65C124.494 365.468 126.114 367.204 127.734 368.96C128.314 369.58 129.414 369.683 129.474 368.072Z" fill="#FFC7D6"/>
<path d="M108.595 231.44C106.595 227.038 106.175 222.203 104.975 217.595C104.543 216.103 104.203 214.584 103.955 213.048C103.515 209.597 104.395 211.292 104.775 212.821C106.035 218.173 107.355 223.525 108.655 228.898C109.395 232.06 110.655 234.477 114.415 234.498C115.915 234.498 116.035 234.498 115.735 233.031C114.335 226.356 111.155 210.651 113.455 204.307C114.095 205.816 113.455 207.283 113.555 208.771C113.771 214.931 114.44 221.065 115.555 227.121C115.849 230.053 116.48 232.939 117.435 235.717C118.375 237.784 118.654 237.019 122.994 237.102C124.474 237.102 124.995 236.792 124.255 235.035C122.188 230.536 120.579 225.827 119.455 220.984C119.236 220.37 119.146 219.716 119.191 219.064C119.236 218.412 119.414 217.777 119.715 217.202C120.917 223.544 122.858 229.712 125.494 235.572C126.014 236.792 126.574 237.329 127.854 236.833C129.134 236.337 132.155 236.647 130.815 234.002C123.615 219.806 119.555 203.006 119.295 194.347C119.295 193.831 119.114 193.004 119.854 192.942C120.594 192.88 120.515 193.562 120.515 194.058C120.515 194.203 120.515 194.347 120.515 194.471C121.461 194.114 122.326 193.558 123.054 192.839C122.854 193.004 122.675 193.19 122.435 193.355C125.415 187.755 125.555 181.473 126.435 175.336C127.575 176.307 127.714 177.919 126.834 181.887C126.482 184.559 125.899 187.194 125.095 189.76C125.603 189.447 126.168 189.243 126.755 189.161C126.955 188.003 127.235 188.086 127.875 187.983C133.47 186.773 138.942 185.016 144.215 182.734C145.715 182.155 146.675 180.275 148.515 180.461C148.799 180.31 149.115 180.232 149.435 180.234C149.427 179.927 149.387 179.622 149.315 179.324C148.435 174.654 147.435 170.604 142.595 167.814C136.034 163.837 128.262 162.568 120.834 164.26C114.879 165.313 109.352 168.143 104.935 172.402C102.046 174.973 100.162 178.543 99.6345 182.445C99.0345 191.227 99.0945 200.071 98.9145 208.874C98.9145 209.742 98.7545 209.845 99.2145 210.548C100.461 212.16 101.269 214.086 101.555 216.127C102.624 221.106 104.2 225.955 106.255 230.592C108.455 235.138 109.055 232.473 108.595 231.44Z" fill="#A6EEF8"/>
<path d="M235.454 78.9788C234.087 81.2948 233.188 83.8735 232.814 86.5588C232.439 89.2441 232.596 91.9801 233.274 94.6009C233.574 95.9028 233.794 97.6799 235.274 97.308C235.134 95.8821 233.634 90.8401 235.274 90.6541C236.374 90.6541 235.934 95.2829 236.894 96.626C237.774 96.626 244.894 94.5596 252.894 93.6917C249.618 88.1528 247.334 82.0487 246.154 75.6725C246.154 75.1972 245.654 74.598 246.314 74.3913C246.974 74.1847 247.014 74.9906 247.174 75.5072C248.754 80.8592 251.414 89.0216 254.774 93.4644C257.514 93.0718 259.134 92.2246 262.434 91.9146C264.484 91.4626 266.579 91.2683 268.674 91.336C267.314 90.0135 268.214 90.6954 260.674 81.5825C257.834 78.1315 260.154 79.0821 261.134 80.1773C263.914 83.3183 266.734 86.3766 269.414 89.6622C269.808 90.2502 270.364 90.7012 271.01 90.9558C271.656 91.2103 272.362 91.2564 273.034 91.088C274.361 90.9135 275.699 90.8582 277.034 90.9227C278.674 90.4681 278.694 90.1788 277.294 88.691C272.416 83.4425 266.832 78.9467 260.714 75.3419C257.274 73.2754 251.414 70.8577 246.714 67.7788C244.714 66.4562 243.874 66.1463 242.714 66.9109C240.911 68.6216 239.195 70.4287 237.574 72.3249C236.625 73.9951 235.796 75.7356 235.094 77.5323C235.231 77.5792 235.354 77.6606 235.452 77.7693C235.55 77.8779 235.62 78.0103 235.656 78.1542C235.692 78.2981 235.692 78.4489 235.657 78.593C235.622 78.7371 235.552 78.8697 235.454 78.9788V78.9788Z" fill="#A6EEF8"/>
<path d="M20.3945 88.8563C24.3945 90.6954 20.5345 91.8113 28.2545 105.388C29.0945 106.876 28.7345 106.111 35.1545 100.718C36.2145 99.829 36.4145 99.0644 35.4545 97.9072C33.6646 95.7519 32.629 93.0369 32.5145 90.1995C32.5623 89.7869 32.4886 89.3691 32.3031 89.0004C32.1175 88.6318 31.8288 88.3295 31.4745 88.133C30.2899 87.5037 29.2762 86.5787 28.5253 85.442C27.7744 84.3053 27.3101 82.9929 27.1745 81.6238C26.8858 80.0473 26.0368 78.6395 24.7945 77.6769C24.0592 76.8937 23.1143 76.3553 22.0809 76.1307C21.0475 75.9061 19.9728 76.0056 18.9945 76.4164C18.0317 76.9169 17.2171 77.6761 16.6364 78.6143C16.0557 79.5524 15.7304 80.6348 15.6945 81.7478C15.7702 83.2644 16.249 84.7302 17.0781 85.9841C17.9072 87.2381 19.0546 88.2319 20.3945 88.8563Z" fill="#A6EEF8"/>
<path d="M34.2745 74.164C35.2979 74.1641 36.2845 74.5577 37.0424 75.2682C37.8003 75.9787 38.2752 76.9552 38.3745 78.0075C38.5345 78.6894 38.6945 79.392 38.8345 80.0739C39.0345 81.1691 39.2745 81.7477 40.6945 81.5411C42.1478 81.2699 43.6429 81.365 45.053 81.8183C46.4632 82.2716 47.7466 83.0696 48.7945 84.1448C49.5945 85.0127 50.0945 84.7854 50.7945 84.1448C52.0264 82.6725 53.4152 81.3485 54.9345 80.1979C57.0345 78.8341 56.9345 77.3256 54.7745 76.0651C51.8355 73.9754 48.3419 72.8781 44.7745 72.9241C44.5492 72.9805 44.3139 72.979 44.0893 72.9197C43.8646 72.8605 43.6574 72.7453 43.4858 72.5843C43.3141 72.4233 43.1833 72.2213 43.1046 71.9959C43.0259 71.7706 43.0019 71.5288 43.0345 71.2916C42.9522 69.5383 42.6565 67.8026 42.1545 66.1256C40.5545 59.265 29.0745 62.3027 30.6545 69.1219C31.0945 71.3123 32.1545 73.916 34.2745 74.164Z" fill="#A6EEF8"/>
<path d="M32.1544 87.0172C33.0344 87.4304 33.8144 87.8231 33.7744 89.0836C33.8922 92.0525 35.0181 94.8837 36.9544 97.0806C37.7944 98.2998 38.4544 97.9279 38.9544 97.0806C39.8878 95.7413 41.0064 94.5507 42.2744 93.5471C47.8144 88.0297 49.5944 87.3478 46.3944 85.2814C41.8144 82.285 39.6144 84.8267 37.9544 81.5205C37.4536 80.4257 36.7325 79.4538 35.8392 78.6699C34.946 77.8859 33.9011 77.3079 32.7744 76.9743C31.8272 76.9033 30.8828 77.1479 30.0801 77.6723C29.2773 78.1968 28.6585 78.9733 28.3144 79.888C28.1381 81.3437 28.4152 82.8196 29.1057 84.1016C29.7962 85.3835 30.8641 86.4048 32.1544 87.0172V87.0172Z" fill="#A6EEF8"/>
<path d="M159.935 209.825C159.235 207.49 158.455 205.175 157.595 202.448C156.36 204.861 154.864 207.121 153.135 209.184C155.012 210.089 157.063 210.541 159.135 210.507C159.515 210.569 160.155 210.775 159.935 209.825Z" fill="#A6EEF8"/>
<path d="M226.534 255.844C220.414 257.627 213.992 258.008 207.714 256.96C207.078 256.836 206.45 256.67 205.834 256.464C202.494 255.514 203.014 257.249 205.014 257.828C212.936 259.99 221.308 259.608 229.014 256.733C229.774 256.443 230.714 255.885 230.254 255.059C229.394 253.468 230.594 252.992 231.354 252.393C233.574 250.327 233.594 248.798 231.174 247C231.007 246.918 230.859 246.799 230.741 246.651C230.623 246.503 230.538 246.331 230.493 246.145C230.447 245.96 230.441 245.766 230.476 245.578C230.511 245.39 230.585 245.212 230.694 245.057C232.049 241.684 233.218 238.235 234.194 234.725C235.354 230.758 235.334 230.737 238.394 233.444C239.214 234.167 240.394 234.601 240.394 236.006C240.694 240.739 241.154 245.471 241.334 250.203C242.374 278.182 241.674 278.492 242.934 280.083C243.734 279.67 243.354 280.083 243.174 267.685C243.137 258.132 242.636 248.587 241.674 239.085C241.374 235.18 242.134 234.415 240.894 233.196C234.894 227.245 227.654 219.826 221.034 214.226C219.914 213.317 220.034 212.8 221.034 211.891C222.587 210.412 223.762 208.559 224.454 206.498C227.814 194.905 234.054 181.535 247.814 137.831C249.374 132.809 244.694 133.326 241.814 128.408C242.854 128.16 243.814 129.792 244.294 128.842C244.774 127.891 243.254 127.271 242.474 126.775C240.584 125.545 238.761 124.206 237.014 122.766C231.477 117.234 226.73 110.917 222.914 104.003C222.263 102.893 221.976 101.596 222.094 100.304C222.179 96.7598 222.724 93.243 223.714 89.8482C224.154 88.5464 225.194 80.9832 228.194 76.4164C234.494 66.8489 244.594 54.5537 254.194 49.4083C260.194 46.1227 264.774 45.73 273.594 47.4658C287.314 50.1935 294.834 55.7315 305.134 60.629C308.164 62.0011 311.08 63.6251 313.854 65.4851C313.94 65.5418 314.042 65.5662 314.143 65.5541C314.244 65.542 314.338 65.4942 314.408 65.4187C314.479 65.3432 314.522 65.2448 314.531 65.1401C314.539 65.0354 314.512 64.9309 314.454 64.8445C312.714 62.2408 308.014 60.2363 305.354 58.9345C272.174 42.5891 256.554 35.8112 233.014 66.9729C229.174 72.0356 226.074 75.5692 224.894 80.26C223.254 86.8106 221.194 93.2578 220.894 100.098C220.734 103.363 221.874 105.615 231.714 118.964C234.154 122.394 238.154 124.42 240.554 128.118C242.554 131.425 240.674 130.185 245.454 134.09C245.92 134.408 246.25 134.898 246.376 135.459C246.503 136.02 246.416 136.61 246.134 137.107C244.938 139.91 243.955 142.805 243.194 145.766C238.714 160.789 226.614 194.595 224.574 201.394C223.474 205.01 222.574 208.709 219.494 211.271C217.934 212.842 217.174 213.09 219.494 215.136C224.054 219 228.174 223.401 232.494 227.431C233.914 228.774 235.234 229.993 233.434 232.018C231.766 237.738 229.715 243.331 227.294 248.756C227.014 249.376 226.894 250.141 226.014 250.451C225.08 246.512 225.534 242.359 227.294 238.734C227.574 238.094 227.834 237.391 227.034 237.102C226.234 236.812 226.154 237.577 225.954 238.135C225.211 239.918 224.642 241.773 224.254 243.673C224.254 244.313 224.094 245.429 223.054 244.747C221.289 243.948 219.479 243.258 217.634 242.681C219.474 240.284 221.234 238.052 222.934 235.758C224.634 233.465 226.274 235.903 229.154 233.217C229.272 233.107 229.351 232.961 229.38 232.8C229.409 232.64 229.386 232.474 229.314 232.328C229.24 232.182 229.122 232.065 228.978 231.995C228.833 231.924 228.671 231.903 228.514 231.936C226.78 232.33 225.07 232.834 223.394 233.444C219.994 234.705 218.614 238.837 215.774 241.544C216.979 236.178 219.18 231.104 222.254 226.604C222.574 226.129 223.394 225.571 222.734 224.972C222.074 224.372 221.694 225.302 221.234 225.674C220.868 226.008 220.545 226.39 220.274 226.811C213.314 236.854 215.554 240.553 212.274 240.429C210.609 240.322 208.938 240.51 207.334 240.987C206.177 241.338 204.946 241.329 203.793 240.962C202.641 240.594 201.619 239.884 200.854 238.92C199.086 237.155 197.009 235.752 194.734 234.787C192.403 233.909 189.968 233.36 187.494 233.155C182.414 231.915 182.334 229.022 175.294 219.475C172.094 215.218 168.794 211.003 162.854 210.961C161.734 210.961 161.994 210.672 159.314 203.274C157.494 198.398 160.594 191.702 154.614 188.809C153.874 188.437 153.714 187.735 153.494 187.074C152.088 183.083 150.906 179.013 149.954 174.882C149.476 172.489 148.271 170.317 146.514 168.682C145.974 168.145 145.254 168.269 144.674 167.959C143.514 167.318 143.134 164.405 135.414 162.876C125.414 160.809 116.374 164.074 107.594 168.538C105.294 169.447 104.154 171.513 100.034 177.175C100.034 170.335 100.674 155.147 100.834 151.2C100.834 150.291 100.034 149.134 100.834 148.597C101.281 148.388 101.765 148.28 102.254 148.28C102.744 148.28 103.228 148.388 103.674 148.597C110.314 150.436 110.814 154.217 115.154 152.44C121.357 149.968 127.845 148.343 134.454 147.605C139.202 146.99 144.02 147.823 148.314 150.002C149.889 150.784 151.557 151.347 153.274 151.676C154.094 151.82 154.594 151.572 154.594 150.704C154.594 149.837 153.094 149.754 150.594 148.638C145.753 146.14 140.353 145.027 134.954 145.414C128.199 146.098 121.557 147.681 115.194 150.126C111.394 151.634 110.554 149.175 107.194 147.563C102.574 145.311 98.4144 146.344 93.7944 147.667C79.7544 151.696 78.1544 154.424 77.1944 152.916C76.9697 152.455 76.9197 151.924 77.0544 151.428C79.4544 134.772 86.2944 121.299 95.0544 107.578C95.3744 107.103 95.8944 106.628 95.4144 105.904C95.1031 106.006 94.8151 106.173 94.5676 106.393C94.3201 106.613 94.1183 106.883 93.9744 107.186C91.6544 111.029 89.2744 114.831 87.1544 118.819C73.2944 144.856 78.1544 153.267 74.3544 151.138C71.5438 149.198 68.2541 148.129 64.8744 148.059C57.8344 148.555 52.0144 152.192 46.5144 156.325C45.8744 156.842 45.4944 157.317 46.0544 157.937C46.1595 158.06 46.2888 158.159 46.4336 158.226C46.5784 158.294 46.7355 158.329 46.8944 158.329C47.0533 158.329 47.2104 158.294 47.3552 158.226C47.5 158.159 47.6293 158.06 47.7344 157.937C50.1878 155.603 53.0441 153.766 56.1544 152.523C61.8144 149.878 66.8544 148.638 72.6944 152.378C73.6944 153.019 74.8144 153.515 75.7744 154.217C76.5436 154.786 77.4566 155.11 78.4016 155.151C79.3466 155.191 80.2824 154.946 81.0944 154.445C85.044 152.598 89.1474 151.125 93.3544 150.043C95.0944 149.568 95.5744 149.754 95.5944 151.758C95.5944 167.071 94.9144 182.383 94.7344 197.716C94.6344 205.878 94.6144 214.04 94.3944 222.203C94.3944 224.6 94.7944 227.555 91.3744 228.402C91.0944 228.402 90.6544 228.857 90.6544 229.084C90.6544 231.832 89.3744 234.395 89.5544 237.184C89.7344 239.974 90.5344 240.739 93.0544 241.317C97.6944 242.247 100.634 240.284 100.714 242.268C100.714 243.342 100.714 244.665 99.2944 245.078C97.7525 245.433 96.1434 245.309 94.6699 244.72C93.1963 244.132 91.9244 243.106 91.0144 241.772C90.7944 241.42 90.6144 240.945 90.0944 241.152C90.0113 241.188 89.9371 241.242 89.8772 241.311C89.8172 241.381 89.7732 241.463 89.7482 241.552C89.7233 241.642 89.718 241.735 89.7329 241.827C89.7479 241.919 89.7825 242.006 89.8344 242.082C92.0544 245.305 89.8344 249.087 93.0944 250.347C93.5451 250.532 93.945 250.829 94.2589 251.211C94.5728 251.593 94.791 252.048 94.8944 252.538C96.6944 257.787 99.2144 259.646 104.374 258.737C108.234 258.241 111.654 256.795 112.714 252.972C114.254 247.496 115.574 243.88 109.934 244.231C109.603 244.304 109.281 244.414 108.974 244.561C108.134 244.789 105.154 243.094 105.334 242.495C107.854 234.229 107.654 235.738 111.154 235.407C112.718 235.267 114.284 235.635 115.634 236.461C118.654 238.3 119.314 241.007 120.594 244.727C123.814 254.439 126.434 263.841 130.594 272.644C132.894 277.48 134.434 282.708 137.454 287.212C138.656 288.782 139.645 290.513 140.394 292.358C141.974 297.214 143.614 302.029 145.554 306.823C146.294 308.641 146.754 311.328 149.834 310.79C152.154 310.418 147.494 313.249 136.654 353.214C136.294 354.578 136.894 357.244 133.914 356.293C125.554 359.558 112.894 365.179 111.734 374.436C111.674 374.712 111.668 374.999 111.719 375.277C111.77 375.555 111.875 375.82 112.029 376.054C112.183 376.289 112.381 376.488 112.613 376.64C112.844 376.792 113.104 376.893 113.374 376.937C114.955 377.25 116.569 377.347 118.174 377.226C128.374 376.937 138.174 374.312 147.934 371.543C148.268 371.467 148.571 371.288 148.803 371.03C149.035 370.771 149.186 370.446 149.234 370.097C150.21 366.92 150.623 363.588 150.454 360.261C149.854 355.962 151.554 352.45 153.054 348.792C155.294 343.254 160.614 330.401 164.434 322.259C165.964 323.467 167.354 324.854 168.574 326.392C175.241 332.329 183.137 336.606 191.654 338.894C193.094 339.307 193.454 339.803 192.994 341.229C192.234 343.543 191.554 345.878 190.994 348.213C189.494 353.483 186.014 353.111 182.474 357.698C181.074 359.537 179.914 361.562 180.834 363.898C181.754 366.233 184.074 366.253 186.074 366.274C193.141 366.377 200.157 365.029 206.714 362.306C207.664 361.934 208.518 361.342 209.212 360.576C209.905 359.809 210.419 358.888 210.714 357.884C213.534 349.371 211.974 340.898 210.714 332.447C210.617 331.753 210.287 331.118 209.783 330.65C209.279 330.181 208.632 329.911 207.954 329.884C206.636 329.589 205.272 329.589 203.954 329.884C202.4 330.411 200.738 330.496 199.141 330.133C197.544 329.77 196.071 328.97 194.874 327.818C179.494 315.295 176.874 313.084 175.394 310.212C179.214 310.108 179.214 310.108 179.974 306.678C181.586 302.318 182.863 297.834 183.794 293.267C184.434 289.424 185.354 285.663 185.794 281.757C185.794 276.157 185.374 275.31 183.134 268.573C181.334 263.18 182.814 265.846 177.794 255.823C178.772 256.461 179.868 256.88 181.011 257.054C182.154 257.229 183.32 257.154 184.434 256.836C189.254 255.968 197.034 258.902 198.434 259.398C201.434 260.349 202.074 260.142 202.794 256.981C203.334 254.604 203.554 252.125 204.134 249.769C204.714 247.413 202.834 244.375 204.854 243.032C206.434 241.978 208.714 242.247 212.854 242.082C213.194 242.082 213.594 242.082 213.694 242.495C214.154 244.272 215.554 244.148 216.894 244.251C218.354 244.43 219.774 244.864 221.094 245.533C221.994 245.946 223.274 246.297 222.914 247.723C222.554 249.149 221.414 249.004 220.334 249.004C218.543 248.714 216.792 248.207 215.114 247.496C214.474 247.33 213.714 247 213.454 247.744C212.134 251.649 208.514 254.418 209.454 255.266C209.874 255.637 210.254 255.266 210.574 254.976C214.574 251.381 213.294 248.426 216.074 249.728C218.854 251.029 221.634 251.629 224.354 249.459C225.034 253.447 224.734 252.001 218.354 252.083C217.854 252.083 217.094 251.939 217.014 252.744C216.934 253.55 217.714 253.55 218.214 253.571C220.28 253.884 222.373 253.96 224.454 253.798C224.905 253.713 225.368 253.731 225.811 253.853C226.253 253.974 226.664 254.196 227.014 254.501C227.494 254.976 227.674 255.513 226.534 255.844ZM96.9744 249.645C93.4344 249.025 92.9744 249.418 92.2344 246.917C91.9744 245.987 92.2344 245.781 93.1744 246.049C98.1344 247.454 99.8544 245.698 99.6944 247.95C99.5344 249.831 98.6944 249.604 96.9744 249.604V249.645ZM156.974 239.788C157.554 241.565 156.254 241.111 154.454 242.412C152.274 244.045 151.414 242.412 150.454 239.995C149.554 237.888 148.883 235.684 148.454 233.423C147.694 229.291 146.654 225.158 146.214 220.653C145.774 215.425 146.674 215.817 145.134 215.466C146.933 213.955 148.908 212.684 151.014 211.685C153.154 210.755 153.434 211.354 153.394 212.615C153.003 221.794 154.215 230.971 156.974 239.705V239.788ZM128.714 225.323C130.512 226.037 132.43 226.368 134.354 226.294C135.72 226.098 136.979 225.422 137.918 224.379C138.858 223.337 139.422 221.992 139.514 220.57C140.314 216.272 140.454 216.127 144.954 215.528C144.394 224.207 145.994 229.249 147.574 237.37C147.854 238.755 147.774 239.313 146.454 239.974C141.366 242.342 136.068 244.196 130.634 245.512C129.694 245.739 129.234 245.512 128.914 244.851C128.086 242.844 127.417 240.771 126.914 238.651C137.114 236.399 133.234 237.639 128.714 225.24V225.323ZM147.914 206.477C147.914 207.138 147.774 207.841 147.754 208.544C147.734 209.246 148.374 210.217 147.214 210.734C146.728 211.016 146.175 211.148 145.618 211.115C145.062 211.082 144.526 210.885 144.074 210.548C142.138 208.985 140.839 206.729 140.434 204.225C140.377 204.073 140.356 203.908 140.372 203.746C140.388 203.583 140.441 203.427 140.527 203.29C140.613 203.153 140.729 203.039 140.866 202.957C141.003 202.875 141.157 202.828 141.314 202.82C141.854 202.696 142.374 202.468 142.914 202.324C149.034 200.836 147.734 201.001 147.914 206.395V206.477ZM153.134 209.267C154.867 207.199 156.364 204.932 157.594 202.51C160.214 210.775 160.594 210.775 159.034 210.569C156.992 210.568 154.976 210.095 153.134 209.184V209.267ZM152.154 187.859C150.598 186.539 149.571 184.668 149.274 182.61C149.174 182.238 149.434 181.928 149.834 181.845C150.454 181.659 150.334 182.093 152.154 187.859ZM103.294 227.596C101.794 227.121 100.694 226.852 99.6544 226.418C98.0544 225.778 98.6344 224.104 98.6144 223.071C98.6144 219.95 98.8744 216.871 99.0344 213.73C100.914 218.07 101.374 222.802 103.294 227.596ZM93.2944 229.105C95.893 228.324 98.631 228.176 101.294 228.671C102.474 228.96 103.534 229.663 103.534 230.882C103.534 232.101 102.194 232.287 101.174 232.452C99.5087 232.793 97.8025 232.87 96.1144 232.68C93.8744 232.68 92.1144 232.989 91.9144 231.274C91.8264 230.813 91.9091 230.334 92.146 229.932C92.383 229.531 92.7571 229.235 93.1944 229.105H93.2944ZM99.9144 239.189C98.5544 239.478 97.1544 239.54 95.9144 239.705C94.9423 239.666 93.9737 239.563 93.0144 239.395C92.558 239.197 92.144 238.907 91.7963 238.543C91.4485 238.179 91.1738 237.747 90.988 237.273C90.8022 236.798 90.7088 236.291 90.7134 235.779C90.7179 235.268 90.8202 234.762 91.0144 234.291C91.3344 233.775 91.7144 233.981 92.1144 234.085C94.4461 234.494 96.8199 234.584 99.1744 234.353C100.094 234.353 101.314 233.651 101.354 235.325C101.394 236.998 102.154 238.713 99.8144 239.189H99.9144ZM108.074 246.194C108.854 246.607 108.594 246.938 108.374 247.764C107.972 249.157 107.128 250.368 105.978 251.204C104.828 252.04 103.439 252.452 102.034 252.373C98.4544 252.373 101.834 250.451 101.394 249.025C100.454 246.091 102.794 245.574 104.554 244.582C105.554 243.838 106.774 245.595 107.974 246.194H108.074ZM106.074 235.511C105.248 238.252 104.148 240.897 102.794 243.404C102.444 242.746 102.261 242.007 102.261 241.255C102.261 240.504 102.444 239.765 102.794 239.106C103.282 237.9 103.353 236.557 102.994 235.304C102.874 234.663 102.694 234.023 103.434 233.589C103.722 233.364 104.074 233.243 104.434 233.243C104.795 233.243 105.146 233.364 105.434 233.589C105.721 233.814 105.923 234.134 106.007 234.496C106.091 234.857 106.051 235.238 105.894 235.573L106.074 235.511ZM108.074 233.155C107.435 232.494 106.955 231.687 106.674 230.799C104.622 226.16 103.047 221.312 101.974 216.334C100.334 209.267 99.2344 212.201 99.3544 209.081C99.5344 200.257 99.4544 191.413 100.074 182.651C100.584 178.744 102.471 175.168 105.374 172.609C109.785 168.339 115.315 165.507 121.274 164.467C128.695 162.773 136.462 164.043 143.014 168.021C147.874 170.811 148.874 174.861 149.754 179.531C150.034 181.205 149.754 180.73 148.954 180.668C147.114 180.482 146.154 182.362 144.654 182.941C139.325 185.183 133.8 186.892 128.154 188.045C127.554 188.045 127.214 188.045 127.034 189.202C126.734 191.268 127.754 194.885 129.034 195.546C130.314 196.207 130.814 195.752 131.034 194.43C131.674 190.194 129.234 189.326 131.334 188.913C135.507 187.993 139.571 186.607 143.454 184.78C144.154 184.47 144.674 184.16 144.854 185.4C145.034 186.64 145.774 188.541 147.134 188.189C148.854 187.755 147.814 185.916 147.754 184.635C147.754 184.139 147.154 183.788 147.614 183.003C148.014 184.139 148.394 185.069 148.694 186.04C148.87 186.918 149.291 187.723 149.907 188.355C150.522 188.987 151.304 189.418 152.154 189.595C160.154 191.02 158.854 204.06 149.474 210.135C149.474 207.593 149.474 205.051 149.474 202.551C149.474 200.051 149.314 199.699 146.934 199.844C144.575 200.109 142.249 200.628 139.994 201.394C138.734 201.745 138.414 202.551 138.574 203.853C138.81 205.795 139.487 207.652 140.551 209.272C141.615 210.892 143.035 212.228 144.694 213.172C141.374 215.053 138.694 214.66 129.334 215.9C128.734 215.9 127.854 215.9 127.914 216.83C127.974 217.76 128.794 217.615 129.434 217.553C131.794 217.409 134.174 217.367 136.514 217.057C137.694 216.913 138.094 217.057 137.854 218.318C137.034 222.451 136.034 225.096 131.854 224.352C130.5 224.154 129.234 223.543 128.218 222.597C127.203 221.651 126.484 220.413 126.154 219.041C123.774 211.044 121.134 203.13 120.674 194.678C120.674 193.996 120.674 193.087 119.974 193.149C119.274 193.211 119.374 194.037 119.414 194.554C119.675 199.449 120.453 204.299 121.734 209.019C127.734 233.237 134.234 235.882 129.734 236.626C129.117 236.719 128.509 236.865 127.914 237.06C126.634 237.556 126.054 237.06 125.554 235.8C122.921 229.938 120.98 223.77 119.774 217.429C119.491 217.993 119.325 218.611 119.287 219.244C119.25 219.878 119.341 220.513 119.554 221.108C122.994 235.449 126.994 237.226 123.114 237.143C118.794 237.143 118.494 237.846 117.554 235.758C116.599 232.981 115.968 230.095 115.674 227.162C114.558 221.107 113.89 214.972 113.674 208.812C113.674 207.345 114.194 205.878 113.574 204.349C111.254 210.548 114.474 226.439 115.834 233.072C116.154 234.539 116.014 234.56 114.514 234.539C110.734 234.539 109.514 232.101 108.754 228.939C107.494 223.567 106.154 218.215 104.874 212.862C104.852 212.504 104.759 212.154 104.601 211.834C104.443 211.514 104.223 211.231 103.954 211.003C104.012 213.258 104.389 215.493 105.074 217.636C106.274 222.244 106.754 227.079 108.714 231.481C108.854 231.772 108.904 232.101 108.857 232.422C108.811 232.743 108.67 233.042 108.454 233.279C108.154 233.506 108.334 233.506 107.894 233.155H108.074ZM124.274 250.905C123.854 249.748 121.014 241.916 120.554 240.573C119.614 237.97 119.734 238.259 123.354 238.507C125.634 237.701 126.034 239.354 126.574 241.482C129.094 251.815 132.374 253.612 129.414 253.881C124.394 254.48 125.714 255.493 124.154 250.905H124.274ZM149.994 308.269C148.754 307.629 151.994 300.768 153.994 292.792C155.192 288.414 157.857 284.62 161.514 282.088C161.577 282.041 161.629 281.981 161.669 281.913C161.709 281.845 161.736 281.769 161.747 281.69C161.758 281.611 161.754 281.531 161.734 281.454C161.715 281.376 161.681 281.304 161.634 281.241C161.545 281.108 161.41 281.017 161.257 280.986C161.104 280.955 160.945 280.987 160.814 281.075C157.531 283.311 154.765 286.267 152.714 289.734C151.841 291.958 151.171 294.261 150.714 296.615C149.714 299.859 148.934 303 147.714 307.67C144.214 298.02 142.054 290.973 138.034 284.671C132.754 276.405 129.754 266.776 126.294 257.456C125.474 255.204 127.054 255.823 128.894 255.39C131.714 254.79 132.354 253.55 131.294 250.823C129.954 247.351 129.994 247.434 133.534 246.545C138.115 245.546 142.566 243.993 146.794 241.916C148.154 241.193 149.034 241.09 149.934 242.784C152.074 246.752 153.574 244.975 157.934 242.784C162.294 240.594 163.934 243.983 165.114 244.727C170.694 248.281 173.314 253.84 174.894 260.122C176.474 266.404 178.614 272.52 179.074 278.988C179.434 284.505 174.894 300.004 173.694 305.459C173.414 306.74 172.834 307.05 171.694 306.988C161.854 306.41 150.994 308.91 149.814 308.269H149.994ZM147.774 368.609C147.614 369.436 147.074 369.622 146.474 369.808C137.296 373.232 127.665 375.183 117.914 375.593C116.574 375.593 114.574 376.503 113.794 375.056C113.014 373.61 114.254 372.184 115.054 370.923C118.374 365.799 125.174 362.162 130.634 359.723C135.414 357.657 135.294 357.471 135.934 358.132C140.274 362.575 142.774 362.844 147.794 359.558C148.074 359.372 148.374 359.207 148.994 358.855C148.896 362.152 148.426 365.425 147.594 368.609H147.774ZM156.754 335.422C153.694 342.283 150.754 349.205 148.114 356.293C147.411 357.315 146.497 358.163 145.439 358.777C144.381 359.392 143.205 359.757 141.994 359.847C140.422 359.558 138.975 358.771 137.854 357.595C137.414 357.202 137.614 356.706 137.754 356.19C141.994 341.125 146.114 326.02 152.154 311.596C152.374 311.1 152.374 310.542 153.174 310.48C158.111 310.071 163.066 309.96 168.014 310.15C168.914 310.15 169.374 310.398 168.674 311.41C163.414 318.829 160.154 327.239 156.574 335.422H156.754ZM202.754 331.889C204.574 330.442 209.014 332.178 209.294 334.513C209.574 336.848 210.134 343.502 210.134 346.912C210.253 350.597 209.717 354.274 208.554 357.76C208.355 358.412 208.024 359.013 207.583 359.523C207.141 360.032 206.6 360.439 205.994 360.715C199.808 363.339 193.201 364.741 186.514 364.848C184.914 364.848 182.974 364.848 182.294 363.092C181.614 361.335 182.874 359.785 184.054 358.545C185.15 357.351 186.387 356.303 187.734 355.425C192.374 352.739 193.074 347.283 194.214 341.332C194.237 340.947 194.393 340.582 194.653 340.305C194.914 340.029 195.262 339.858 195.634 339.824C202.394 338.233 201.794 332.529 202.574 331.889H202.754ZM194.974 330.359C198.514 333.294 201.214 330.938 200.114 333.934C199.733 334.996 199.089 335.936 198.247 336.661C197.405 337.386 196.394 337.871 195.314 338.067C185.474 334.761 174.994 331.599 166.154 321.742C165.801 321.473 165.562 321.074 165.488 320.627C165.413 320.18 165.509 319.721 165.754 319.345C167.134 316.494 168.714 313.787 170.334 311.08C170.535 310.747 170.812 310.471 171.142 310.277C171.472 310.083 171.843 309.977 172.223 309.969C172.602 309.96 172.977 310.05 173.315 310.23C173.652 310.409 173.941 310.673 174.154 310.997C179.754 318.849 187.514 324.429 194.794 330.359H194.974ZM183.674 284.443C182.954 293.06 179.274 303.041 178.634 305.335C178.606 305.601 178.525 305.857 178.395 306.088C178.266 306.32 178.091 306.521 177.882 306.678C177.673 306.836 177.435 306.946 177.182 307.003C176.929 307.06 176.668 307.062 176.414 307.009C174.974 306.885 174.274 307.009 174.734 304.942C177.854 290.705 181.614 282.811 178.894 271.88C177.429 265.053 175.423 258.363 172.894 251.877C174.614 252.6 174.894 254.15 175.414 255.224C180.474 264.172 184.414 273.657 183.494 284.443H183.674ZM200.994 257.229C200.734 258.944 200.754 258.179 190.714 255.761C188.45 255.369 186.139 255.369 183.874 255.761C179.874 256.195 179.094 254.687 174.894 251.195C171.334 248.219 167.734 245.264 164.414 241.937C163.274 240.78 162.114 239.065 159.874 239.354C158.654 239.519 158.314 238.259 158.054 237.143C156.375 230.374 155.33 223.454 154.934 216.479C154.734 211.271 154.354 211.147 158.194 211.933C159.379 212.283 160.603 212.471 161.834 212.491C163.878 212.601 165.871 213.192 167.66 214.22C169.448 215.248 170.986 216.685 172.154 218.421C174.154 221.004 176.854 224.414 178.654 226.997C180.287 229.561 182.488 231.687 185.074 233.196C190.074 235.882 191.774 232.969 197.654 238.259C204.314 244.272 202.694 245.243 200.814 257.229H200.994ZM230.194 247.682C230.638 248.001 231.047 248.368 231.414 248.777C231.584 249.014 231.664 249.307 231.638 249.6C231.613 249.894 231.483 250.167 231.274 250.368C230.434 251.236 229.554 252.021 228.654 252.827C227.754 253.633 227.394 252.641 227.574 252.331C229.854 247.186 229.514 247.971 230.014 247.682H230.194Z" fill="#471280"/>
<path d="M364.614 243.404C365.514 243.28 366.434 244.21 367.054 243.177C369.054 240.015 364.154 237.391 361.054 234.023C358.334 231.026 354.654 228.547 355.394 223.546C352.654 210.961 349.954 198.377 346.154 185.978C342.294 173.249 339.494 160.21 335.274 147.584C334.953 146.629 334.811 145.619 334.854 144.608C335.081 140.384 333.695 136.237 330.994 133.057C325.796 126.488 319.921 120.522 313.474 115.265C308.294 110.802 308.174 108.198 304.414 103.425C304.115 103.13 303.936 102.729 303.913 102.302C303.891 101.876 304.027 101.457 304.294 101.131C310.294 91.584 315.194 82.3884 317.914 72.0563C318.072 71.5344 318.153 70.9911 318.154 70.4445C318.15 70.2851 318.088 70.1332 317.98 70.0186C317.873 69.9039 317.728 69.8347 317.574 69.8245C317.421 69.8065 317.267 69.8502 317.144 69.9463C317.021 70.0425 316.939 70.1839 316.914 70.3411C316.654 71.5781 316.307 72.7937 315.874 73.978C312.114 85.7153 305.394 95.3242 299.874 104.974C299.654 105.388 299.194 105.884 299.734 106.318C300.274 106.752 300.774 106.318 301.154 105.863C301.348 105.674 301.516 105.458 301.654 105.222C302.554 103.487 303.154 104.065 304.074 105.367C305.934 108.363 309.214 113.633 309.214 117.559C309.214 118.096 309.314 118.819 310.174 118.654C311.034 118.489 311.054 117.662 311.074 116.918C311.094 116.174 310.474 115.74 311.074 115.1C316.402 119.524 321.354 124.412 325.874 129.71C330.794 135.619 332.834 138.203 332.934 142.108C333.094 149.258 334.174 148.576 335.934 155.044C344.374 186.04 348.614 200.733 351.934 217.533C352.142 218.094 352.154 218.713 351.968 219.283C351.782 219.852 351.409 220.337 350.914 220.653C347.694 222.988 344.594 225.447 341.374 227.761C336.862 230.913 332.553 234.364 328.474 238.094C327.874 238.672 326.634 239.354 327.414 240.305C328.194 241.255 328.594 240.305 330.674 238.651C334.214 235.8 333.034 236.585 333.454 236.337C335.994 234.271 333.894 239.685 339.794 250.43C340.753 252.272 341.544 254.202 342.154 256.195C342.423 256.81 342.455 257.507 342.243 258.144C342.031 258.782 341.592 259.312 341.014 259.626C338.525 261.241 336.14 263.022 333.874 264.957C325.494 273.409 310.574 284.01 302.074 290.767C297.714 294.259 289.034 290.994 280.814 290.767C259.554 290.167 250.334 283.018 243.874 282.79C243.274 282.79 242.454 282.315 242.234 283.121C242.014 283.927 243.014 284.175 243.614 284.361C244.594 284.691 245.614 284.774 246.634 285.105C253.315 287.844 260.233 289.92 267.294 291.304C268.894 291.552 268.694 292.626 268.474 293.68C265.314 309.365 261.714 321.061 259.614 340.774C258.574 350.404 252.314 345.816 228.414 370.241C227.695 370.976 227.089 371.819 226.614 372.742C225.214 375.469 224.614 377.846 227.574 377.949C237.194 378.362 242.854 375.738 249.994 374.126C260.674 371.709 271.574 370.324 281.994 366.398C286.294 364.765 286.394 365.034 286.754 360.199C286.905 359.199 286.905 358.181 286.754 357.182C286.234 355.281 286.754 354.433 288.754 354.392C289.317 354.401 289.863 354.196 290.288 353.814C290.712 353.433 290.985 352.902 291.054 352.326C296.294 330.752 298.054 325.834 304.614 305.335C323.254 334.554 318.334 328.706 328.614 345.754C329.594 347.387 328.394 347.242 319.134 356.396C315.044 360.019 311.379 364.125 308.214 368.63C307.214 370.221 306.054 371.895 307.294 373.796C308.494 375.531 310.414 375.284 312.214 375.201C314.014 375.118 325.274 371.357 326.094 371.068C336.414 367.824 345.654 361.872 355.994 358.669C358.438 357.735 360.651 356.253 362.474 354.33C363.052 353.835 363.497 353.195 363.767 352.471C364.037 351.748 364.122 350.965 364.014 350.197C363.931 348.532 363.635 346.885 363.134 345.3C360.654 338.109 358.514 330.835 355.634 323.726C350.794 312.03 346.874 299.962 341.154 288.597C338.354 283.1 335.334 277.748 332.394 272.314C332.174 271.9 332.054 271.26 331.374 271.549C330.694 271.838 331.074 272.376 331.254 272.809C331.674 273.801 332.094 274.876 332.574 275.744C347.514 304.219 344.774 303.579 352.174 320.482C353.014 322.404 355.014 324.429 354.674 326.02C354.334 327.611 351.814 328.83 350.234 330.153C344.072 335.596 337.601 340.654 330.854 345.3C329.781 343.976 328.83 342.551 328.014 341.043C321.67 328.736 314.492 316.907 306.534 305.645C303.814 301.843 306.894 300.086 309.154 291.387C309.759 288.538 311.362 286.021 313.654 284.319C323.234 277.397 332.194 269.689 341.074 261.837C343.774 259.46 345.594 257.704 343.514 254.253C345.374 255.1 347.914 255.431 348.294 251.794C349.678 253.684 351.224 255.441 352.914 257.043C353.406 257.514 354.004 257.85 354.654 258.02C355.303 258.19 355.984 258.188 356.633 258.015C357.283 257.843 357.879 257.504 358.369 257.031C358.858 256.557 359.225 255.965 359.434 255.307C362.594 257.063 365.174 255.059 364.434 251.691C367.274 252.745 368.534 251.691 368.434 248.777C368.154 247.248 366.794 245.905 364.614 243.404ZM333.354 346.374C354.054 332.756 354.854 326.826 356.154 331.103C360.674 345.858 361.914 348.668 361.734 350.879C361.699 351.629 361.422 352.346 360.948 352.915C360.473 353.485 359.828 353.873 359.114 354.02C354.554 355.466 341.114 364.889 316.694 372.391C314.694 373.031 309.654 374.788 308.594 372.866C308.094 371.977 308.714 371.192 309.154 370.489C313.934 362.761 324.254 354.805 329.994 348.027C330.874 347.015 332.274 347.159 333.354 346.374ZM284.674 362.761C284.894 363.402 284.194 363.608 283.634 363.815C274.146 367.256 264.362 369.754 254.414 371.275C245.854 372.618 240.554 376.007 230.254 376.213C229.454 376.213 228.014 376.875 227.814 375.779C227.634 375.036 228.434 374.25 228.814 373.568C230.157 371.442 231.841 369.569 233.794 368.03C240.718 361.72 247.962 355.795 255.494 350.28C256.114 349.846 256.814 349.495 257.494 349.04C258.432 348.301 259.587 347.916 260.766 347.95C261.945 347.984 263.077 348.434 263.974 349.226C269.802 353.142 276.623 355.185 283.574 355.095C287.414 355.053 283.414 359.289 284.674 362.761ZM289.594 350.879C289.274 352.264 288.814 352.739 287.494 352.945C279.494 354.103 271.794 351.52 264.674 347.552C263.315 346.947 262.22 345.845 261.6 344.456C260.98 343.068 260.878 341.491 261.314 340.03C263.054 329.698 264.654 319.118 266.974 308.807C270.654 292.275 269.554 291.738 271.374 291.986C278.574 292.936 285.854 293.019 293.054 294.28C294.414 294.507 294.334 294.9 294.014 296.057C291.194 306.12 287.734 317.403 282.514 332.447C280.514 338.233 278.874 344.184 276.514 349.908C276.472 350.023 276.474 350.151 276.518 350.266C276.563 350.38 276.647 350.474 276.754 350.528C276.864 350.58 276.989 350.588 277.103 350.55C277.218 350.511 277.315 350.43 277.374 350.321C278.371 348.208 279.168 346 279.754 343.729C284.154 329.264 283.754 333.521 295.014 296.201C295.554 294.424 295.574 294.383 297.454 294.672C298.274 294.672 284.874 329.925 279.294 350.631C279.255 350.752 279.263 350.884 279.317 350.998C279.372 351.112 279.468 351.2 279.584 351.241C279.701 351.282 279.829 351.273 279.939 351.217C280.05 351.161 280.135 351.062 280.174 350.941C281.047 348.359 281.788 345.731 282.394 343.068C283.754 337.819 293.114 310.873 297.974 296.325C298.12 295.775 298.424 295.284 298.845 294.915C299.266 294.546 299.785 294.318 300.334 294.259C302.894 293.598 304.434 291.883 308.194 289.238C301.674 308.889 293.414 333.542 289.594 350.879ZM366.334 250.244C365.274 251.298 364.454 249.397 363.634 248.715C360.974 246.525 359.634 243.838 358.474 244.995C357.854 245.615 358.474 246.194 358.714 246.731C360.062 248.482 361.241 250.364 362.234 252.352C362.514 252.992 363.234 253.778 362.234 254.418C361.234 255.059 360.794 254.418 360.234 253.798C357.934 251.369 355.79 248.787 353.814 246.07C353.374 245.45 352.894 244.458 352.034 245.119C350.494 246.318 353.394 247.186 356.734 254.563C356.974 255.1 357.534 255.72 357.034 256.34C356.534 256.96 355.854 256.671 355.234 256.671C352.814 256.671 348.954 249.604 345.714 245.471C345.314 244.995 344.854 244.293 344.174 244.685C343.494 245.078 343.714 245.946 343.994 246.607C345.374 249.831 347.814 253.592 344.214 252.641C343.362 252.328 342.651 251.703 342.214 250.885C339.433 246.124 337.408 240.933 336.214 235.511C335.974 234.601 336.374 234.188 336.954 233.733C341.114 230.448 345.574 227.534 349.574 224.063C351.754 221.996 349.134 226.604 365.754 241.049C364.505 240.939 363.315 240.45 362.334 239.643C361.754 239.313 361.134 239.085 360.594 239.643C360.054 240.201 360.434 240.863 360.754 241.4C363.934 246.69 367.914 248.674 366.334 250.244V250.244Z" fill="#471280"/>
<path d="M43.7344 154.755C43.1344 156.077 42.7144 157.296 43.8344 158.35C44.4744 158.991 45.5944 158.97 45.0144 157.606C44.8911 157.271 44.8415 156.912 44.8691 156.555C44.8968 156.197 45.0011 155.851 45.1744 155.54C48.9141 146.657 54.2019 138.56 60.7744 131.652C69.354 122.527 78.9861 114.525 89.4544 107.826C91.64 106.273 94.1596 105.294 96.7944 104.974C103.463 104.287 110.183 105.593 116.154 108.735C122.517 111.863 128.67 115.425 134.574 119.398C141.754 124.461 152.694 134.214 154.774 142.976C155.554 146.241 156.774 150.828 157.114 151.738C157.454 152.647 157.514 153.246 158.454 152.998C159.394 152.75 159.274 151.965 159.114 151.242C157.314 143.451 155.114 135.888 149.234 130.082C143.834 124.688 138.674 118.158 118.754 108.322C113.734 105.863 108.754 103.032 102.994 102.846C101.934 102.846 101.794 102.143 101.794 101.255C101.794 99.3125 101.794 97.3494 101.794 95.4069C101.794 89.8896 102.534 85.8187 98.7144 86.2113C97.3744 86.356 97.1144 87.3065 97.1144 88.5464C97.1144 92.8032 96.9744 97.0601 97.1144 101.317C97.1144 104.127 94.6944 102.226 90.5344 104.954C82.6691 109.919 75.2465 115.596 68.3544 121.919C52.4744 136.942 49.1344 142.873 43.7344 154.755ZM98.4944 99.6638C98.4944 98.8372 98.2944 88.3398 99.2744 88.2571C99.9344 88.2571 99.9344 88.877 99.9944 89.3316C100.284 92.7692 100.284 96.2262 99.9944 99.6638C99.9944 100.676 100.794 102.619 99.1744 102.598C97.5544 102.577 98.6144 100.676 98.4944 99.6638Z" fill="#471280"/>
<path d="M93.2344 368.423C87.4571 367.487 81.6219 366.983 75.7744 366.914C58.1744 366.088 55.9744 360.715 43.1744 361.872C34.8344 362.554 26.9944 365.489 19.0344 367.886C14.6544 369.229 11.1544 372.804 6.43441 373.506C5.19402 373.726 3.98916 374.122 2.85441 374.684C1.67441 375.201 0.174407 375.531 0.0144074 377.226C-0.145593 378.92 1.05441 379.83 2.25441 380.594C14.2544 388.343 26.4144 381.193 46.0544 385.409C54.9023 387.383 63.9228 388.415 72.9744 388.488C78.9564 388.443 84.8826 387.295 90.4744 385.099C91.6544 384.644 92.8544 384.045 92.9544 382.495C93.0544 380.946 91.9744 380.429 90.9544 379.623C86.5744 376.255 85.5344 376.048 85.7144 375.18C85.8944 374.312 86.5144 374.705 86.9544 374.602C88.9544 374.085 91.1544 374.457 93.2144 374.126C94.7344 373.899 96.8144 373.94 97.0544 371.874C97.2944 369.807 95.1544 368.733 93.2344 368.423ZM38.9544 375.325C38.4144 379.582 39.5544 383.591 36.3344 382.867C22.4744 381.565 13.3144 386.029 3.05441 379.788C2.13441 379.251 1.05441 378.61 1.05441 377.453C1.05441 376.296 2.41441 375.924 3.37441 375.552C7.97441 373.816 11.7344 373.672 15.3744 370.882C16.4472 370.064 17.6628 369.468 18.9544 369.126C25.3944 367.266 31.7744 365.282 38.2944 363.753C40.0944 363.34 39.9344 363.959 39.8344 365.406C39.6944 368.609 39.3544 372.122 38.9544 375.325ZM44.6744 382.64C44.6744 383.384 44.4544 383.611 43.7144 383.673C41.2744 383.859 40.3944 383.074 40.3944 380.574C40.3944 370.985 41.2544 369.539 41.2144 364.228C41.2144 362.554 43.0544 363.34 44.0344 362.968C45.0144 362.596 45.3344 363.236 45.3144 364.104C45.1944 371.192 44.8744 376.689 44.6744 382.64V382.64ZM95.0944 372.308C94.0551 372.718 92.9463 372.908 91.8344 372.866C90.1544 373.031 88.4944 373.238 86.8144 373.362C85.7744 373.362 84.8144 373.63 84.4544 374.746C84.0944 375.862 85.0344 376.482 85.7144 377.061C90.4144 380.966 91.7144 380.863 91.5944 382.268C91.4744 383.673 90.1744 383.797 89.2344 384.107C84.8325 385.71 80.2339 386.663 75.5744 386.938C66.0044 387.175 56.4386 386.308 47.0544 384.355C45.9944 384.148 45.9544 383.797 46.0144 382.433C46.3144 376.234 46.6144 370.159 46.5144 363.959C46.5144 362.699 47.0744 362.637 47.7544 362.761C49.3544 363.03 51.6544 363.381 53.2344 363.691C53.4344 363.691 65.0344 367.514 68.7344 367.658C76.3144 367.989 83.8744 368.774 91.4344 369.394C93.8744 369.559 97.3744 371.068 95.0944 372.308Z" fill="#471280"/>
<path d="M266.575 132.251C266.575 133.202 277.055 240.16 277.155 243.694C277.168 244.203 277.376 244.686 277.735 245.037C280.355 247.733 283.222 250.162 286.295 252.29C286.495 252.414 287.295 252.765 287.455 252.6C291.095 248.818 296.915 251.732 296.335 247.454C294.615 235.387 294.655 226.79 291.875 204.411C291.635 202.344 280.555 123.304 280.135 121.093C279.995 120.431 280.135 119.729 279.335 119.398C279.162 119.553 279.04 119.76 278.986 119.989C278.933 120.219 278.949 120.46 279.035 120.679C279.035 120.886 280.315 127.374 280.315 128.015C290.315 201.621 290.315 193.231 294.615 244.024C294.955 247.93 294.995 247.93 291.295 249.025C289.295 249.562 287.495 252.331 282.735 247.764C280.395 245.512 277.975 243.632 278.155 239.933C278.155 239.705 267.915 134.276 267.675 131.321C267.355 127.767 269.075 128.242 274.415 122.518C275.655 121.175 274.415 121.258 273.955 121.609C271.655 123.676 269.355 125.597 267.075 127.622C265.835 128.614 266.375 130.288 266.575 132.251Z" fill="#471280"/>
<path d="M288.634 107.95C289.134 107.268 289.774 106.462 289.314 105.429C289.154 105.429 288.974 105.429 288.894 105.429C286.082 108.702 283.026 111.742 279.754 114.521C273.648 119.536 265.932 121.98 258.154 121.361C252.154 120.969 248.294 119.646 244.154 112.62C249.614 112.352 250.854 111.339 252.154 106.834C252.894 104.251 251.614 100.49 256.154 99.6637C256.594 99.6637 257.514 100.036 257.334 99.0438C257.249 98.7227 257.049 98.4473 256.774 98.2744C256.498 98.1014 256.169 98.044 255.854 98.1139C254.741 98.3499 253.673 98.7759 252.694 99.3744C252.354 96.3574 252.214 94.3323 250.494 94.477C247.156 94.9706 243.855 95.7025 240.614 96.6674C236.974 97.5353 235.694 96.874 236.054 91.46C236.054 90.964 236.054 90.5921 235.294 90.6541C234.534 90.7161 234.614 91.212 234.594 91.7906C234.594 95.1382 235.614 96.75 235.254 98.4445C234.675 98.0651 234.191 97.5486 233.844 96.9377C233.496 96.3268 233.294 95.6391 233.254 94.9316C232.91 92.8434 232.763 90.7258 232.814 88.6083C233.054 80.1773 236.994 78.9168 235.414 77.6563C233.214 75.8378 228.854 92.2452 232.834 97.7833C234.014 99.3951 234.514 98.8371 235.034 101.028C236.754 108.219 239.974 109.293 241.814 111.938C243.214 113.819 246.094 120.576 253.614 122.126C257.047 122.799 260.545 123.048 264.034 122.87C274.734 122.436 282.354 116.422 288.634 107.95ZM242.314 108.384C239.174 100.614 236.534 99.1264 239.314 98.5478C250.134 96.3368 250.694 95.3655 250.694 97.246V101.771C251.074 106.111 250.094 111.05 245.914 110.988C245.12 111.029 244.334 110.795 243.682 110.324C243.03 109.852 242.549 109.17 242.314 108.384V108.384Z" fill="#471280"/>
<path d="M277.834 88.3811C278.314 88.8357 278.975 89.0837 278.635 90.0962C278.295 91.1088 277.635 90.9021 276.975 90.9021C275.639 90.8354 274.301 90.8907 272.975 91.0674C272.299 91.2374 271.59 91.1922 270.941 90.9377C270.291 90.6832 269.731 90.2313 269.334 89.6416C266.654 86.418 263.834 83.2977 261.054 80.1774C260.494 79.5368 259.915 78.8342 258.875 79.4541C261.655 82.8844 264.495 86.232 267.135 89.7863C269.135 92.3073 271.135 93.6298 274.095 92.9066C275.133 92.7377 276.185 92.6822 277.234 92.7412C277.714 92.7412 278.134 92.7412 278.274 93.4438C278.559 95.5734 278.1 97.7382 276.978 99.5488C275.856 101.359 274.146 102.697 272.155 103.321C269.469 103.892 266.675 103.443 264.284 102.058C261.892 100.673 260.064 98.4435 259.135 95.7789C258.755 94.4564 258.955 93.5265 260.595 93.4645C262.235 93.4025 264.354 93.2372 266.214 93.0719C266.734 93.0719 267.575 93.0719 267.575 92.4106C267.575 91.7494 266.635 91.6254 266.075 91.646C263.955 91.646 261.555 91.9973 261.315 92.0387C259.735 92.2373 258.18 92.6043 256.674 93.1339C256.294 93.3818 255.994 93.8365 256.674 93.9811C257.734 94.2497 257.535 94.9317 257.695 95.5103C258.235 97.8839 259.42 100.049 261.109 101.751C262.799 103.453 264.924 104.622 267.234 105.119C272.034 106.338 278.035 103.962 279.415 98.6719C280.075 96.0889 279.654 92.1626 280.734 91.584C281.314 91.2947 281.674 92.018 282.054 92.39C283.579 94.2764 285.295 95.9877 287.174 97.494C291.674 100.366 290.834 105.553 291.174 107.826C291.174 108.177 290.795 108.797 291.575 108.756C292.035 108.756 292.135 108.343 292.155 107.991C292.455 104.272 292.395 100.552 289.655 97.6593C282.743 90.0919 275.05 83.3288 266.714 77.491C259.828 72.8214 252.529 68.8361 244.914 65.5884C244.374 65.3611 243.854 64.8032 243.554 65.5884C243.254 66.3737 244.035 66.3117 244.475 66.5183C256.615 72.8002 266.574 77.987 277.834 88.3811Z" fill="#471280"/>
<path d="M122.854 255.162C121.714 254.356 122.494 256.071 113.574 266.631C109.274 271.735 107.054 274.897 101.834 270.64C99.8343 269.028 95.4143 261.837 93.8343 252.579C93.8343 252.063 93.9743 251.009 93.0543 251.153C92.1343 251.298 92.6743 252.104 92.6943 253.055C94.2943 265.598 102.694 280.435 111.474 271.652C113.014 270.123 113.854 268.16 115.294 266.61C117.902 263.697 120.264 260.558 122.354 257.229C122.814 256.588 123.734 255.762 122.854 255.162Z" fill="#471280"/>
<path d="M147.774 144.65C148.154 145.228 148.414 146.716 149.334 146.076C150.254 145.435 149.074 144.567 148.734 143.844C143.745 136.437 137.925 129.667 131.394 123.676C124.083 117.097 115.967 111.539 107.254 107.144C106.834 106.938 106.434 106.504 105.734 106.999C107.694 109.665 129.654 117.394 147.774 144.65Z" fill="#471280"/>
<path d="M262.574 219.516C261.971 218.889 261.3 218.334 260.574 217.863C260.152 218.086 259.75 218.349 259.374 218.649C250.394 226.914 251.614 226.15 249.074 228.381C245.074 231.915 245.434 230.035 247.574 237.329C247.954 238.631 248.534 238.59 249.314 237.722C253.469 232.658 257.974 227.913 262.794 223.525C264.434 222.12 264.154 221.108 262.574 219.516ZM261.314 223.091C256.921 227.087 252.805 231.396 248.994 235.986C246.534 230.22 246.614 232.969 259.134 220.467C260.254 219.33 260.874 219.682 261.814 220.694C262.754 221.707 262.154 222.43 261.314 223.174V223.091Z" fill="#471280"/>
<path d="M306.155 222.409C309.635 224.476 312.435 225.695 316.955 227.72C319.195 228.753 319.395 228.588 319.895 226.088C320.035 225.385 319.755 223.835 321.355 224.868C321.815 225.178 322.335 224.579 321.815 223.835C319.535 220.426 311.495 218.504 306.615 215.673C305.375 214.95 303.775 213.896 303.275 215.012C303.006 216.112 302.885 217.245 302.915 218.38C302.815 220.736 303.735 221.107 306.155 222.409ZM303.835 216.499C303.835 215.797 304.255 215.631 304.815 215.983C309.115 218.958 314.235 220.116 318.695 222.802C319.295 223.153 320.235 223.525 319.455 224.001C318.675 224.476 319.315 226.873 317.675 226.522C316.035 226.17 307.355 221.686 305.555 220.715C303.755 219.744 303.695 218.194 303.755 216.499H303.835Z" fill="#471280"/>
<path d="M262.895 118.716C268.175 120.163 268.895 118.964 269.155 113.22C269.155 109.479 268.755 108.818 265.795 109.541C262.896 110.548 260.075 111.778 257.355 113.22C256.435 113.612 256.855 114.232 257.155 114.769C257.808 115.789 258.653 116.664 259.639 117.342C260.624 118.02 261.731 118.487 262.895 118.716V118.716ZM265.655 111.318C266.775 111.008 267.395 111.008 267.415 112.62C267.415 117.952 266.735 118.53 261.955 116.546C260.676 116.056 259.506 115.304 258.515 114.335C260.801 113.107 263.191 112.097 265.655 111.318V111.318Z" fill="#471280"/>
<path d="M100.254 107.31C106.974 120.349 108.254 135.062 111.994 148.989C111.294 134.793 104.274 110.265 100.254 107.31Z" fill="#471280"/>
<path d="M241.894 67.4895C241.962 67.4015 242 67.2922 242 67.1795C242 67.0669 241.962 66.9575 241.894 66.8696C241.834 66.7795 241.745 66.7138 241.643 66.6837C241.541 66.6536 241.432 66.6608 241.334 66.7043C240.587 67.0371 239.908 67.514 239.334 68.1094C233.777 73.7217 229.328 80.3959 226.234 87.7611C226.009 88.2881 225.854 88.8442 225.774 89.4143C225.727 89.5318 225.707 89.6591 225.715 89.786C225.723 89.913 225.76 90.0363 225.822 90.1463C225.884 90.2563 225.97 90.35 226.072 90.4202C226.175 90.4903 226.292 90.535 226.414 90.5508C226.934 90.5508 227.114 90.2822 227.214 89.7862C228.067 86.9658 229.358 84.307 231.034 81.9132C234.002 76.6172 237.656 71.7646 241.894 67.4895Z" fill="#471280"/>
<path d="M211.734 238.342C214.232 231.86 217.383 225.668 221.134 219.868C221.394 219.434 222.154 218.958 221.474 218.421C220.794 217.884 220.394 218.607 219.994 219.062C216.135 224.356 213.018 230.185 210.734 236.378C209.714 239.251 210.634 240.904 211.734 238.342Z" fill="#471280"/>
<path d="M247.054 75.5073C246.894 75.0113 247.054 74.1848 246.194 74.3914C245.334 74.598 245.934 75.1973 246.034 75.6726C247.214 81.9325 249.484 87.919 252.734 93.3405C253.954 95.4069 256.854 96.6261 254.314 92.9892C250.994 88.2158 248.634 80.7147 247.054 75.5073Z" fill="#471280"/>
<path d="M278.615 164.756C277.015 163.496 275.735 163.764 275.075 165.665C274.565 166.93 274.248 168.268 274.135 169.633C274.335 171.369 274.375 173.766 277.075 174.241C279.775 174.716 282.935 168.166 278.615 164.756ZM277.174 172.856C275.674 172.588 275.395 171.162 275.475 169.592C275.575 167.67 275.474 165.645 277.014 165.459C278.554 165.273 278.915 167.091 279.335 168.414C279.815 170.232 278.694 173.084 277.174 172.856Z" fill="#471280"/>
<path d="M276.735 136.177C275.875 134.752 274.615 134.979 273.375 134.731C272.135 134.483 272.355 136.033 272.035 136.797C271.848 137.562 271.74 138.344 271.715 139.132C271.545 140.286 271.795 141.463 272.415 142.439C275.235 146.53 278.975 139.897 276.735 136.177ZM274.155 142.273C272.695 142.273 272.975 140.455 272.875 139.215C272.878 138.79 272.932 138.367 273.035 137.955C273.295 137.252 272.755 135.888 274.015 135.888C275.275 135.888 275.555 136.983 275.855 137.955C275.935 138.378 275.935 138.813 275.855 139.236C275.815 140.517 275.635 142.315 274.155 142.273Z" fill="#471280"/>
<path d="M280.414 200.092C283.534 200.898 283.854 205.961 281.214 206.643C279.694 206.994 279.354 205.692 279.014 204.142C278.674 202.592 279.014 201.89 280.134 198.418C279.026 199.425 278.276 200.785 278.004 202.284C277.733 203.782 277.954 205.331 278.634 206.684C278.83 207.003 279.084 207.28 279.384 207.497C279.683 207.714 280.021 207.867 280.379 207.948C280.736 208.029 281.105 208.035 281.465 207.967C281.825 207.899 282.168 207.758 282.474 207.552C282.993 207.078 283.41 206.498 283.7 205.849C283.99 205.2 284.147 204.496 284.16 203.781C284.173 203.067 284.043 202.357 283.777 201.697C283.51 201.037 283.115 200.441 282.614 199.947C281.754 199.203 281.114 199.017 280.414 200.092Z" fill="#471280"/>
<path d="M282.274 236.192C282.274 237.412 283.634 240.325 285.154 239.933C287.154 239.54 287.254 237.701 287.394 235.614C287.394 233.857 286.454 231.109 285.054 231.026C283.654 230.944 282.154 234.374 282.274 236.192ZM283.854 233.175C283.894 232.997 283.987 232.835 284.12 232.713C284.252 232.591 284.418 232.514 284.594 232.494C285.114 232.39 285.334 232.783 285.514 233.175C286.099 234.249 286.27 235.511 285.994 236.709C285.994 237.474 285.734 238.321 285.014 238.424C284.294 238.527 284.114 237.949 283.854 237.391C283.434 236.019 283.434 234.547 283.854 233.175V233.175Z" fill="#471280"/>
<path d="M263.814 94.5183C260.874 94.5183 263.534 100.573 265.314 100.49C266.614 100.49 266.494 99.3331 266.594 98.5685C266.574 96.8327 264.974 94.5183 263.814 94.5183Z" fill="#471280"/>
<path d="M255.454 103.115C255.454 102.743 255.694 102.164 255.074 102.102C254.454 102.04 254.334 102.453 254.274 102.908C254.174 103.838 254.134 104.768 254.054 105.677C253.934 106.917 253.774 108.281 255.214 108.756C255.9 108.985 256.641 108.962 257.311 108.691C257.982 108.42 258.541 107.917 258.894 107.268C258.672 107.138 258.42 107.069 258.164 107.069C257.908 107.069 257.657 107.138 257.434 107.268C254.554 108.425 255.374 105.677 255.454 103.115Z" fill="#471280"/>
<path d="M113.554 233.506C114.034 232.101 108.714 219.909 106.934 209.866C105.294 200.671 102.934 191.537 104.934 181.391C104.155 182.009 103.633 182.91 103.474 183.912C103.059 186.839 102.951 189.805 103.154 192.756C104.708 206.466 107.94 219.915 112.774 232.783C112.815 232.972 112.912 233.144 113.052 233.274C113.192 233.404 113.368 233.485 113.554 233.506Z" fill="#471280"/>
<path d="M127.094 181.99C127.954 178.023 127.814 176.411 126.694 175.44C125.754 181.639 125.594 187.838 122.694 193.459C126.294 190.628 126.154 186.392 127.094 181.99Z" fill="#471280"/>
<path d="M113.654 196.972C117.156 193.124 119.649 188.415 120.894 183.292C118.248 187.716 115.831 192.282 113.654 196.972V196.972Z" fill="#471280"/>
<path d="M147.054 193.872C147.254 195.133 145.834 195.401 145.054 195.939C144.828 196.16 144.615 196.395 144.414 196.641C145.103 196.913 145.861 196.927 146.559 196.682C147.256 196.436 147.849 195.947 148.234 195.298C148.523 194.972 148.693 194.553 148.715 194.111C148.737 193.67 148.609 193.235 148.354 192.88C147.914 192.343 147.356 191.922 146.726 191.652C146.096 191.383 145.414 191.272 144.734 191.33C144.558 191.318 144.384 191.375 144.247 191.49C144.109 191.605 144.019 191.77 143.994 191.95C143.854 193.087 146.794 192.178 147.054 193.872Z" fill="#471280"/>
<path d="M128.854 235.573C128.014 233.981 127.194 232.39 126.254 230.572C126.021 231.59 126.157 232.661 126.636 233.582C127.115 234.503 127.904 235.212 128.854 235.573Z" fill="#471280"/>
<path d="M164.394 265.536C164.57 265.269 164.678 264.961 164.71 264.64C164.741 264.319 164.695 263.994 164.574 263.697C163.156 258.359 161.447 253.109 159.454 247.971C158.994 247.021 158.574 245.905 157.114 246.525C150.29 248.859 143.645 251.718 137.234 255.08C135.854 255.885 135.654 256.691 136.374 258.221C143.854 274.421 141.514 274.07 146.374 274.215C158.334 273.615 158.694 274.297 164.394 265.536ZM161.094 267.147C158.874 271.032 155.634 272.086 151.654 272.045C140.574 271.942 147.054 275.971 137.854 258.179C137.294 257.063 137.434 256.65 138.514 256.113C144.287 253.22 150.241 250.728 156.334 248.653C157.734 248.157 158.054 248.88 158.454 249.893C159.874 253.592 160.694 257.497 162.074 261.176C162.419 262.174 162.51 263.248 162.338 264.294C162.167 265.339 161.738 266.322 161.094 267.147V267.147Z" fill="#471280"/>
<path d="M380.154 54.3884C380.102 54.3482 380.039 54.3264 379.974 54.3264C379.909 54.3264 379.846 54.3482 379.794 54.3884C376.234 56.4548 346.094 102.536 345.794 106.194C345.787 106.265 345.803 106.337 345.84 106.397C345.878 106.457 345.935 106.502 346.001 106.524C346.067 106.545 346.138 106.543 346.202 106.517C346.267 106.491 346.321 106.442 346.354 106.38C351.094 99.3538 355.674 92.1213 360.114 85.1161C380.034 53.7271 380.674 54.905 380.154 54.3884Z" fill="#471280"/>
<path d="M344.514 61.7035C351.114 48.9537 367.054 25.6031 367.814 24.6525C368.574 23.702 369.014 19.7964 366.634 23.3093C365.854 24.4872 364.534 26.4296 362.294 29.6946C354.774 40.6673 347.674 51.0408 342.394 62.9434C342.37 62.9961 342.361 63.0548 342.368 63.1127C342.375 63.1705 342.397 63.2253 342.433 63.2706C342.468 63.3159 342.515 63.35 342.569 63.3689C342.622 63.3877 342.679 63.3907 342.734 63.3773C343.141 63.2705 343.516 63.0619 343.827 62.77C344.137 62.4781 344.373 62.1119 344.514 61.7035V61.7035Z" fill="#471280"/>
<path d="M173.734 53.7272C168.614 61.125 163.894 68.9774 159.334 76.4578C149.814 92.3073 146.754 96.5848 145.934 97.866C145.494 98.5686 145.934 98.7339 146.234 98.4859C157.154 84.7649 165.214 68.8534 174.234 53.9545C174.454 53.7272 173.954 53.4379 173.734 53.7272Z" fill="#471280"/>
<path d="M75.6144 272.437C74.3944 272.83 73.8944 273.925 73.3744 274.731C53.1744 306.368 49.0944 312.629 48.5744 314.903C48.3344 315.956 48.5744 317.32 49.6344 315.626C58.0944 301.161 67.8344 287.481 75.9744 272.892C76.0078 272.837 76.0235 272.773 76.0196 272.708C76.0156 272.643 75.9921 272.581 75.9524 272.531C75.9126 272.481 75.8586 272.445 75.798 272.428C75.7374 272.411 75.6732 272.415 75.6144 272.437V272.437Z" fill="#471280"/>
<path d="M204.915 91.7906C204.864 91.7469 204.8 91.7229 204.735 91.7229C204.669 91.7229 204.605 91.7469 204.555 91.7906C202.035 93.6091 181.535 136.653 181.715 139.773C181.726 139.837 181.756 139.897 181.801 139.944C181.845 139.991 181.902 140.023 181.964 140.036C182.026 140.049 182.091 140.043 182.15 140.018C182.209 139.994 182.259 139.951 182.295 139.897C185.775 132.809 189.155 125.432 192.435 118.447C205.335 90.5921 205.315 92.1419 204.915 91.7906Z" fill="#471280"/>
<path d="M50.1544 248.901C50.7344 248.901 50.1544 247.516 63.1144 225.902C66.0894 220.239 69.3817 214.761 72.9744 209.494C73.123 209.33 73.2022 209.111 73.1947 208.886C73.1872 208.662 73.0936 208.449 72.9344 208.296C72.7753 208.142 72.5637 208.06 72.3462 208.068C72.1286 208.076 71.923 208.173 71.7745 208.337C71.3216 208.813 70.9132 209.332 70.5544 209.887C48.8544 246.814 49.0544 247.206 49.8944 248.736C49.9154 248.788 49.9518 248.832 49.9985 248.862C50.0452 248.892 50.0998 248.905 50.1544 248.901V248.901Z" fill="#471280"/>
<path d="M120.154 313.146L119.534 312.712C119.476 312.66 119.402 312.631 119.324 312.631C119.247 312.631 119.173 312.66 119.114 312.712C110.374 325.359 102.034 338.501 95.0145 349.701C94.9595 349.759 94.9287 349.837 94.9287 349.918C94.9287 349.999 94.9595 350.077 95.0145 350.135L95.7745 350.652C96.1345 350.9 95.7745 351.334 108.174 332.054C120.574 312.774 120.474 313.415 120.154 313.146Z" fill="#471280"/>
<path d="M206.835 185.482L206.115 184.986C206.055 184.938 205.981 184.911 205.905 184.911C205.828 184.911 205.754 184.938 205.695 184.986C201.495 191.434 196.815 197.695 193.155 204.555C193.105 204.612 193.078 204.686 193.078 204.762C193.078 204.838 193.105 204.912 193.155 204.969C193.735 205.382 193.775 205.465 193.915 205.465C194.055 205.465 193.655 206.105 200.635 195.381C207.215 185.276 206.935 185.813 206.895 185.606C206.882 185.561 206.862 185.519 206.835 185.482V185.482Z" fill="#471280"/>
<path d="M332.534 117.208C331.274 119.605 333.414 125.143 336.054 126.486C336.114 126.509 336.18 126.513 336.242 126.498C336.304 126.482 336.361 126.448 336.404 126.399C336.447 126.35 336.475 126.289 336.484 126.223C336.493 126.158 336.482 126.091 336.454 126.031C334.776 123.861 333.866 121.163 333.874 118.386C335.41 119.621 336.632 121.224 337.434 123.056C337.468 123.116 337.52 123.162 337.582 123.189C337.644 123.215 337.713 123.218 337.777 123.199C337.841 123.18 337.898 123.14 337.937 123.084C337.977 123.028 337.997 122.96 337.994 122.89C338.154 119.584 334.034 114.253 332.534 117.208Z" fill="#471280"/>
<path d="M275.394 35.8732C274.943 35.4076 274.415 35.0297 273.834 34.7573C272.614 34.096 270.014 32.3809 269.454 33.8687C268.894 35.3566 272.594 37.237 273.794 38.0016C274.427 38.5076 275.216 38.7575 276.014 38.7042C276.394 38.6015 276.724 38.3562 276.938 38.0161C277.153 37.6761 277.237 37.2657 277.174 36.8651C276.894 36.1625 275.694 36.2451 275.394 35.8732Z" fill="#471280"/>
<path d="M135.874 100.118C134.654 100.118 133.874 100.986 133.874 102.433C133.874 104.313 136.354 107.062 138.154 106.834C139.594 106.669 139.634 104.231 139.074 102.867C138.514 101.503 137.174 100.015 135.874 100.118ZM138.154 104.974C137.614 106.545 134.894 103.135 135.214 102.205C135.874 100.201 138.714 103.321 138.154 104.974Z" fill="#471280"/>
<path d="M184.154 207.345C182.614 207.697 182.154 208.833 182.994 210.238C183.932 211.672 185.362 212.684 186.994 213.069C187.055 213.091 187.12 213.091 187.181 213.072C187.242 213.052 187.295 213.013 187.333 212.96C187.371 212.907 187.391 212.843 187.392 212.777C187.392 212.711 187.372 212.647 187.334 212.594C185.914 210.528 184.214 209.928 184.494 209.288C184.494 209.06 184.614 209.04 184.994 209.288C185.14 209.307 185.288 209.307 185.434 209.288C186.178 209.37 186.895 209.617 187.538 210.013C188.18 210.409 188.731 210.944 189.154 211.581C189.183 211.619 189.22 211.649 189.261 211.671C189.303 211.692 189.348 211.704 189.394 211.705C189.441 211.707 189.488 211.697 189.53 211.675C189.572 211.653 189.608 211.621 189.634 211.581C189.817 211.392 189.936 211.148 189.976 210.885C190.015 210.621 189.973 210.351 189.854 210.114C189.143 209.269 188.268 208.586 187.287 208.109C186.306 207.632 185.239 207.372 184.154 207.345V207.345Z" fill="#471280"/>
<path d="M286.315 35.0053L285.795 35.1293C284.655 35.3979 283.075 35.7492 283.435 37.9603C283.442 38.0256 283.469 38.0868 283.512 38.1351C283.555 38.1834 283.612 38.2162 283.675 38.2289C284.535 38.3529 284.575 37.7123 284.755 37.5057C285.455 36.7204 286.595 36.2245 287.315 36.8651C287.695 37.1957 287.475 37.4437 286.995 37.981C286.765 38.232 286.563 38.5094 286.395 38.8075C286.395 39.0142 285.555 39.3241 285.915 40.1094C285.952 40.1761 286.009 40.2285 286.077 40.2583C286.146 40.2882 286.222 40.294 286.295 40.2747C287.995 39.6548 289.855 37.7123 289.295 36.2865C289.183 35.9982 289.016 35.7359 288.805 35.5149C288.594 35.2939 288.342 35.1186 288.065 34.9993C287.787 34.88 287.49 34.819 287.189 34.8201C286.889 34.8211 286.591 34.8841 286.315 35.0053V35.0053Z" fill="#471280"/>
<path d="M343.634 124.481C343.61 124.54 343.604 124.605 343.618 124.666C343.633 124.728 343.667 124.783 343.714 124.823C343.762 124.863 343.821 124.886 343.883 124.887C343.944 124.889 344.005 124.87 344.054 124.833C344.954 124.358 346.594 124.048 346.654 125.019C346.714 125.99 344.374 126.651 343.154 127.374C343.099 127.406 343.055 127.454 343.028 127.513C343.001 127.571 342.992 127.637 343.003 127.701C343.014 127.765 343.044 127.824 343.089 127.869C343.134 127.914 343.192 127.944 343.254 127.953C344.092 128.057 344.942 127.941 345.725 127.616C346.508 127.291 347.199 126.767 347.734 126.093C350.034 123.696 344.454 121.919 343.634 124.481Z" fill="#471280"/>
<path d="M197.715 209.701C196.655 211.127 195.214 211.767 194.054 213.834C194.024 213.887 194.01 213.948 194.014 214.01C194.018 214.072 194.04 214.13 194.076 214.179C194.113 214.228 194.163 214.265 194.219 214.284C194.276 214.303 194.337 214.305 194.395 214.288C196.073 213.573 197.566 212.462 198.755 211.044C199.755 210.052 198.355 208.874 197.715 209.701Z" fill="#471280"/>
<path d="M148.914 108.88C148.214 109.872 146.634 110.12 145.914 111.752C145.894 111.8 145.886 111.852 145.891 111.904C145.895 111.955 145.912 112.005 145.94 112.048C145.968 112.091 146.006 112.127 146.05 112.151C146.095 112.175 146.144 112.187 146.194 112.186V112.186C147.571 111.832 148.838 111.121 149.874 110.12C149.971 110.055 150.052 109.969 150.113 109.869C150.174 109.768 150.214 109.655 150.229 109.538C150.244 109.42 150.235 109.3 150.201 109.187C150.168 109.073 150.111 108.969 150.034 108.88C149.854 108.756 149.134 108.549 148.914 108.88Z" fill="#471280"/>
<path d="M154.774 279.215C152.774 281.571 152.234 284.485 150.954 287.088C150.909 287.157 150.892 287.241 150.907 287.323C150.922 287.404 150.968 287.476 151.034 287.522C151.101 287.569 151.182 287.586 151.261 287.571C151.34 287.555 151.409 287.508 151.454 287.44C153.36 285.163 154.681 282.427 155.294 279.484C155.309 279.417 155.301 279.346 155.272 279.284C155.243 279.222 155.195 279.172 155.135 279.141C155.076 279.11 155.008 279.101 154.943 279.114C154.877 279.128 154.818 279.163 154.774 279.215V279.215Z" fill="#471280"/>
<path d="M241.894 101.524C241.73 101.536 241.571 101.59 241.43 101.678C241.29 101.767 241.172 101.889 241.086 102.035C241 102.18 240.948 102.344 240.936 102.514C240.924 102.684 240.95 102.854 241.014 103.011C241.472 104.61 242.492 105.974 243.874 106.834C243.986 106.926 244.118 106.987 244.259 107.009C244.4 107.032 244.544 107.017 244.677 106.965C244.81 106.913 244.928 106.826 245.019 106.712C245.109 106.599 245.17 106.463 245.194 106.318C245.674 105.078 243.294 101.482 241.894 101.524Z" fill="#471280"/>
</svg>
