<svg width="135" height="45" viewBox="0 0 135 45" fill="none" xmlns="http://www.w3.org/2000/svg">
<g clip-path="url(#clip0_75_7745)">
<rect width="135" height="45" fill="#67A87B"/>
<g clip-path="url(#clip1_75_7745)">
<path d="M9.375 5.625L10.0821 4.91789C9.69158 4.52737 9.05842 4.52737 8.66789 4.91789L9.375 5.625ZM8.375 16.875C8.375 17.4273 8.82272 17.875 9.375 17.875C9.92728 17.875 10.375 17.4273 10.375 16.875H8.375ZM4.91789 8.66789C4.52737 9.05842 4.52737 9.69158 4.91789 10.0821C5.30842 10.4726 5.94158 10.4726 6.33211 10.0821L4.91789 8.66789ZM12.4179 10.0821C12.8084 10.4726 13.4416 10.4726 13.8321 10.0821C14.2226 9.69158 14.2226 9.05842 13.8321 8.66789L12.4179 10.0821ZM36.5 28.125C36.5 28.6773 36.9477 29.125 37.5 29.125C38.0523 29.125 38.5 28.6773 38.5 28.125H36.5ZM20.625 8.375C20.0727 8.375 19.625 8.82272 19.625 9.375C19.625 9.92728 20.0727 10.375 20.625 10.375V8.375ZM6.5 28.125C6.5 28.6773 6.94772 29.125 7.5 29.125C8.05228 29.125 8.5 28.6773 8.5 28.125H6.5ZM8.5 24.375C8.5 23.8227 8.05228 23.375 7.5 23.375C6.94772 23.375 6.5 23.8227 6.5 24.375H8.5ZM37.0913 11.4225L36.2003 11.8765L36.2003 11.8765L37.0913 11.4225ZM35.4525 9.78373L34.9985 10.6747L34.9985 10.6747L35.4525 9.78373ZM5.625 28.125V27.125C5.07272 27.125 4.625 27.5727 4.625 28.125H5.625ZM39.375 28.125H40.375C40.375 27.5727 39.9273 27.125 39.375 27.125V28.125ZM7.67254 35.2163L8.12653 34.3253L7.67254 35.2163ZM6.03373 33.5775L6.92473 33.1235L6.03373 33.5775ZM38.9663 33.5775L38.0753 33.1235L38.9663 33.5775ZM37.3275 35.2163L36.8735 34.3253L37.3275 35.2163ZM8.375 5.625V16.875H10.375V5.625H8.375ZM6.33211 10.0821L10.0821 6.33211L8.66789 4.91789L4.91789 8.66789L6.33211 10.0821ZM8.66789 6.33211L12.4179 10.0821L13.8321 8.66789L10.0821 4.91789L8.66789 6.33211ZM36.5 15.375V28.125H38.5V15.375H36.5ZM20.625 10.375H31.5V8.375H20.625V10.375ZM8.5 28.125V24.375H6.5V28.125H8.5ZM38.5 15.375C38.5 14.3414 38.5008 13.5061 38.4456 12.8306C38.3894 12.1434 38.2704 11.5341 37.9823 10.9685L36.2003 11.8765C36.3208 12.1131 36.4062 12.43 36.4522 12.9934C36.4992 13.5686 36.5 14.3084 36.5 15.375H38.5ZM31.5 10.375C32.5666 10.375 33.3064 10.3758 33.8816 10.4228C34.445 10.4688 34.7619 10.5542 34.9985 10.6747L35.9065 8.89272C35.3409 8.60456 34.7316 8.48556 34.0444 8.42941C33.3689 8.37422 32.5336 8.375 31.5 8.375V10.375ZM37.9823 10.9685C37.5269 10.0748 36.8002 9.34812 35.9065 8.89272L34.9985 10.6747C35.5159 10.9384 35.9366 11.3591 36.2003 11.8765L37.9823 10.9685ZM5.625 29.125H39.375V27.125H5.625V29.125ZM38.375 28.125V29.625H40.375V28.125H38.375ZM33.375 34.625H11.625V36.625H33.375V34.625ZM6.625 29.625V28.125H4.625V29.625H6.625ZM11.625 34.625C10.5584 34.625 9.81859 34.6242 9.24344 34.5772C8.67996 34.5312 8.36314 34.4458 8.12653 34.3253L7.21855 36.1073C7.7841 36.3954 8.39341 36.5144 9.08058 36.5706C9.75606 36.6258 10.5914 36.625 11.625 36.625V34.625ZM4.625 29.625C4.625 30.6586 4.62422 31.4939 4.67941 32.1694C4.73556 32.8566 4.85456 33.4659 5.14272 34.0315L6.92473 33.1235C6.80417 32.8869 6.71881 32.57 6.67277 32.0066C6.62578 31.4314 6.625 30.6916 6.625 29.625H4.625ZM8.12653 34.3253C7.60908 34.0616 7.18838 33.6409 6.92473 33.1235L5.14272 34.0315C5.59812 34.9252 6.32478 35.6519 7.21855 36.1073L8.12653 34.3253ZM38.375 29.625C38.375 30.6916 38.3742 31.4314 38.3272 32.0066C38.2812 32.57 38.1958 32.8869 38.0753 33.1235L39.8573 34.0315C40.1454 33.4659 40.2644 32.8566 40.3206 32.1694C40.3758 31.4939 40.375 30.6586 40.375 29.625H38.375ZM33.375 36.625C34.4086 36.625 35.2439 36.6258 35.9194 36.5706C36.6066 36.5144 37.2159 36.3954 37.7815 36.1073L36.8735 34.3253C36.6369 34.4458 36.32 34.5312 35.7566 34.5772C35.1814 34.6242 34.4416 34.625 33.375 34.625V36.625ZM38.0753 33.1235C37.8116 33.6409 37.3909 34.0616 36.8735 34.3253L37.7815 36.1073C38.6752 35.6519 39.4019 34.9252 39.8573 34.0315L38.0753 33.1235Z" fill="#F6FAF7"/>
</g>
<path d="M55.375 5.625C55.375 5.07272 54.9273 4.625 54.375 4.625C53.8227 4.625 53.375 5.07272 53.375 5.625H55.375ZM54.375 16.875L53.6679 17.5821C54.0584 17.9726 54.6916 17.9726 55.0821 17.5821L54.375 16.875ZM51.3321 12.4179C50.9416 12.0274 50.3084 12.0274 49.9179 12.4179C49.5274 12.8084 49.5274 13.4416 49.9179 13.8321L51.3321 12.4179ZM58.8321 13.8321C59.2226 13.4416 59.2226 12.8084 58.8321 12.4179C58.4416 12.0274 57.8084 12.0274 57.4179 12.4179L58.8321 13.8321ZM81.5 28.125C81.5 28.6773 81.9477 29.125 82.5 29.125C83.0523 29.125 83.5 28.6773 83.5 28.125H81.5ZM65.625 8.375C65.0727 8.375 64.625 8.82272 64.625 9.375C64.625 9.92728 65.0727 10.375 65.625 10.375V8.375ZM51.5 28.125C51.5 28.6773 51.9477 29.125 52.5 29.125C53.0523 29.125 53.5 28.6773 53.5 28.125H51.5ZM53.5 24.375C53.5 23.8227 53.0523 23.375 52.5 23.375C51.9477 23.375 51.5 23.8227 51.5 24.375H53.5ZM82.0913 11.4225L81.2003 11.8765L81.2003 11.8765L82.0913 11.4225ZM80.4525 9.78373L79.9985 10.6747L79.9985 10.6747L80.4525 9.78373ZM50.625 28.125V27.125C50.0727 27.125 49.625 27.5727 49.625 28.125H50.625ZM84.375 28.125H85.375C85.375 27.5727 84.9273 27.125 84.375 27.125V28.125ZM52.6725 35.2163L53.1265 34.3253L52.6725 35.2163ZM51.0337 33.5775L51.9247 33.1235L51.0337 33.5775ZM83.9663 33.5775L83.0753 33.1235L83.9663 33.5775ZM82.3275 35.2163L81.8735 34.3253L82.3275 35.2163ZM53.375 5.625V16.875H55.375V5.625H53.375ZM49.9179 13.8321L53.6679 17.5821L55.0821 16.1679L51.3321 12.4179L49.9179 13.8321ZM55.0821 17.5821L58.8321 13.8321L57.4179 12.4179L53.6679 16.1679L55.0821 17.5821ZM81.5 15.375V28.125H83.5V15.375H81.5ZM65.625 10.375H76.5V8.375H65.625V10.375ZM53.5 28.125V24.375H51.5V28.125H53.5ZM83.5 15.375C83.5 14.3414 83.5008 13.5061 83.4456 12.8306C83.3894 12.1434 83.2704 11.5341 82.9823 10.9685L81.2003 11.8765C81.3208 12.1131 81.4062 12.43 81.4522 12.9934C81.4992 13.5686 81.5 14.3084 81.5 15.375H83.5ZM76.5 10.375C77.5666 10.375 78.3064 10.3758 78.8816 10.4228C79.445 10.4688 79.7619 10.5542 79.9985 10.6747L80.9065 8.89272C80.3409 8.60456 79.7316 8.48556 79.0444 8.42941C78.3689 8.37422 77.5336 8.375 76.5 8.375V10.375ZM82.9823 10.9685C82.5269 10.0748 81.8002 9.34812 80.9065 8.89272L79.9985 10.6747C80.5159 10.9384 80.9366 11.3591 81.2003 11.8765L82.9823 10.9685ZM50.625 29.125H84.375V27.125H50.625V29.125ZM83.375 28.125V29.625H85.375V28.125H83.375ZM78.375 34.625H56.625V36.625H78.375V34.625ZM51.625 29.625V28.125H49.625V29.625H51.625ZM56.625 34.625C55.5584 34.625 54.8186 34.6242 54.2434 34.5772C53.68 34.5312 53.3631 34.4458 53.1265 34.3253L52.2185 36.1073C52.7841 36.3954 53.3934 36.5144 54.0806 36.5706C54.7561 36.6258 55.5914 36.625 56.625 36.625V34.625ZM49.625 29.625C49.625 30.6586 49.6242 31.4939 49.6794 32.1694C49.7356 32.8566 49.8546 33.4659 50.1427 34.0315L51.9247 33.1235C51.8042 32.8869 51.7188 32.57 51.6728 32.0066C51.6258 31.4314 51.625 30.6916 51.625 29.625H49.625ZM53.1265 34.3253C52.6091 34.0616 52.1884 33.6409 51.9247 33.1235L50.1427 34.0315C50.5981 34.9252 51.3248 35.6519 52.2185 36.1073L53.1265 34.3253ZM83.375 29.625C83.375 30.6916 83.3742 31.4314 83.3272 32.0066C83.2812 32.57 83.1958 32.8869 83.0753 33.1235L84.8573 34.0315C85.1454 33.4659 85.2644 32.8566 85.3206 32.1694C85.3758 31.4939 85.375 30.6586 85.375 29.625H83.375ZM78.375 36.625C79.4086 36.625 80.2439 36.6258 80.9194 36.5706C81.6066 36.5144 82.2159 36.3954 82.7815 36.1073L81.8735 34.3253C81.6369 34.4458 81.32 34.5312 80.7566 34.5772C80.1814 34.6242 79.4416 34.625 78.375 34.625V36.625ZM83.0753 33.1235C82.8116 33.6409 82.3909 34.0616 81.8735 34.3253L82.7815 36.1073C83.6752 35.6519 84.4019 34.9252 84.8573 34.0315L83.0753 33.1235Z" fill="#F6FAF7"/>
<path fill-rule="evenodd" clip-rule="evenodd" d="M112.5 11.2499C109.126 7.31799 103.488 6.10285 99.261 9.7033C95.0338 13.3037 94.4386 19.3235 97.7583 23.5818C100.518 27.1222 108.871 34.5893 111.609 37.0062C111.915 37.2766 112.069 37.4117 112.247 37.4649C112.403 37.5112 112.574 37.5112 112.73 37.4649C112.908 37.4117 113.061 37.2766 113.368 37.0062C116.105 34.5893 124.458 27.1222 127.219 23.5818C130.538 19.3235 130.016 13.2659 125.716 9.7033C121.416 6.14072 115.874 7.31799 112.5 11.2499Z" stroke="#F6FAF7" stroke-width="2" stroke-linecap="round" stroke-linejoin="round"/>
</g>
<defs>
<clipPath id="clip0_75_7745">
<rect width="135" height="45" fill="white"/>
</clipPath>
<clipPath id="clip1_75_7745">
<rect width="45" height="45" fill="white"/>
</clipPath>
</defs>
</svg>
