<svg width="265" height="53" viewBox="0 0 265 53" fill="none" xmlns="http://www.w3.org/2000/svg">
<g clip-path="url(#clip0_84_6094)">
<rect width="265" height="53" fill="#F6FAF8"/>
<circle cx="26.5" cy="26.5" r="26.5" fill="#67A87B"/>
<path d="M31 22C31 24.2091 29.2091 26 27 26C24.7909 26 23 24.2091 23 22C23 19.7909 24.7909 18 27 18C29.2091 18 31 19.7909 31 22Z" stroke="white" stroke-width="2" stroke-linecap="round" stroke-linejoin="round"/>
<path d="M27 29C23.134 29 20 32.134 20 36H34C34 32.134 30.866 29 27 29Z" stroke="white" stroke-width="2" stroke-linecap="round" stroke-linejoin="round"/>
<circle cx="132.5" cy="26.5" r="26.5" fill="#67A87B"/>
<path d="M131.012 35H125.005C125.005 31.134 128.143 28 132.013 28C132.709 28 133.381 28.1013 134.016 28.2899M136.018 21C136.018 23.2091 134.225 25 132.013 25C129.802 25 128.009 23.2091 128.009 21C128.009 18.7909 129.802 17 132.013 17C134.225 17 136.018 18.7909 136.018 21ZM135.017 35L137.044 34.595C137.221 34.5597 137.31 34.542 137.392 34.5097C137.465 34.4811 137.535 34.4439 137.599 34.399C137.672 34.3484 137.735 34.2848 137.863 34.1574L142.025 30C142.578 29.4477 142.578 28.5523 142.025 28C141.472 27.4477 140.576 27.4477 140.023 28L135.861 32.1574C135.733 32.2848 135.669 32.3484 135.619 32.421C135.574 32.4853 135.536 32.5548 135.508 32.6279C135.475 32.7102 135.458 32.7985 135.422 32.975L135.017 35Z" stroke="white" stroke-width="2" stroke-linecap="round" stroke-linejoin="round"/>
<circle cx="185.5" cy="26.5" r="26.5" fill="#67A87B"/>
<path d="M178.092 31.782L178.546 30.891L178.092 31.782ZM177.218 30.908L178.109 30.454L177.218 30.908ZM194.782 30.908L193.891 30.454L194.782 30.908ZM193.908 31.782L193.454 30.891L193.908 31.782ZM193.908 18.218L193.454 19.109L193.908 18.218ZM194.782 19.092L193.891 19.546L194.782 19.092ZM178.092 18.218L178.546 19.109L178.092 18.218ZM177.218 19.092L178.109 19.546L177.218 19.092ZM192 26C192.552 26 193 25.5523 193 25C193 24.4477 192.552 24 192 24V26ZM189 24C188.448 24 188 24.4477 188 25C188 25.5523 188.448 26 189 26V24ZM195 22C195.552 22 196 21.5523 196 21C196 20.4477 195.552 20 195 20V22ZM177 20C176.448 20 176 20.4477 176 21C176 21.5523 176.448 22 177 22V20ZM192 30C192.552 30 193 29.5523 193 29C193 28.4477 192.552 28 192 28V30ZM189 28C188.448 28 188 28.4477 188 29C188 29.5523 188.448 30 189 30V28ZM186.024 32.2157C186.143 32.755 186.676 33.0956 187.216 32.9765C187.755 32.8573 188.096 32.3235 187.976 31.7843L186.024 32.2157ZM178.024 31.7843C177.904 32.3235 178.245 32.8573 178.784 32.9765C179.324 33.0956 179.857 32.755 179.976 32.2157L178.024 31.7843ZM183 24C182.448 24 182 24.4477 182 25C182 25.5523 182.448 26 183 26V24ZM183.01 26C183.562 26 184.01 25.5523 184.01 25C184.01 24.4477 183.562 24 183.01 24V26ZM180.2 19H191.8V17H180.2V19ZM194 21.2V28.8H196V21.2H194ZM191.8 31H180.2V33H191.8V31ZM178 28.8V21.2H176V28.8H178ZM180.2 31C179.623 31 179.251 30.9992 178.968 30.9761C178.696 30.9539 178.595 30.9162 178.546 30.891L177.638 32.673C178.016 32.8658 178.41 32.9371 178.805 32.9694C179.189 33.0008 179.656 33 180.2 33V31ZM176 28.8C176 29.3436 175.999 29.8114 176.031 30.195C176.063 30.5904 176.134 30.9836 176.327 31.362L178.109 30.454C178.084 30.4045 178.046 30.3038 178.024 30.0322C178.001 29.7488 178 29.3766 178 28.8H176ZM178.546 30.891C178.358 30.7951 178.205 30.6422 178.109 30.454L176.327 31.362C176.615 31.9265 177.074 32.3854 177.638 32.673L178.546 30.891ZM194 28.8C194 29.3766 193.999 29.7488 193.976 30.0322C193.954 30.3038 193.916 30.4045 193.891 30.454L195.673 31.362C195.866 30.9836 195.937 30.5904 195.969 30.195C196.001 29.8114 196 29.3436 196 28.8H194ZM191.8 33C192.344 33 192.811 33.0008 193.195 32.9694C193.59 32.9371 193.984 32.8658 194.362 32.673L193.454 30.891C193.405 30.9162 193.304 30.9539 193.032 30.9761C192.749 30.9992 192.377 31 191.8 31V33ZM193.891 30.454C193.795 30.6422 193.642 30.7951 193.454 30.891L194.362 32.673C194.926 32.3854 195.385 31.9265 195.673 31.362L193.891 30.454ZM191.8 19C192.377 19 192.749 19.0008 193.032 19.0239C193.304 19.0461 193.405 19.0838 193.454 19.109L194.362 17.327C193.984 17.1342 193.59 17.0629 193.195 17.0306C192.811 16.9992 192.344 17 191.8 17V19ZM196 21.2C196 20.6564 196.001 20.1886 195.969 19.805C195.937 19.4096 195.866 19.0164 195.673 18.638L193.891 19.546C193.916 19.5955 193.954 19.6962 193.976 19.9678C193.999 20.2512 194 20.6234 194 21.2H196ZM193.454 19.109C193.642 19.2049 193.795 19.3578 193.891 19.546L195.673 18.638C195.385 18.0735 194.926 17.6146 194.362 17.327L193.454 19.109ZM180.2 17C179.656 17 179.189 16.9992 178.805 17.0306C178.41 17.0629 178.016 17.1342 177.638 17.327L178.546 19.109C178.595 19.0838 178.696 19.0461 178.968 19.0239C179.251 19.0008 179.623 19 180.2 19V17ZM178 21.2C178 20.6234 178.001 20.2512 178.024 19.9678C178.046 19.6962 178.084 19.5955 178.109 19.546L176.327 18.638C176.134 19.0164 176.063 19.4096 176.031 19.805C175.999 20.1886 176 20.6564 176 21.2H178ZM177.638 17.327C177.074 17.6146 176.615 18.0735 176.327 18.638L178.109 19.546C178.205 19.3578 178.358 19.2049 178.546 19.109L177.638 17.327ZM192 24H189V26H192V24ZM195 20H177V22H195V20ZM192 28H189V30H192V28ZM183 25V27C184.105 27 185 26.1046 185 25H183ZM183 25H181C181 26.1046 181.895 27 183 27V25ZM183 25V23C181.895 23 181 23.8954 181 25H183ZM183 25H185C185 23.8954 184.105 23 183 23V25ZM183 30C184.553 30 185.756 31.0068 186.024 32.2157L187.976 31.7843C187.487 29.5698 185.397 28 183 28V30ZM179.976 32.2157C180.244 31.0068 181.447 30 183 30V28C180.603 28 178.513 29.5698 178.024 31.7843L179.976 32.2157ZM183 26H183.01V24H183V26Z" fill="white"/>
<circle cx="238.5" cy="26.5" r="26.5" fill="#67A87B"/>
<path d="M242 23H242.01M242 29C245.314 29 248 26.3137 248 23C248 19.6863 245.314 17 242 17C238.686 17 236 19.6863 236 23C236 23.2737 236.018 23.5431 236.054 23.807C236.112 24.2412 236.141 24.4583 236.122 24.5956C236.101 24.7387 236.075 24.8157 236.005 24.9419C235.937 25.063 235.818 25.1823 235.579 25.4209L230.469 30.5314C230.296 30.7043 230.209 30.7908 230.147 30.8917C230.093 30.9812 230.052 31.0787 230.028 31.1808C230 31.2959 230 31.4182 230 31.6627V33.4C230 33.9601 230 34.2401 230.109 34.454C230.205 34.6422 230.358 34.7951 230.546 34.891C230.76 35 231.04 35 231.6 35H233.337C233.582 35 233.704 35 233.819 34.9724C233.921 34.9479 234.019 34.9075 234.108 34.8526C234.209 34.7908 234.296 34.7043 234.469 34.5314L239.579 29.4209C239.818 29.1823 239.937 29.063 240.058 28.9953C240.184 28.9248 240.261 28.8987 240.404 28.8783C240.542 28.8586 240.759 28.8878 241.193 28.9462C241.457 28.9817 241.726 29 242 29Z" stroke="white" stroke-width="2" stroke-linecap="round" stroke-linejoin="round"/>
<circle cx="79.5" cy="26.5" r="26.5" fill="#67A87B"/>
<path d="M69 19.0556C69 29.5183 77.4817 38 87.9444 38C88.4165 38 88.8845 37.9827 89.3479 37.9488C89.8797 37.9099 90.1456 37.8904 90.3876 37.751C90.5881 37.6356 90.7782 37.4311 90.8787 37.2227C91 36.9711 91 36.6777 91 36.0909V32.6475C91 32.154 91 31.9073 90.9188 31.6957C90.847 31.5089 90.7305 31.3425 90.5794 31.2113C90.4084 31.0627 90.1765 30.9783 89.7127 30.8097L85.7933 29.3844C85.2537 29.1882 84.9839 29.0901 84.7279 29.1068C84.5022 29.1214 84.285 29.1985 84.1005 29.3293C83.8912 29.4776 83.7435 29.7238 83.4481 30.2161L82.4444 31.8889C79.2057 30.4221 76.5801 27.7931 75.1111 24.5556L76.7839 23.5519C77.2762 23.2565 77.5224 23.1088 77.6707 22.8995C77.8015 22.715 77.8786 22.4978 77.8932 22.2721C77.9099 22.0161 77.8118 21.7463 77.6156 21.2067L76.1903 17.2873C76.0217 16.8235 75.9373 16.5916 75.7887 16.4206C75.6575 16.2695 75.4911 16.153 75.3043 16.0812C75.0927 16 74.846 16 74.3525 16H70.9091C70.3223 16 70.0289 16 69.7773 16.1213C69.5689 16.2218 69.3644 16.4119 69.249 16.6124C69.1096 16.8544 69.0901 17.1203 69.0512 17.6521C69.0173 18.1155 69 18.5835 69 19.0556Z" stroke="white" stroke-width="2" stroke-linecap="round" stroke-linejoin="round"/>
</g>
<defs>
<clipPath id="clip0_84_6094">
<rect width="265" height="53" fill="white"/>
</clipPath>
</defs>
</svg>
