<svg width="160" height="160" viewBox="0 0 160 160" fill="none" xmlns="http://www.w3.org/2000/svg">
<path d="M10.9698 117.354C12.7313 133.82 25.9736 147.062 42.4303 148.896C67.7079 151.713 92.2917 151.713 117.569 148.896C134.026 147.062 147.268 133.82 149.03 117.354C150.33 105.2 151.428 92.7216 151.428 79.9997C151.428 67.278 150.33 54.7996 149.03 42.6452C147.268 26.1806 134.026 12.9382 117.569 11.1039C92.2917 8.28633 67.7079 8.28633 42.4303 11.1039C25.9736 12.9382 12.7313 26.1806 10.9698 42.6452C9.66938 54.7996 8.57129 67.278 8.57129 79.9997C8.57129 92.7216 9.66939 105.2 10.9698 117.354Z" fill="white" stroke="#67A87B" stroke-width="7.14286"/>
<path d="M80 51.4287V108.572" stroke="#67A87B" stroke-width="7.14286" stroke-linecap="round"/>
<path d="M108.572 80H51.4287" stroke="#67A87B" stroke-width="7.14286" stroke-linecap="round"/>
</svg>
