<svg width="35" height="35" viewBox="0 0 35 35" fill="none" xmlns="http://www.w3.org/2000/svg">
<mask id="path-1-inside-1_308_3004" fill="white">
<path d="M0 5C0 2.23858 2.23858 0 5 0H30C32.7614 0 35 2.23858 35 5V30C35 32.7614 32.7614 35 30 35H5C2.23858 35 0 32.7614 0 30V5Z"/>
</mask>
<path d="M0 5C0 2.23858 2.23858 0 5 0H30C32.7614 0 35 2.23858 35 5V30C35 32.7614 32.7614 35 30 35H5C2.23858 35 0 32.7614 0 30V5Z" fill="#F6F5EF"/>
<path d="M-1 5C-1 1.68629 1.68629 -1 5 -1H30C33.3137 -1 36 1.68629 36 5H34C34 2.79086 32.2091 1 30 1H5C2.79086 1 1 2.79086 1 5H-1ZM36 30C36 33.3137 33.3137 36 30 36H5C1.68629 36 -1 33.3137 -1 30H1C1 32.2091 2.79086 34 5 34H30C32.2091 34 34 32.2091 34 30H36ZM5 36C1.68629 36 -1 33.3137 -1 30V5C-1 1.68629 1.68629 -1 5 -1V1C2.79086 1 1 2.79086 1 5V30C1 32.2091 2.79086 34 5 34V36ZM30 -1C33.3137 -1 36 1.68629 36 5V30C36 33.3137 33.3137 36 30 36V34C32.2091 34 34 32.2091 34 30V5C34 2.79086 32.2091 1 30 1V-1Z" fill="black" mask="url(#path-1-inside-1_308_3004)"/>
<g clip-path="url(#clip0_308_3004)">
<path d="M17.2858 27.2857C22.0197 27.2857 25.8572 23.4481 25.8572 18.7143C25.8572 13.9804 22.0197 10.1428 17.2858 10.1428C12.5519 10.1428 8.71436 13.9804 8.71436 18.7143C8.71436 23.4481 12.5519 27.2857 17.2858 27.2857Z" stroke="black" stroke-width="1.07143" stroke-linecap="round" stroke-linejoin="round"/>
<path d="M27.2859 8.71423L23.343 12.6571" stroke="black" stroke-width="1.07143" stroke-linecap="round" stroke-linejoin="round"/>
<path d="M13 18.7142C13 17.5775 13.4515 16.4875 14.2553 15.6837C15.059 14.88 16.1491 14.4285 17.2857 14.4285" stroke="black" stroke-width="1.07143" stroke-linecap="round" stroke-linejoin="round"/>
</g>
<defs>
<clipPath id="clip0_308_3004">
<rect width="20" height="20" fill="white" transform="translate(8 8)"/>
</clipPath>
</defs>
</svg>
