<svg width="60" height="47" viewBox="0 0 60 47" fill="none" xmlns="http://www.w3.org/2000/svg">
<g clip-path="url(#clip0_468_5265)">
<path d="M24.15 7.35C24.15 7.85 24.0833 8.33333 23.95 8.8C23.8167 9.26666 23.5833 9.68333 23.25 10.05C23.1167 10.25 22.8833 10.5167 22.55 10.85C22.2167 11.15 21.7667 11.5833 21.2 12.15C19.8 13.3167 18.4667 14.55 17.2 15.85C15.9667 17.15 14.7667 18.5167 13.6 19.95C13.2 20.4167 12.8 20.9 12.4 21.4C12 21.9 11.6833 22.4167 11.45 22.95C11.2167 23.4833 11.1 24.05 11.1 24.65C11.1333 25.25 11.3833 25.8667 11.85 26.5C12.6833 27.6667 13.5667 28.7833 14.5 29.85C15.4333 30.9167 16.4333 31.9667 17.5 33C18.1333 33.6667 18.7667 34.3167 19.4 34.95C20.0667 35.5833 20.7 36.2167 21.3 36.85C22.1 37.65 22.5833 38.5 22.75 39.4C22.9167 40.2667 22.8333 41.0333 22.5 41.7C22.1667 42.3667 21.6167 42.85 20.85 43.15C20.1167 43.45 19.2333 43.4 18.2 43C17.6667 42.7667 17.15 42.45 16.65 42.05C16.15 41.6833 15.6667 41.2667 15.2 40.8C14.7333 40.3 14.2833 39.8 13.85 39.3C13.4167 38.8 13.0167 38.3333 12.65 37.9C6.38333 31 3.25 26.4333 3.25 24.2C3.25 22.5 4.46667 20.0333 6.9 16.8C7.83333 15.6333 8.86667 14.4167 10 13.15C11.1333 11.85 12.4 10.5667 13.8 9.3C14.6667 8.43333 15.55 7.58333 16.45 6.75C17.3833 5.88333 18.4 5.15 19.5 4.55C19.9667 4.31667 20.4667 4.21666 21 4.25C21.5667 4.25 22.0833 4.38333 22.55 4.65C23.0167 4.88333 23.4 5.23333 23.7 5.7C24 6.16667 24.15 6.71667 24.15 7.35Z" fill="white"/>
<path d="M35.85 39.65C35.85 39.15 35.9167 38.6667 36.05 38.2C36.1833 37.7333 36.4167 37.3167 36.75 36.95C36.8833 36.75 37.1167 36.4833 37.45 36.15C37.7833 35.85 38.2333 35.4167 38.8 34.85C40.2 33.6833 41.5333 32.45 42.8 31.15C44.0333 29.85 45.2333 28.4833 46.4 27.05C46.8 26.5833 47.2 26.1 47.6 25.6C48 25.1 48.3167 24.5833 48.55 24.05C48.7833 23.5167 48.9 22.95 48.9 22.35C48.8667 21.75 48.6167 21.1333 48.15 20.5C47.3167 19.3333 46.4333 18.2167 45.5 17.15C44.5667 16.0833 43.5667 15.0333 42.5 14C41.8667 13.3333 41.2333 12.6833 40.6 12.05C39.9333 11.4167 39.3 10.7833 38.7 10.15C37.9 9.35 37.4167 8.5 37.25 7.6C37.0833 6.73333 37.1667 5.96666 37.5 5.3C37.8333 4.63333 38.3833 4.15 39.15 3.85C39.8833 3.55 40.7667 3.6 41.8 4C42.3333 4.23333 42.85 4.55 43.35 4.95C43.85 5.31667 44.3333 5.73333 44.8 6.2C45.2667 6.7 45.7167 7.2 46.15 7.7C46.5833 8.2 46.9833 8.66667 47.35 9.1C53.6167 16 56.75 20.5667 56.75 22.8C56.75 24.5 55.5333 26.9667 53.1 30.2C52.1667 31.3667 51.1333 32.5833 50 33.85C48.8667 35.15 47.6 36.4333 46.2 37.7C45.3333 38.5667 44.45 39.4167 43.55 40.25C42.6167 41.1167 41.6 41.85 40.5 42.45C40.0333 42.6833 39.5333 42.7833 39 42.75C38.4333 42.75 37.9167 42.6167 37.45 42.35C36.9833 42.1167 36.6 41.7667 36.3 41.3C36 40.8333 35.85 40.2833 35.85 39.65Z" fill="white"/>
</g>
<defs>
<clipPath id="clip0_468_5265">
<rect width="60" height="47" fill="white"/>
</clipPath>
</defs>
</svg>
