<svg width="368" height="380" viewBox="0 0 368 380" fill="none" xmlns="http://www.w3.org/2000/svg">
<path d="M125.539 290.2C128.873 289.02 132.289 288.084 135.759 287.4L136.179 288.94C136.226 289.122 136.337 289.28 136.491 289.387C136.645 289.493 136.833 289.541 137.019 289.52L150.759 287.92C154.539 279.3 161.479 266.24 161.579 266.04C161.479 262.78 161.579 260.04 161.579 256.92C153.719 259.84 139.179 265.38 131.579 268.92C131.407 269.031 131.275 269.193 131.199 269.383C131.124 269.573 131.11 269.782 131.159 269.98C131.159 269.98 131.299 270.48 131.479 271.2C127.759 271.2 116.619 270.66 113.939 273.2C113.523 273.781 113.318 274.487 113.359 275.2C113.199 277.96 114.579 299.4 116.779 305.7C117.919 309 120.319 308.64 121.959 305.48C123.857 300.722 125.076 295.719 125.579 290.62C125.579 290.36 125.519 290.38 125.539 290.2V290.2ZM123.239 272.3C125.679 272.1 126.439 272.14 131.679 271.98C132.619 275.54 134.559 282.86 135.559 286.6C132.031 287.147 128.548 287.956 125.139 289.02C124.077 283.504 123.442 277.914 123.239 272.3Z" fill="black"/>
<path d="M309.62 97.2602C310.12 96.5602 309.48 95.6602 308.94 94.9602C310.47 93.3868 312.166 91.9852 314 90.7802C317.095 89.2381 319.923 87.2127 322.38 84.7802C323.4 83.7202 325.32 81.5402 324.6 80.2602C323.88 78.9802 322.6 78.9002 320.86 79.6402C321.614 78.8487 322.229 77.9359 322.68 76.9402C323.24 75.3802 321.92 74.1202 319.06 75.2802C320.1 73.6202 320.34 71.8802 318.58 71.0402C317.16 70.3602 315.08 71.9802 313.88 73.0402C311.524 75.099 309.312 77.3176 307.26 79.6802C306 77.0402 304 74.0002 301.5 74.9602C299 75.9202 300.94 80.2202 302.22 82.5602L297.68 85.7002C296.994 85.3298 296.219 85.1567 295.44 85.2002C290.28 86.0802 266.58 104.12 264.18 104.12C262.34 104.12 236.06 91.5202 213.34 87.8802C213.296 87.7439 213.215 87.6228 213.105 87.5308C212.995 87.4388 212.862 87.3797 212.72 87.3602C208.757 86.684 204.74 86.3826 200.72 86.4602C200.598 86.4684 200.48 86.503 200.373 86.5618C200.266 86.6205 200.173 86.7018 200.1 86.8002H198.42C198.02 85.1802 196.54 81.4402 196.02 80.0002C197.38 78.8202 199.26 78.2202 200.24 76.3202C202.04 72.8002 201.96 66.6802 201.46 62.7602C203.72 61.0402 203.78 58.2802 203.26 55.4602C203.06 54.3202 202.44 51.7402 201.48 51.1002C200.94 50.7402 199.8 51.1002 198.82 51.4602C197.84 49.1802 197.84 50.2202 198.24 49.3002C198.426 48.8762 198.534 48.4223 198.56 47.9602C199.62 48.2802 201.82 46.1602 201.06 43.3602C200.662 42.3578 200.173 41.3938 199.6 40.4802C199.88 39.8002 200.48 38.9802 198.6 36.4802C197.79 35.6068 196.739 34.9941 195.58 34.7202H194.66C193.997 33.7567 193.022 33.0506 191.9 32.7202C190.206 32.2883 188.41 32.5397 186.9 33.4202C186.5 33.7202 186.18 34.1202 185.78 34.4002C184.876 33.851 183.838 33.5607 182.78 33.5607C181.722 33.5607 180.684 33.851 179.78 34.4002C179.251 34.6079 178.769 34.9205 178.363 35.3192C177.958 35.7179 177.637 36.1944 177.42 36.7202C176.44 36.3821 175.401 36.2519 174.367 36.338C173.334 36.4241 172.331 36.7245 171.42 37.2202C167.965 39.0937 165.381 42.2452 164.22 46.0002C164.188 46.5664 164.188 47.134 164.22 47.7002H164C161 47.2602 157.18 54.3802 160.24 59.9202C160.6 60.5802 161.06 61.2002 161.5 61.9202C162.78 63.9202 162.28 64.5202 165.14 66.9602C165.98 67.6802 166.12 67.6202 166.64 68.0602C167.16 68.5002 166.96 68.2802 167.26 69.4002C167.424 70.0599 167.717 70.6807 168.122 71.2266C168.527 71.7724 169.036 72.2325 169.62 72.5802C169.833 74.5364 170.667 76.373 172 77.8202C172.422 78.2927 172.915 78.6974 173.46 79.0202C173.607 79.1031 173.772 79.151 173.94 79.1602C174.54 82.8802 175.28 87.7202 175.6 89.7802L173.82 90.7402C171.491 91.6772 169.226 92.7663 167.04 94.0002C166.869 94.1189 166.748 94.2971 166.7 94.5002C164.58 95.6202 162.58 96.6802 161.44 97.3602C145.56 106.78 100.46 168.88 100 171.72C99.9494 171.883 99.9494 172.057 100 172.22C100.647 173.252 101.434 174.187 102.34 175C102.061 175.509 101.726 175.986 101.34 176.42C97.3402 179.04 91.3402 182.94 88.1202 186.42C87.8943 186.622 87.7249 186.878 87.6286 187.165C87.5323 187.452 87.5124 187.759 87.571 188.056C87.6295 188.353 87.7645 188.629 87.9625 188.858C88.1605 189.087 88.4148 189.26 88.7002 189.36C89.3002 189.56 89.4002 189.5 93.3002 187.36C92.2283 188.3 91.3517 189.442 90.7202 190.72C90.4602 191.82 91.4602 192.46 92.7202 192.26C93.4291 192.074 94.1041 191.777 94.7202 191.38C94.3594 191.937 94.1675 192.587 94.1675 193.25C94.1675 193.914 94.3594 194.563 94.7202 195.12C96.7202 197.64 101.96 189.7 104.72 187.74C105.84 189.16 107.36 192.48 109.78 191.6C111.88 190.82 109.58 186.2 109.78 184.86C110.594 184.079 111.463 183.357 112.38 182.7C113.923 183.844 115.687 184.655 117.56 185.08C120.86 185.08 155.3 150.32 157.92 147.54C156.98 156.38 152.24 194.32 153.24 201.7C153.7 205.04 161.72 205.52 165.1 205.7C164.08 229.7 163.4 266.06 163.22 266.44C157.92 277.86 156.48 280.98 154.7 284.44C151.46 290.64 137.82 313.52 136.28 318.72C136.06 319.54 136.04 319.86 136.9 321.38C134.323 324.09 131.931 326.97 129.74 330C128.64 332 133.36 350.64 136.7 357.24C137.46 358.72 138.7 361 140.36 360.94C145.36 360.76 145.34 342.8 145.2 337.78C145.199 337.625 145.143 337.476 145.04 337.36C145.946 336.007 146.935 334.712 148 333.48C148.636 333.918 149.305 334.306 150 334.64C150.68 334.94 151.44 334.42 152 333.96C158.66 328.72 194.58 283.96 202.28 262.84C205.78 253.2 210.44 239.88 211.76 230.44C212.567 224.472 212.641 218.427 211.98 212.44C211.98 212.355 212.014 212.274 212.074 212.214C212.134 212.154 212.215 212.12 212.3 212.12C212.385 212.12 212.466 212.154 212.526 212.214C212.586 212.274 212.62 212.355 212.62 212.44C213.622 218.461 213.817 224.588 213.2 230.66C211.72 243.76 201.38 271.06 195.86 281.1C200.62 280.22 210.3 278.3 214.98 276.9C230.58 272.16 244.98 258.02 246.24 242.14C246.648 234.659 246.648 227.161 246.24 219.68C246.105 209.352 244.763 199.076 242.24 189.06C246.48 186.76 250.36 184.06 251.62 181.58C254.32 176.28 247.18 145.78 245.62 137.22C254.16 138.16 268.7 139.86 275.48 134.56C283.24 128.32 300 110.76 309.62 97.2602V97.2602ZM144.12 336.68C140.52 334.5 135.48 329.32 134.72 325.26C135.54 324.22 136.4 323.26 137.2 322.18C139.911 326.316 143.29 329.973 147.2 333C146.102 334.165 145.073 335.394 144.12 336.68V336.68ZM303.12 83.1202C303.224 83.0542 303.298 82.951 303.328 82.832C303.357 82.713 303.34 82.5871 303.28 82.4802C302.58 81.1802 300.48 76.6002 301.94 76.0802C302.78 75.7602 303.52 76.2802 304.14 76.9802C305.087 78.1812 305.824 79.5336 306.32 80.9802C306.357 81.0978 306.426 81.2031 306.518 81.2849C306.61 81.3666 306.723 81.4218 306.844 81.4444C306.965 81.467 307.09 81.4562 307.206 81.4132C307.322 81.3702 307.423 81.2965 307.5 81.2002C309.5 78.9802 314.18 73.9202 316.82 72.5602C318.82 71.5202 319.3 73.4402 314.4 77.9202C313.275 78.7783 312.193 79.6928 311.16 80.6602C311.103 80.7387 311.073 80.8332 311.073 80.9302C311.073 81.0272 311.103 81.1217 311.16 81.2002C311.16 81.7202 311.58 82.3002 312.3 81.7602C314.039 80.2341 315.876 78.8244 317.8 77.5402C318.782 76.8425 319.924 76.4024 321.12 76.2602C320.52 78.1002 314.94 83.1002 314.46 83.6602C314.308 83.7966 314.215 83.9874 314.202 84.1914C314.189 84.3954 314.257 84.5964 314.391 84.751C314.524 84.9057 314.714 85.0016 314.917 85.0183C315.121 85.035 315.323 84.971 315.48 84.8402C317.7 83.4002 321.58 80.0402 322.92 80.5402C324.26 81.0402 320.28 84.7602 319.28 85.6402C313.54 90.6202 315.02 87.4202 308.38 94.1802C305.49 91.014 302.171 88.2674 298.52 86.0202L303.12 83.1202ZM216.22 178.78C215.88 176.02 215.46 173.04 214.94 169.94L215.8 168.8C219.8 163.66 221 155.48 220.62 149.06C222.76 158.44 224.46 167.66 225.76 176.82L216.22 178.78ZM186.48 110.3C181.22 106.3 172.76 99.4002 167.84 94.6802L175.84 90.6802C183.186 97.5418 189.475 105.454 194.5 114.16C202.184 128.277 207.885 143.386 211.44 159.06L182.92 118.72L186.64 111C186.689 110.881 186.7 110.75 186.672 110.625C186.643 110.499 186.576 110.386 186.48 110.3ZM200 87.6202C200.12 87.8402 201.5 90.7802 203.6 95.9202C203.6 96.1402 203.22 101.14 203.04 102.9C200.488 101.888 198.08 100.543 195.88 98.9002C196.32 97.1602 198.3 89.2602 198.44 87.4802L200 87.6202ZM192.9 109.1C193.04 108.74 193.18 108.26 193.34 107.7L194.68 108.4C195.44 108.9 195.14 107.38 195.82 111.78C195.82 112.52 196.02 113.34 196.06 114.24C195.14 112.58 194 110.8 192.92 109.1H192.9ZM191.78 107.42C188.002 102.061 183.701 97.0899 178.94 92.5802L194 99.1202C193.42 100.5 192.58 104.72 191.8 107.42H191.78ZM207.16 119.14C205.16 113.68 203.62 107.58 202.86 105.98C202.905 105.481 202.905 104.979 202.86 104.48C203.15 104.588 203.452 104.655 203.76 104.68C203.953 104.682 204.14 104.615 204.287 104.49C204.434 104.365 204.531 104.191 204.56 104C204.72 103.34 204.98 100 205.02 99.2602C210.838 113.949 215.695 129.001 219.56 144.32C208.26 120.28 210 127.24 207.18 119.14H207.16ZM223.7 157.32C219.14 135.46 211.12 108.2 202 88.0002C205.349 88.002 208.693 88.2695 212 88.8002C213.7 104 212.28 103.48 213.42 104.08C214.56 104.68 221.42 107.44 222.44 107.86C222.34 109.4 223.78 153.44 223.72 157.32H223.7ZM200.68 52.3802C201.723 54.6555 202.091 57.1821 201.74 59.6602C201.577 60.2909 201.243 60.864 200.773 61.3159C200.304 61.7677 199.719 62.0804 199.082 62.2193C198.446 62.3582 197.784 62.3178 197.169 62.1025C196.554 61.8873 196.011 61.5057 195.6 61.0002C194.646 58.9899 193.928 56.8758 193.46 54.7002C194 54.0002 199.76 52.6002 200.68 52.3802V52.3802ZM173.16 72.3802C172.43 72.0475 171.682 71.7538 170.92 71.5002C170.409 71.2901 169.953 70.9657 169.586 70.5519C169.22 70.1381 168.953 69.6459 168.806 69.113C168.659 68.5801 168.637 68.0207 168.74 67.4777C168.843 66.9346 169.069 66.4224 169.4 65.9802C170.66 64.9202 171.8 64.9802 172.84 66.5602C173.5 67.7802 173.48 67.8802 173.78 68.0002C173.866 68.0381 173.959 68.0572 174.053 68.0562C174.147 68.0552 174.24 68.0341 174.325 67.9943C174.411 67.9545 174.486 67.897 174.548 67.8256C174.609 67.7542 174.654 67.6705 174.68 67.5802C174.977 66.3283 175.024 65.0304 174.82 63.7602C174.58 62.3802 174.54 56.2602 174.58 56.0602C175.164 56.3681 175.821 56.5132 176.48 56.4802C180.1 56.3402 180.82 54.4802 182.26 52.9602C183.92 53.1202 184.26 53.9202 186.14 52.9602C187.021 52.4594 187.828 51.8403 188.54 51.1202C189.115 51.3555 189.67 51.6364 190.2 51.9602C191.399 52.5366 192.751 52.7136 194.057 52.4652C195.364 52.2169 196.557 51.5562 197.46 50.5802C197.68 51.0002 197.88 51.4202 198.06 51.8602C196.222 52.4305 194.492 53.3023 192.94 54.4402C192.6 54.8602 193.1 57.1402 193.22 57.6802C191.545 57.8909 189.924 58.4133 188.44 59.2202C188.14 58.1802 187.48 56.2402 186.44 55.7002C186.127 55.6044 185.793 55.6044 185.48 55.7002C183.68 55.9802 177.22 57.9202 176.44 58.9802C175.76 59.7202 177.7 65.4402 178.3 66.3802C180.6 69.9402 187.34 68.9002 188.6 64.7402C188.912 63.3441 188.912 61.8963 188.6 60.5002C189.18 60.5002 190.92 59.8802 191.12 59.8202C192.5 62.9202 192.9 63.1002 194.5 66.4402C194.28 66.6202 193.92 66.9202 193.62 67.1202C192.2 68.0602 191.9 67.9002 191.98 68.3002C192.003 68.3796 192.055 68.4477 192.125 68.4919C192.195 68.5361 192.278 68.5533 192.36 68.5402C193.2 68.4202 194.02 68.1917 194.8 67.8602C195.267 67.6859 195.652 67.3436 195.88 66.9002C196.44 65.6402 193.34 60.9002 192.12 59.4802C192.36 59.4802 192.92 59.0802 193.34 58.8602C193.9 61.1002 194.28 62.8602 196.44 63.7402C197.064 63.9759 197.73 64.0832 198.396 64.0557C199.063 64.0282 199.717 63.8665 200.32 63.5802C200.64 67.1002 200.58 72.8202 198.9 75.9402C198.04 77.5602 195.92 78.1802 194.56 79.5202C194.16 79.9002 194.42 80.4402 194.56 81.0202C196.78 87.2002 196.82 87.1802 196.7 87.9802C196.112 91.3006 195.289 94.5754 194.24 97.7802C193.74 97.5602 188.12 94.5802 177.12 90.3002C176.78 88.0402 174.96 75.9802 174.38 73.7602C174.42 72.9802 174.32 72.8002 173.16 72.2802V72.3802ZM187.16 64.2202C186.52 66.4002 183.5 67.3402 181.34 66.7402C179.18 66.1402 179.04 65.0402 178.02 62.4402C177.542 61.4469 177.212 60.389 177.04 59.3002C177.7 58.5802 184.92 57.1002 185.82 56.9602C187.083 59.1196 187.556 61.6503 187.16 64.1202V64.2202ZM108.9 184.3C108.14 185.04 109.16 187.46 109.32 189.56C109.32 189.74 109.32 190.52 109.2 190.58C108.1 190.94 107.08 189.28 106.46 188.28C105.84 187.28 105.22 185.92 104.24 186.28C102.24 187.22 97.6002 193.38 95.7802 194.02C94.8602 192.26 100.12 187.24 100.3 186.96C100.377 186.832 100.418 186.684 100.417 186.534C100.416 186.384 100.375 186.238 100.296 186.11C100.218 185.982 100.106 185.878 99.9726 185.809C99.8393 185.741 99.6898 185.71 99.5402 185.72C99.1802 185.72 98.9402 186.04 98.3802 186.54C96.6768 188.203 94.7272 189.592 92.6002 190.66C94.5287 188.448 96.5927 186.357 98.7802 184.4C98.8882 184.289 98.9642 184.151 99.0002 184C99.0002 184 98.5802 182.94 97.7602 183.36C96.6002 184 90.9602 187.26 89.1802 188.1C88.9402 187.94 89.0802 187.7 89.1802 187.46C92.0002 184 98.2002 179.8 102 177.14C102.446 176.681 102.817 176.155 103.1 175.58C105.732 178.029 108.539 180.282 111.5 182.32C110.588 182.918 109.719 183.58 108.9 184.3V184.3ZM155.44 202.48C155 202.2 154.68 201.94 154.62 201.58C153.52 193.42 159.64 147.18 159.54 145.36C159.54 145.253 159.519 145.148 159.477 145.049C159.436 144.951 159.375 144.862 159.299 144.787C159.222 144.713 159.132 144.654 159.032 144.615C158.933 144.576 158.827 144.557 158.72 144.56C157.7 144.56 159.5 144.56 134.02 168.96C132.34 170.54 119.5 182.82 117.36 183.64C114.42 183.42 103.36 174.6 101.56 171.82C105.04 164.78 147.24 106.86 161.84 98.0002C162.96 97.3202 164.88 96.2602 166.98 95.1402C167.706 95.825 168.489 96.4473 169.32 97.0002C173.96 101.4 180.42 106.88 185.32 111L181.5 118.58C181.442 118.681 181.412 118.794 181.412 118.91C181.412 119.026 181.442 119.14 181.5 119.24C212.52 163.74 212.06 163.24 212.26 163.24C214.249 173.523 215.485 183.937 215.96 194.4C215.96 197.22 215.96 196.98 216.08 196.78C216.2 196.58 216.08 196.92 216.08 196.92C211.24 202.2 163.34 207.12 155.44 202.48V202.48ZM266 136.22C256.94 137.48 246.7 135.6 244.72 135.52C243.62 130.188 241.427 125.142 238.28 120.7C238.232 120.635 238.161 120.591 238.082 120.576C238.003 120.562 237.921 120.577 237.853 120.62C237.784 120.663 237.735 120.73 237.714 120.808C237.693 120.886 237.703 120.969 237.74 121.04C238.9 123.4 242.78 133.58 243.74 136.06C243.44 137.02 252.78 175.64 250.14 180.84C247.78 185.54 234.04 191.46 229.08 193.16C228.099 182.026 226.497 170.955 224.28 160C224.96 154.24 224.08 120 223.82 107.34C223.813 107.193 223.763 107.051 223.678 106.931C223.594 106.81 223.476 106.717 223.34 106.66L214.36 102.88C214.319 98.1273 214.019 93.3802 213.46 88.6602C235.88 92.5402 262 105.36 264.18 105.38C267.34 105.38 290.82 87.3802 295.68 86.6602C297.84 86.3202 307.12 94.4202 308.2 96.6602C298.72 109.9 282.06 127.3 274.34 133.32C271.853 134.983 268.982 135.981 266 136.22V136.22Z" fill="black"/>
<path d="M185.099 60.2202C185.074 60.0889 185.024 59.9637 184.95 59.852C184.877 59.7402 184.783 59.644 184.672 59.5687C184.562 59.4935 184.437 59.4408 184.306 59.4136C184.176 59.3864 184.041 59.3852 183.909 59.4102C183.778 59.4351 183.653 59.4857 183.541 59.559C183.429 59.6323 183.333 59.7269 183.258 59.8374C183.183 59.9479 183.13 60.0722 183.103 60.203C183.075 60.3339 183.074 60.4689 183.099 60.6002C183.499 62.6002 183.579 63.0602 184.459 63.0602C184.626 63.0608 184.789 63.0199 184.936 62.9411C185.083 62.8624 185.207 62.7484 185.298 62.6094C185.39 62.4704 185.445 62.3108 185.459 62.145C185.473 61.9793 185.446 61.8126 185.379 61.6602C185.319 61.3402 185.139 60.4002 185.099 60.2202V60.2202ZM191.219 73.4602C192.519 73.8402 193.759 73.2202 193.719 72.9002C193.679 72.5802 193.719 72.7402 191.959 72.0802C190.779 71.6402 189.479 70.0802 189.019 70.3202C188.559 70.5602 189.259 71.8402 189.419 72.0802C189.847 72.7294 190.481 73.2155 191.219 73.4602V73.4602ZM227.799 54.4602C225.179 65.4402 223.259 74.7602 222.939 76.6202C222.727 77.4295 222.686 78.2742 222.819 79.1002C223.879 81.3602 237.579 85.8202 239.319 84.9402C241.059 84.0602 245.579 73.8802 250.839 63.3802C254.062 63.4832 257.286 63.2485 260.459 62.6802C263.801 62.0672 267.053 61.0392 270.139 59.6202C276.899 56.5002 284.299 43.1402 285.299 36.4202C286.049 29.1243 284.504 21.7762 280.879 15.4002C264.099 -13.6998 214.879 1.96019 218.879 34.2802C220.022 41.6756 223.099 48.6376 227.799 54.4602V54.4602ZM239.999 78.2802C239.999 78.6002 239.639 78.5602 237.999 78.2802C234.645 77.8586 231.397 76.8212 228.419 75.2202C227.019 74.4602 226.639 74.3002 226.779 73.9602C226.919 73.6202 227.219 73.7402 229.379 74.3402C229.579 74.3402 235.779 76.3402 237.559 76.9602C239.859 78.0002 239.999 78.0002 239.999 78.2802V78.2802ZM239.639 45.7402C241.775 45.851 243.903 45.4101 245.819 44.4602C247.6 45.3229 249.527 45.8452 251.499 46.0002C248.139 52.2602 241.319 65.0202 239.119 71.8202L230.639 69.4802C232.639 64.5602 237.059 53.0402 239.599 45.7402H239.639ZM238.939 44.0802C237.446 43.8546 236.069 43.1456 235.017 42.0618C233.966 40.978 233.299 39.5793 233.119 38.0802C232.559 34.0802 235.119 29.6002 238.979 30.6602C241.399 31.3202 241.699 33.2402 241.279 35.6602C240.919 37.4202 239.619 41.8402 238.899 44.0002L238.939 44.0802ZM244.379 39.2802C244.593 37.9715 245.084 36.7236 245.819 35.6202C246.169 35.0187 246.681 34.5274 247.296 34.2022C247.911 33.8769 248.605 33.7307 249.299 33.7802C250.779 34.2202 251.419 37.0202 250.199 38.7802C249.027 40.3362 247.567 41.6532 245.899 42.6602C245.325 42.3234 244.868 41.819 244.589 41.2148C244.311 40.6105 244.223 39.9355 244.339 39.2802H244.379ZM225.999 13.8602C234.959 3.0802 251.819 -1.19981 263.999 3.2402C270.616 5.51148 276.181 10.1103 279.659 16.1802C283.108 22.2473 284.582 29.2371 283.879 36.1802C282.959 42.4002 275.879 55.3202 269.659 58.1802C263.972 60.7742 257.767 62.033 251.519 61.8602C250.839 61.8602 250.119 61.8602 249.859 62.3402C248.679 64.7402 246.519 69.3802 244.399 73.7402C242.935 73.0333 241.417 72.4448 239.859 71.9802C242.179 65.3402 249.499 52.3002 252.979 45.9802C255.995 46.2385 259.025 45.715 261.779 44.4602C262.523 44.0685 263.14 43.4728 263.558 42.7429C263.975 42.0129 264.175 41.1791 264.135 40.3392C264.096 39.4994 263.817 38.6883 263.332 38.0012C262.848 37.3141 262.177 36.7796 261.399 36.4602C258.299 34.9402 255.519 38.5802 253.899 41.6402C253.459 42.4402 252.959 43.3802 252.399 44.4402C250.782 44.3339 249.186 44.0041 247.659 43.4602C249.18 42.3913 250.529 41.0964 251.659 39.6202C252.293 38.6639 252.613 37.5347 252.578 36.3884C252.542 35.242 252.151 34.135 251.459 33.2202C250.916 32.5892 250.161 32.1781 249.336 32.0639C248.512 31.9498 247.674 32.1405 246.979 32.6002C245.579 33.4608 244.456 34.7075 243.747 36.1904C243.037 37.6733 242.771 39.3295 242.979 40.9602C243.197 41.8806 243.693 42.7117 244.399 43.3402C243.087 43.8835 241.679 44.1557 240.259 44.1402C241.059 41.7802 242.359 37.5202 242.699 35.7802C242.913 34.7882 242.96 33.7677 242.839 32.7602C242.685 31.8953 242.283 31.0935 241.684 30.4513C241.084 29.8091 240.312 29.3538 239.459 29.1402C234.599 27.7602 231.019 33.1402 231.719 38.1602C231.917 39.9592 232.689 41.6466 233.921 42.9723C235.153 44.298 236.78 45.1914 238.559 45.5202C235.999 52.7202 231.999 64.3402 229.999 69.3002L225.599 68.1602C228.419 54.0002 228.759 54.3402 228.359 54.1602C223.815 48.3662 220.907 41.4598 219.939 34.1602C219.468 30.5407 219.764 26.8625 220.808 23.365C221.852 19.8674 223.621 16.6289 225.999 13.8602V13.8602ZM253.759 44.5602C255.159 42.0202 257.959 36.4602 260.679 37.8202C261.223 38.0394 261.697 38.403 262.05 38.8718C262.402 39.3406 262.62 39.8967 262.679 40.4802C262.639 44.0002 257.159 44.6202 253.679 44.5602H253.759ZM330.319 53.3802C332.73 51.9628 335.576 51.4789 338.319 52.0202C341.333 52.0741 344.211 53.2789 346.364 55.3875C348.517 57.4961 349.782 60.3487 349.899 63.3602C348.087 62.3088 345.969 61.9133 343.899 62.2402C338.879 62.6802 332.319 65.4002 333.199 70.2402C333.919 74.2402 339.199 73.7002 343.199 72.6202C347.199 71.5402 350.379 69.5802 351.199 65.7202C356.059 69.2602 357.199 75.4602 357.399 81.5202C357.399 81.6051 357.433 81.6865 357.493 81.7465C357.553 81.8065 357.634 81.8402 357.719 81.8402C357.804 81.8402 357.886 81.8065 357.946 81.7465C358.006 81.6865 358.039 81.6051 358.039 81.5202C358.179 74.7402 356.959 68.1002 351.419 64.2402C351.476 62.5038 351.18 60.7738 350.549 59.1551C349.918 57.5364 348.965 56.0626 347.748 54.8229C346.531 53.5832 345.075 52.6034 343.468 51.9429C341.861 51.2824 340.136 50.9549 338.399 50.9802C335.623 50.5748 332.792 51.1551 330.399 52.6202C329.659 52.9802 329.999 53.5202 330.319 53.3802V53.3802ZM348.559 67.7202C346.299 70.6802 339.899 72.2202 336.939 71.7202C335.839 71.5402 334.939 71.0802 334.699 69.9402C333.979 65.9402 340.879 63.7602 344.999 63.6202C346.677 63.4916 348.35 63.9204 349.759 64.8402C349.608 65.8859 349.195 66.8764 348.559 67.7202V67.7202ZM321.159 30.0002C323.299 27.3602 321.859 22.7602 315.879 22.7402C313.559 22.7402 312.439 25.1002 312.599 27.3602C312.959 32.7402 319.019 32.5802 321.159 30.0002V30.0002ZM313.999 27.2602C313.999 25.9402 314.619 24.2202 315.999 24.2402C319.219 24.2402 320.699 25.7402 320.699 27.4002C320.619 31.1802 313.739 33.1402 313.999 27.2602V27.2602ZM313.179 254C295.599 246.98 287.439 280.96 273.079 310.16C272.989 311.388 273.029 312.621 273.199 313.84C273.199 316.9 273.539 337.16 275.319 339.46C275.799 340.38 277.819 339.46 278.759 338.88C286.743 333.938 294.266 328.288 301.239 322C301.299 321.932 301.344 321.853 301.371 321.767C301.399 321.681 301.408 321.59 301.399 321.5C305.119 316.2 319.059 288.6 322.439 274.76C324.799 264.96 322.459 257.66 313.179 254V254ZM319.459 279.4C310.048 278.194 300.948 275.222 292.639 270.64C297.319 261.78 303.099 251.68 312.639 255.48C323.259 259.7 323.039 268.44 319.459 279.34V279.4ZM286.179 331.4C285.565 330.885 284.894 330.442 284.179 330.08C281.477 328.706 278.354 328.406 275.439 329.24C275.239 326.86 274.099 311.38 274.099 311.24C289.079 316.72 284.459 314.34 299.299 321.72C297.739 323.2 291.879 327.3 286.179 331.36V331.4ZM296.499 273.52C298.45 274.586 300.452 275.554 302.499 276.42C297.915 283.621 293.864 291.148 290.379 298.94C287.019 305.96 287.139 305.92 283.719 313.58C281.719 312.94 279.719 312.34 277.719 311.74C279.879 307.44 295.239 276 296.499 273.48V273.52ZM284.499 313.78C290.999 302.12 297.619 287.62 303.299 276.68C305.299 277.52 307.299 278.2 309.299 278.8C308.239 280.8 305.139 286.12 304.319 287.66C303.499 289.2 295.279 305.4 294.699 306.64C293.779 308.64 291.259 314.22 290.479 316C288.439 315.1 286.479 314.42 284.419 313.74L284.499 313.78ZM291.199 316.26C292.419 314.04 297.439 304.72 298.059 303.52C298.999 301.66 309.479 280.24 310.059 279C311.899 279.52 313.839 279.96 315.079 280.2C311.419 290.2 300.879 309.46 297.079 318.96C293.619 317.34 292.839 316.94 291.119 316.22L291.199 316.26ZM292.419 271.22L295.999 273.22C288.785 285.506 282.501 298.315 277.199 311.54L274.199 310.62C285.819 285.86 286.359 282.62 292.339 271.18L292.419 271.22ZM300.659 320.7L297.639 319.26C300.899 312.86 311.099 296.44 315.759 280.34C316.879 280.54 317.979 280.72 319.039 280.86C313.9 294.574 307.729 307.879 300.579 320.66L300.659 320.7ZM237.999 333.68C238.796 333.02 239.366 332.127 239.628 331.125C239.89 330.124 239.831 329.066 239.459 328.1C239.29 326.707 238.651 325.412 237.647 324.431C236.644 323.449 235.336 322.837 233.94 322.698C232.543 322.558 231.14 322.898 229.962 323.662C228.784 324.426 227.902 325.568 227.459 326.9C224.899 325.24 222.119 323.48 219.459 321.8C221.459 319.14 227.339 320.32 227.939 322.5C227.953 322.585 227.999 322.661 228.068 322.712C228.138 322.762 228.224 322.783 228.309 322.77C228.394 322.757 228.47 322.711 228.521 322.641C228.572 322.572 228.593 322.485 228.579 322.4C228.279 318.92 221.039 316.88 218.119 320.98C215.539 319.4 212.339 317.48 209.659 316.02C211.959 314.02 217.099 315.14 217.659 317.22C217.686 317.291 217.736 317.351 217.802 317.388C217.869 317.425 217.946 317.438 218.02 317.423C218.095 317.409 218.162 317.369 218.209 317.309C218.257 317.25 218.281 317.176 218.279 317.1C218.019 313.86 211.319 311.68 208.279 315.24C207.006 314.526 205.666 313.937 204.279 313.48C204.026 313.375 203.748 313.346 203.478 313.395C203.208 313.445 202.959 313.572 202.759 313.76C197.699 320.06 180.639 336.42 172.759 338.32C172.561 338.35 172.374 338.432 172.218 338.556C172.061 338.681 171.94 338.846 171.867 339.032C171.794 339.219 171.772 339.421 171.802 339.619C171.832 339.817 171.914 340.004 172.039 340.16C173.77 341.917 175.751 343.406 177.919 344.58C175.919 346.58 174.359 348.38 173.199 349.68C172.599 350.32 172.279 362.56 172.799 365.26C172.877 365.525 173.047 365.752 173.279 365.9C175.799 367.62 208.259 381.66 211.579 379.78C213.799 378.52 240.299 350.94 240.719 350.1C241.359 348.78 241.139 339.98 241.099 336.46C240.939 335.4 238.959 334.26 237.999 333.68V333.68ZM173.999 360.1V355.64C182.299 359.64 201.299 367.8 208.499 370.08C210.339 370.68 210.499 370.6 211.459 370.08C216.959 366.56 236.379 344.68 239.939 341.34V345.56C229.139 356.38 210.799 375.34 210.459 374.26C208.479 374.14 175.719 360.9 173.999 360.1ZM237.499 326.94C238.218 328.152 238.605 329.531 238.619 330.94C238.612 331.388 238.502 331.829 238.298 332.228C238.093 332.627 237.799 332.973 237.439 333.24C235.759 332.12 232.579 330.04 228.819 327.6C230.879 323.54 235.459 323.48 237.419 326.94H237.499ZM173.499 339.74C182.019 337.22 198.199 321.62 203.639 314.86C204.949 315.225 206.211 315.741 207.399 316.4C205.399 320.12 207.539 324.2 208.299 323.62C208.719 323.3 207.959 323.18 207.839 321.22C207.788 319.788 208.112 318.368 208.779 317.1C211.539 318.54 214.779 320.42 217.519 322C215.839 325.74 217.859 329.44 218.559 328.9C219.259 328.36 218.239 328.48 218.119 326.52C218.07 325.235 218.317 323.955 218.839 322.78C221.659 324.44 224.539 326.16 227.179 327.78C226.772 328.777 226.611 329.856 226.708 330.928C226.806 332 227.159 333.033 227.739 333.94C227.766 333.974 227.798 334.003 227.836 334.024C227.873 334.046 227.914 334.06 227.957 334.065C228 334.071 228.043 334.068 228.085 334.057C228.126 334.046 228.165 334.026 228.199 334C228.233 333.974 228.262 333.941 228.284 333.904C228.305 333.867 228.319 333.825 228.325 333.783C228.33 333.74 228.327 333.697 228.316 333.655C228.305 333.613 228.286 333.574 228.259 333.54C227.9 332.746 227.722 331.881 227.74 331.009C227.757 330.137 227.969 329.28 228.359 328.5C233.019 331.34 236.779 333.72 237.939 334.5C237.719 334.7 216.859 353.26 209.759 358.78C205.099 357.56 180.639 345.42 173.499 339.74ZM174.259 350.88C183.319 354.88 203.899 364.16 208.639 365.06C209.459 365.22 209.779 365.28 211.339 364.04C217.999 358.7 239.659 336.04 239.859 336.28C239.869 336.34 239.869 336.401 239.859 336.46V340.46C235.399 344.04 210.599 370.08 210.199 368.84C208.199 368.84 175.699 355.58 174.039 354.84C173.999 354 174.179 351.76 174.259 350.88V350.88ZM210.679 378.44C208.679 379.58 178.219 367.2 174.139 364.68C173.986 363.406 173.913 362.124 173.919 360.84C182.679 365.16 208.159 375.92 210.499 375.82C213.919 375.64 238.099 348.42 239.819 346.52C239.839 347.542 239.738 348.562 239.519 349.56C239.179 350.22 211.999 377.7 210.679 378.44V378.44ZM44.9793 265.7C45.1193 267.84 45.2193 269.7 45.2193 271.44C45.2193 271.705 45.3246 271.96 45.5122 272.147C45.6997 272.335 45.9541 272.44 46.2193 272.44C46.4845 272.44 46.7388 272.335 46.9264 272.147C47.1139 271.96 47.2193 271.705 47.2193 271.44C47.2193 269.58 47.1193 267.74 46.9793 265.56C46.9607 265.295 46.8376 265.048 46.6369 264.874C46.4362 264.699 46.1745 264.612 45.9093 264.63C45.6441 264.649 45.3971 264.772 45.2227 264.973C45.0483 265.173 44.9607 265.435 44.9793 265.7V265.7ZM349.719 225.6C349.589 225.608 349.461 225.641 349.344 225.699C349.226 225.757 349.121 225.837 349.036 225.936C348.95 226.035 348.885 226.15 348.844 226.274C348.804 226.399 348.788 226.53 348.799 226.66C348.919 228.5 349.039 230.48 349.039 232.4C349.039 232.665 349.145 232.92 349.332 233.107C349.52 233.295 349.774 233.4 350.039 233.4C350.304 233.4 350.559 233.295 350.746 233.107C350.934 232.92 351.039 232.665 351.039 232.4C351.039 230.4 350.919 228.4 350.779 226.52C350.772 226.39 350.738 226.262 350.68 226.144C350.623 226.027 350.542 225.922 350.443 225.837C350.344 225.751 350.23 225.686 350.105 225.645C349.981 225.605 349.85 225.589 349.719 225.6V225.6ZM39.7993 260.72C40.0645 260.72 40.3188 260.615 40.5064 260.427C40.6939 260.24 40.7993 259.985 40.7993 259.72C40.7993 259.455 40.6939 259.201 40.5064 259.013C40.3188 258.826 40.0645 258.72 39.7993 258.72C37.3793 258.72 35.3593 258.9 33.3593 258.86C33.0922 258.86 32.8357 258.965 32.645 259.152C32.4543 259.339 32.3445 259.593 32.3393 259.86C32.3393 260.125 32.4446 260.38 32.6322 260.567C32.8197 260.755 33.0741 260.86 33.3393 260.86C35.3993 260.9 37.6593 260.82 39.7993 260.72ZM343.519 219.68C341.119 219.68 339.099 219.82 337.079 219.84C336.814 219.84 336.56 219.946 336.372 220.133C336.185 220.321 336.079 220.575 336.079 220.84C336.079 221.105 336.185 221.36 336.372 221.547C336.56 221.735 336.814 221.84 337.079 221.84C339.239 221.84 341.479 221.84 343.639 221.68C343.904 221.664 344.153 221.544 344.329 221.345C344.505 221.146 344.595 220.885 344.579 220.62C344.563 220.355 344.443 220.107 344.244 219.931C344.045 219.754 343.784 219.664 343.519 219.68V219.68ZM44.4393 248.36C44.5593 250.2 44.6793 252.18 44.6793 254.1C44.6844 254.364 44.7914 254.615 44.9778 254.802C45.1643 254.988 45.4157 255.095 45.6793 255.1C45.9445 255.1 46.1989 254.995 46.3864 254.807C46.5739 254.62 46.6793 254.365 46.6793 254.1C46.6793 252.1 46.5593 250.1 46.4393 248.22C46.4207 247.955 46.2976 247.708 46.0969 247.534C45.8962 247.359 45.6345 247.272 45.3693 247.29C45.1041 247.309 44.8571 247.432 44.6827 247.633C44.5083 247.833 44.4207 248.095 44.4393 248.36V248.36ZM350.499 215.06C350.499 213.06 350.379 211.06 350.239 209.18C350.221 208.915 350.098 208.668 349.897 208.494C349.696 208.319 349.434 208.232 349.169 208.25C348.904 208.269 348.657 208.392 348.483 208.593C348.308 208.793 348.221 209.055 348.239 209.32C348.359 211.16 348.479 213.14 348.479 215.06C348.479 215.325 348.585 215.58 348.772 215.767C348.96 215.955 349.214 216.06 349.479 216.06C349.746 216.06 350.003 215.956 350.194 215.769C350.384 215.582 350.494 215.327 350.499 215.06V215.06ZM59.1993 260.46C59.3306 260.455 59.4597 260.424 59.5791 260.369C59.6984 260.314 59.8058 260.236 59.8949 260.139C59.9841 260.043 60.0533 259.929 60.0987 259.806C60.144 259.683 60.1646 259.552 60.1593 259.42C60.1391 259.158 60.0207 258.914 59.8278 258.736C59.6349 258.558 59.3818 258.459 59.1193 258.46C56.6993 258.56 54.6793 258.64 52.6593 258.6C52.3941 258.6 52.1397 258.706 51.9522 258.893C51.7646 259.081 51.6593 259.335 51.6593 259.6C51.6593 259.865 51.7646 260.12 51.9522 260.307C52.1397 260.495 52.3941 260.6 52.6593 260.6C54.7993 260.64 57.0393 260.56 59.1993 260.46ZM362.919 219.42C360.919 219.52 358.699 219.58 356.479 219.58C356.347 219.575 356.216 219.596 356.092 219.643C355.968 219.69 355.856 219.761 355.76 219.853C355.665 219.944 355.589 220.054 355.538 220.176C355.486 220.297 355.459 220.428 355.459 220.56C355.459 220.827 355.564 221.084 355.751 221.274C355.938 221.465 356.192 221.575 356.459 221.58C358.739 221.58 360.579 221.58 362.999 221.42C363.131 221.415 363.26 221.384 363.379 221.329C363.498 221.274 363.606 221.196 363.695 221.099C363.784 221.003 363.853 220.889 363.899 220.766C363.944 220.643 363.965 220.512 363.959 220.38C363.935 220.12 363.815 219.878 363.623 219.701C363.431 219.524 363.18 219.424 362.919 219.42V219.42ZM13.2393 201.2C13.4993 201.4 69.8993 193.04 72.3193 191.56C72.4533 191.462 72.5603 191.332 72.6302 191.182C72.7002 191.031 72.7308 190.866 72.7193 190.7C72.7193 188.12 69.3393 163.9 67.7193 157.86C67.5193 157.12 67.3193 156.38 66.8593 156.12C63.7993 154.28 9.87928 164.44 6.65928 166.52C6.57201 166.572 6.49661 166.641 6.43802 166.724C6.37943 166.807 6.33897 166.901 6.31928 167C5.63928 169.42 11.4993 200 13.2393 201.2V201.2ZM7.53928 167.48C11.3793 165.74 60.3193 156.78 65.9193 157.48C67.2793 160.98 70.9193 186.62 71.1593 190.38C68.3793 191.2 13.9993 200.54 13.7993 200.58C13.5993 200.62 13.5793 200.86 13.1593 199.6C11.3993 194.32 7.43928 172 7.53928 167.48V167.48Z" fill="black"/>
<path d="M76.7197 193.34C76.8285 193.138 76.8771 192.909 76.8597 192.68C76.8597 189.5 72.2997 154.2 70.6797 151.38C70.5527 151.172 70.3729 151.002 70.1586 150.886C69.9444 150.77 69.7032 150.713 69.4597 150.72C62.7597 149.9 6.23969 160.94 2.51969 163.52C1.99969 163.88 2.07969 164.78 2.13969 165.74C2.45969 171 8.13969 205.6 10.1397 205.4C10.3597 205.4 10.2797 205.24 9.75969 206.3C6.63969 212.72 0.719687 233.28 0.839687 237.42C0.839687 239.16 1.23969 241.42 2.95969 241.3C15.2997 239.78 75.7997 230.18 93.1997 226.6C93.8797 226.46 94.3197 225.84 94.2997 224.82C94.0944 223.121 93.5792 221.474 92.7797 219.96C90.3397 215.38 80.2197 197.24 76.7197 193.34ZM10.2597 204.78C8.69969 202.78 2.95969 168.32 3.39969 164.5C7.79969 162.22 63.5597 151.44 69.3997 152.32C70.9997 156.72 75.1397 188.5 75.3997 192.32C68.3197 194.76 19.2997 202.68 10.2597 204.78ZM11.1397 205.38C12.8197 204.96 70.0397 195.38 75.2797 194C78.1397 196.66 91.0597 219.64 91.8997 221.6C80.4197 223.6 12.3197 234.98 2.29969 236.5C2.43969 230.44 8.65969 209.26 11.1397 205.38V205.38Z" fill="black"/>
<path d="M18.6597 226.12C20.3997 225.86 57.3197 221.42 70.6597 217.8C70.7419 217.779 70.8124 217.726 70.8555 217.653C70.8986 217.58 70.9109 217.493 70.8897 217.41C70.8685 217.328 70.8155 217.258 70.7423 217.215C70.6692 217.171 70.5819 217.159 70.4997 217.18C67.8797 217.72 35.9197 221.98 18.6197 225.5C18.5719 225.492 18.5228 225.494 18.4761 225.507C18.4293 225.521 18.3862 225.544 18.35 225.577C18.3138 225.609 18.2854 225.649 18.267 225.694C18.2485 225.739 18.2406 225.787 18.2437 225.836C18.2468 225.884 18.261 225.931 18.285 225.974C18.309 226.016 18.3424 226.052 18.3824 226.079C18.4225 226.107 18.4683 226.125 18.5164 226.132C18.5644 226.139 18.6134 226.135 18.6597 226.12V226.12ZM45.6397 86.9604C44.8926 88.6478 44.2644 90.3853 43.7597 92.1604C43.73 92.4452 43.8085 92.7308 43.9797 92.9604C45.9997 96.0004 66.6997 119.34 72.0997 122.62C72.8397 123.08 73.7197 123.4 74.2597 122.74C78.1824 117.859 83.3018 114.077 89.1197 111.76C93.855 110.085 98.8196 109.147 103.84 108.98C107.84 108.62 108.54 108.22 110.08 105.6C111.896 102.152 114.307 99.0516 117.2 96.4404C120.889 93.2148 124.983 90.485 129.38 88.3204C129.578 88.2082 129.732 88.0331 129.819 87.823C129.906 87.6128 129.92 87.3796 129.86 87.1604C129.184 85.44 128.29 83.8134 127.2 82.3204C127.92 82.0804 128.72 81.8604 128.72 81.1404C128.72 79.1404 111.28 53.9004 106.44 49.1404C105.94 48.6404 105.22 47.9804 104.56 48.0204C94.5597 48.5804 84.8197 58.0204 79.1797 66.2604C72.7197 66.0204 68.5397 65.4404 61.1797 68.5404C55.9839 70.7459 51.2994 74.0005 47.4197 78.1004C46.8197 78.7204 42.7397 83.0404 42.6797 83.3804C42.6197 83.7204 42.7397 83.7204 45.6397 86.9604V86.9604ZM125.64 86.4004C117.3 87.8204 111.98 94.7604 108.06 102.3C106.32 105.66 106.48 105.82 104.64 105.78C101.422 105.598 98.1947 105.719 94.9997 106.14C92.6563 106.491 90.3523 107.067 88.1197 107.86C83.0397 109.66 77.2197 115.42 74.1197 119.7C74.0539 119.788 73.9701 119.862 73.874 119.915C73.778 119.968 73.6717 120.001 73.5621 120.01C73.4526 120.02 73.3423 120.006 73.2385 119.97C73.1347 119.934 73.0397 119.876 72.9597 119.8C66.4597 113.1 54.9597 101.34 49.1797 94.5804C48.8997 94.2804 49.3797 93.8404 49.6597 94.1604C53.3997 98.1604 63.0597 107.74 73.4197 118.16C76.9197 113.7 82.3197 108.3 87.6597 106.42C90.5716 105.382 93.6016 104.71 96.6797 104.42C99.5622 104.201 102.457 104.201 105.34 104.42C106.52 103.06 112.36 87.6204 125.6 85.9004C125.638 85.9288 125.67 85.9656 125.693 86.0081C125.715 86.0505 125.728 86.0975 125.73 86.1456C125.732 86.1936 125.723 86.2414 125.704 86.2856C125.685 86.3297 125.656 86.3689 125.62 86.4004H125.64ZM104.54 49.6404C108.54 52.4404 124.82 76.5404 126.94 80.7604C123.261 81.926 119.71 83.4604 116.34 85.3404C113.148 86.9401 110.354 89.2317 108.161 92.048C105.967 94.8643 104.429 98.1346 103.66 101.62C96.4797 89.9404 86.4597 77.0804 79.7997 67.6204C80.1997 67.3604 91.4397 50.4204 104.54 49.6404V49.6404ZM61.6197 69.6404C68.9197 66.7004 72.9597 67.3804 78.9997 67.6404C84.9997 77.8804 95.7797 92.3204 102.88 101.78C96.3266 100.23 89.4308 101.178 83.5397 104.44C79.9997 106.44 75.6797 111.24 73.0197 114.22C69.1797 111.14 47.0197 87.5404 43.4597 83.5404C48.9397 77.3404 53.9997 72.6804 61.6197 69.5604V69.6404ZM25.0197 120.5C24.5254 120.153 23.941 119.957 23.3375 119.936C22.734 119.915 22.1373 120.069 21.6197 120.38C21.2428 120.548 20.9027 120.789 20.6188 121.089C20.335 121.388 20.1129 121.741 19.9652 122.126C19.8176 122.511 19.7473 122.922 19.7583 123.335C19.7694 123.747 19.8616 124.153 20.0297 124.53C20.1978 124.907 20.4385 125.247 20.738 125.531C21.0375 125.815 21.39 126.037 21.7754 126.185C22.1608 126.333 22.5714 126.403 22.984 126.392C23.3965 126.381 23.8028 126.288 24.1797 126.12C24.7818 125.989 25.3297 125.677 25.7506 125.227C26.1716 124.777 26.4458 124.209 26.5369 123.6C26.628 122.99 26.5317 122.368 26.2608 121.814C25.9898 121.26 25.557 120.802 25.0197 120.5V120.5ZM23.6997 124.5C22.2997 124.94 21.4597 124.5 21.1197 123.82C20.4797 122.4 21.2797 120.22 23.3597 120.86C24.8197 121.4 25.9997 123.86 23.6997 124.6V124.5ZM126.72 28.9804C127.3 30.1604 130 29.7204 131.18 29.3404C131.8 29.1404 132.2 28.9204 132.26 28.3204C132.44 26.8204 132.64 13.8204 131.96 12.5604C131.889 12.4282 131.782 12.3198 131.65 12.2487C131.518 12.1775 131.369 12.1468 131.22 12.1604C129.086 12.1544 126.963 12.4645 124.92 13.0804C124.1 13.5804 126 27.6604 126.72 28.9804ZM125.34 13.5604C127.187 13.2961 129.056 13.209 130.92 13.3004C131.04 14.7804 130.72 27.6004 130.7 27.8004C129.855 28.1032 128.953 28.2125 128.06 28.1204C127.92 27.6604 127.68 26.4204 127.38 24.8604C126.498 21.1328 125.817 17.3608 125.34 13.5604V13.5604ZM23.0797 103.62C23.2716 103.719 23.4841 103.77 23.6997 103.77C23.9153 103.77 24.1278 103.719 24.3197 103.62C25.0924 103.144 25.7052 102.447 26.0797 101.62C26.1306 101.488 26.1463 101.345 26.1252 101.205C26.1042 101.064 26.0472 100.932 25.9597 100.82C24.9997 99.6804 14.5197 87.5404 13.2397 88.3004C11.6681 89.3178 10.1771 90.4544 8.77971 91.7004C8.7234 91.7507 8.67827 91.8124 8.64727 91.8813C8.61626 91.9502 8.60006 92.0248 8.59971 92.1004C8.55971 93.1404 20.1997 102.46 23.0797 103.62V103.62ZM13.4797 88.8204C14.9397 89.8804 19.8597 95.9604 24.4197 101.34C24.2235 101.649 23.9807 101.926 23.6997 102.16C18.9054 99.0919 14.328 95.6972 9.99971 92.0004C11.0847 90.8611 12.2475 89.7986 13.4797 88.8204V88.8204ZM44.8997 44.7004C45.3397 36.9404 49.8597 33.3404 54.5797 32.4204C53.2397 37.3404 53.4597 43.7404 58.3197 44.5604C60.6397 44.9404 61.7797 43.7404 63.4597 42.3404C70.6397 36.3404 64.8397 30.3404 56.7397 30.7604C59.7597 22.4804 66.7397 15.7404 75.9997 15.5204C76.0846 15.5204 76.166 15.4867 76.226 15.4266C76.286 15.3666 76.3197 15.2852 76.3197 15.2004C76.3197 15.1155 76.286 15.0341 76.226 14.9741C76.166 14.9141 76.0846 14.8804 75.9997 14.8804C65.9997 14.6804 58.1397 21.8804 55.0397 30.8804C49.6997 31.8004 44.3997 35.8004 44.2597 44.5804C44.2518 44.6224 44.2523 44.6656 44.2611 44.7074C44.2699 44.7492 44.2869 44.7889 44.311 44.8242C44.3352 44.8595 44.366 44.8897 44.4018 44.913C44.4376 44.9364 44.4777 44.9525 44.5197 44.9604C44.5617 44.9682 44.6049 44.9678 44.6467 44.959C44.6886 44.9502 44.7283 44.9332 44.7636 44.9091C44.7988 44.8849 44.829 44.8541 44.8524 44.8183C44.8758 44.7824 44.8918 44.7424 44.8997 44.7004V44.7004ZM56.2797 32.1804C59.2597 31.9804 63.6997 32.9004 64.9197 35.6004C65.6197 37.1404 64.9197 39.0404 62.4397 41.1204C61.7664 41.7949 60.9983 42.3676 60.1597 42.8204C57.1597 44.1004 53.8397 40.4004 56.2797 32.1804ZM61.9997 315.04C60.0674 314.523 58.0512 314.397 56.0695 314.67C54.0879 314.943 52.1809 315.61 50.4609 316.632C48.7408 317.653 47.2424 319.008 46.0538 320.617C44.8651 322.226 44.0104 324.056 43.5397 326C42.6512 330.04 43.4037 334.266 45.6317 337.751C47.8596 341.235 51.3805 343.692 55.4197 344.58C59.459 345.469 63.6857 344.716 67.1701 342.488C70.6546 340.26 73.1112 336.74 73.9997 332.7C74.3792 330.752 74.3694 328.748 73.9708 326.804C73.5721 324.859 72.7926 323.013 71.6771 321.372C70.5616 319.73 69.1322 318.325 67.4712 317.239C65.8103 316.152 63.9507 315.405 61.9997 315.04V315.04ZM68.1797 331.34C67.3772 334.541 65.4561 337.349 62.7637 339.256C60.0713 341.164 56.7853 342.045 53.4997 341.74C50.4837 340.562 47.9799 338.358 46.4288 335.515C44.8777 332.673 44.3788 329.374 45.0197 326.2C45.7681 322.922 47.6713 320.023 50.3815 318.032C53.0917 316.042 56.4278 315.093 59.7797 315.36C62.8255 316.619 65.3298 318.911 66.8517 321.834C68.3735 324.757 68.8155 328.124 68.0997 331.34H68.1797Z" fill="black"/>
<path d="M88.6397 320.74C86.8986 320.139 85.0326 319.995 83.2197 320.32C82.4683 318.597 81.5435 316.956 80.4597 315.42C81.7597 314.24 85.3197 310.96 84.4597 309.42C81.399 305.759 77.7652 302.618 73.6997 300.12C72.002 299.169 70.1326 298.564 68.1997 298.34C66.9197 298.52 63.8797 303.5 63.1997 304.62C62.7597 304.62 61.1997 304.12 61.0797 304.06C61.0797 302.62 60.6597 297.42 59.3597 296.82C57.906 296.285 56.3964 295.916 54.8597 295.72C53.4397 295.5 40.6597 297.84 39.7197 299.56C39.0997 300.72 40.5397 305.1 40.9597 306.32C39.881 306.914 38.8452 307.582 37.8597 308.32C35.8597 309.74 36.3997 309.68 36.0397 309.52C35.6046 309.312 35.1384 309.177 34.6597 309.12C33.062 308.183 31.1888 307.83 29.3597 308.12C27.5197 308.72 23.1797 318.6 22.4797 321.14C22.2506 321.781 22.1886 322.469 22.2997 323.14C22.7797 324.46 25.9797 325.52 27.3197 325.94C26.9496 328.513 26.9496 331.127 27.3197 333.7C25.5597 334.18 21.8997 335.26 22.0997 337.06C22.2997 338.86 26.9797 350.74 28.9197 351.68C29.9824 352.274 31.1576 352.64 32.37 352.754C33.5823 352.867 34.805 352.726 35.9597 352.34C36.61 352.015 37.238 351.648 37.8397 351.24C38.6397 351.84 39.4797 352.38 40.3397 352.9C39.7197 354.44 38.3397 357.88 38.7797 359.44C38.9997 360.26 39.6597 360.52 40.5797 360.86C43.1197 361.78 56.7997 365.06 58.8797 364.7C59.6597 364.58 60.0797 363.76 60.3197 362.98C60.764 361.205 61.0254 359.389 61.0997 357.56C62.1268 357.459 63.1481 357.305 64.1597 357.1C64.7774 358.187 65.5677 359.167 66.4997 360C67.5197 360.72 68.3797 360.36 69.5397 359.62C70.0997 360.34 70.9397 361.34 71.8397 361.44C74.0997 361.7 83.4397 352.9 84.3997 351.1C85.1997 349.6 82.2797 346.92 80.9797 345.74C82.386 343.624 83.49 341.322 84.2597 338.9C85.7022 339.117 87.162 339.198 88.6197 339.14C89.2797 339.14 90.0397 338.9 90.3197 338.28C91.5397 335.5 91.1797 324.96 90.3197 322.28C90.1997 321.5 89.2997 320.98 88.6397 320.74V320.74ZM89.1197 322.58C89.7997 325.18 90.0197 335 89.0197 337.54C87.2905 337.71 85.5457 337.63 83.8397 337.3C83.6575 337.269 83.4703 337.307 83.3149 337.407C83.1594 337.507 83.047 337.661 82.9997 337.84C82.2032 340.544 80.9666 343.098 79.3397 345.4C79.2238 345.553 79.1715 345.744 79.1939 345.934C79.2163 346.124 79.3116 346.299 79.4597 346.42C80.8629 347.532 82.0552 348.887 82.9797 350.42C81.9797 352.06 74.1597 359.22 71.9997 359.82C71.6797 359.82 70.7997 358.62 70.5797 358.3C69.8409 357.19 69.1729 356.034 68.5797 354.84C68.4931 354.666 68.3446 354.53 68.1633 354.46C67.982 354.39 67.781 354.39 67.5997 354.46C61.7997 356.64 59.5997 355.36 59.5997 356.8C59.6023 358.956 59.2509 361.098 58.5597 363.14C53.8596 362.629 49.231 361.596 44.7597 360.06C44.9756 357.925 45.5717 355.845 46.5197 353.92C47.1197 352.58 44.7197 352.96 40.2397 348.4C40.0955 348.266 39.9062 348.192 39.7097 348.192C39.5131 348.192 39.3239 348.266 39.1797 348.4C37.1797 350.04 34.5797 351.64 34.0597 351.38C33.0397 350.88 28.3397 340.22 28.0597 338.06C29.4822 337.069 31.0971 336.387 32.7997 336.06C32.9813 336.009 33.1381 335.893 33.241 335.735C33.344 335.577 33.3862 335.387 33.3597 335.2C32.8695 332.368 32.8695 329.472 33.3597 326.64C33.3902 326.466 33.3536 326.286 33.2571 326.138C33.1606 325.989 33.0115 325.883 32.8397 325.84C31.3319 325.445 29.8803 324.86 28.5197 324.1C28.0797 323.78 28.1197 323.8 28.1597 323.46C29.4542 318.791 31.5302 314.375 34.2997 310.4C35.3797 310.1 38.2997 312.24 39.2997 313C39.4042 313.101 39.5441 313.158 39.6897 313.158C39.8353 313.158 39.9752 313.101 40.0797 313C40.9986 312.047 41.9881 311.164 43.0397 310.36C46.0797 308.06 46.8997 308.36 46.6397 307.56C45.7203 305.553 45.2038 303.386 45.1197 301.18C45.4296 300.922 45.7814 300.719 46.1597 300.58C48.0268 299.842 49.9452 299.24 51.8997 298.78C54.2687 298.12 56.7035 297.724 59.1597 297.6C59.5797 297.78 59.9597 299.6 60.0597 300.16C60.7997 304.16 60.2997 304.98 60.8797 305.04C66.5797 305.6 67.7397 307.18 68.1397 306.48C69.2487 304.541 70.5413 302.712 71.9997 301.02C72.4197 300.6 72.3997 300.4 73.6597 301.12C77.4239 303.58 80.7952 306.594 83.6597 310.06C83.9597 310.58 81.3597 313.34 79.4597 314.96C78.7997 315.54 79.7397 315.8 81.4597 319.08C83.1797 322.36 82.7797 323.28 83.6997 323.08C85.4732 322.655 87.2984 322.487 89.1197 322.58V322.58ZM366.7 155.46C362.507 153.748 358.111 152.585 353.62 152C350.34 151.48 346.48 150.96 343.22 150.54C346.36 146.1 355.66 134.86 357.22 132.12C357.66 131.38 356.82 130.34 356.2 129.72C352.72 126 346 124.6 340.84 123.8C337.88 123.32 325.52 121.8 323.42 122.8C320.9 124 302.26 152 301.7 156.26C301.7 156.98 301.94 157.26 302.64 157.52C305.58 158.6 318.84 160.28 321.8 160.98C317.8 167.98 300.02 191.64 298.28 194.98C297.86 195.82 298.12 196.32 298.62 196.48C300.42 197.194 302.272 197.77 304.16 198.2C304.88 198.42 306.46 197.44 308.76 196.04C319.08 189.84 363.36 160.6 366.76 156.82C366.854 156.731 366.927 156.623 366.976 156.504C367.024 156.384 367.046 156.255 367.041 156.126C367.035 155.997 367.001 155.871 366.943 155.756C366.884 155.641 366.801 155.54 366.7 155.46V155.46ZM323.72 179.46C306.72 190.68 300.98 193.96 300.78 194.1C303.52 189.92 320.54 166.6 323.46 161.02C323.511 160.912 323.537 160.794 323.536 160.675C323.536 160.556 323.509 160.439 323.457 160.331C323.405 160.224 323.33 160.129 323.237 160.055C323.144 159.98 323.036 159.927 322.92 159.9C320.92 159.18 306.36 157.62 302.92 156.4C303.36 152.68 321.52 124.56 323.72 123.44C325.92 122.32 347.26 124.86 351.26 127.72C349.16 131.82 337.56 146.18 335.68 149.52C335.3 150.2 335.18 150.86 335.92 151.04C336.66 151.22 355.46 153.42 359.56 154.76C354.56 158.94 329.32 175.7 323.72 179.38V179.46ZM195.42 57.18C195.42 57.36 195.54 57.58 195.84 58.74C195.918 58.9917 196.092 59.203 196.323 59.3298C196.554 59.4566 196.825 59.4889 197.08 59.42C197.334 59.3458 197.549 59.1734 197.676 58.9409C197.804 58.7083 197.834 58.4346 197.76 58.18C197.56 57.4 197.38 56.74 197.26 56.42C197.143 56.2004 196.949 56.0321 196.715 55.9478C196.481 55.8636 196.224 55.8695 195.995 55.9644C195.765 56.0593 195.579 56.2364 195.472 56.4612C195.366 56.6859 195.347 56.9422 195.42 57.18V57.18Z" fill="black"/>
</svg>
