<svg width="50" height="50" viewBox="0 0 50 50" fill="none" xmlns="http://www.w3.org/2000/svg">
<path d="M4.6653 13.0046C4.84051 11.2148 6.01657 9.80271 7.77912 9.44588C10.3435 8.92671 15.005 8.33325 22.9165 8.33325C30.828 8.33325 35.4895 8.92671 38.0539 9.44588C39.8164 9.80271 40.9925 11.2148 41.1678 13.0046C41.4069 15.4483 41.6665 19.7819 41.6665 27.0833C41.6665 34.3846 41.4069 38.7182 41.1678 41.1619C40.9925 42.9517 39.8164 44.3638 38.0539 44.7206C35.4895 45.2398 30.828 45.8333 22.9165 45.8333C15.005 45.8333 10.3435 45.2398 7.77912 44.7206C6.01657 44.3638 4.84051 42.9517 4.6653 41.1619C4.42607 38.7182 4.1665 34.3846 4.1665 27.0833C4.1665 19.7819 4.42607 15.4483 4.6653 13.0046Z" fill="#12362C"/>
<path d="M9.87379 7.79635C10.049 6.00659 11.2251 4.59446 12.9876 4.23762C15.552 3.71846 20.2135 3.125 28.125 3.125C36.0365 3.125 40.698 3.71846 43.2624 4.23762C45.0249 4.59446 46.201 6.00659 46.3762 7.79635C46.6154 10.24 46.875 14.5736 46.875 21.875C46.875 29.1764 46.6154 33.51 46.3762 35.9536C46.201 37.7434 45.0249 39.1555 43.2624 39.5124C40.698 40.0316 36.0365 40.625 28.125 40.625C20.2135 40.625 15.552 40.0316 12.9876 39.5124C11.2251 39.1555 10.049 37.7434 9.87379 35.9536C9.63456 33.51 9.375 29.1764 9.375 21.875C9.375 14.5736 9.63456 10.24 9.87379 7.79635Z" fill="#E6E6E6"/>
<path d="M38.3764 25.6416C38.2398 27.6718 36.2733 28.4451 34.7572 27.0867C33.8782 26.2992 32.78 25.2813 31.4215 23.9705C28.4959 26.657 25.2173 29.4796 22.3631 31.8287C21.5501 32.4977 20.3636 32.4333 19.6192 31.6888L18.3105 30.38C17.567 29.6366 17.5027 28.4532 18.1705 27.6413C20.5188 24.7867 23.3406 21.507 26.0266 18.5805C24.7117 17.22 23.6908 16.1205 22.9013 15.2409C21.5414 13.7255 22.3157 11.7603 24.3481 11.6238C25.5579 11.5424 27.0812 11.4786 28.9703 11.4607C32.2923 11.4291 34.4487 11.7144 35.7582 11.9982C36.9061 12.2469 37.7526 13.0926 38.0014 14.2397C38.2853 15.5479 38.5708 17.7025 38.5394 21.0219C38.5217 22.91 38.4578 24.4326 38.3764 25.6416Z" fill="#12362C"/>
</svg>
