<svg width="381" height="368" viewBox="0 0 381 368" fill="none" xmlns="http://www.w3.org/2000/svg">
<path d="M181.209 53.0892C181.669 52.7092 181.709 51.6492 181.789 50.6092C182.429 38.6854 182.469 26.737 181.909 14.8092C181.649 12.1492 181.549 12.0492 178.709 11.8292C171.029 11.1692 138.109 11.8292 136.589 13.2292C135.549 14.2292 136.069 49.4892 137.009 52.6692C137.079 52.8164 137.186 52.9432 137.319 53.0377C137.452 53.1321 137.607 53.1912 137.769 53.2092C140.309 53.6292 179.029 54.8892 181.209 53.0892ZM137.029 13.6692C138.729 12.5692 176.269 12.3692 180.249 13.4692C181.269 18.3492 180.669 48.9692 180.089 51.9892C173.029 52.9492 142.209 52.3092 138.229 51.8892C137.143 39.18 136.743 26.4215 137.029 13.6692V13.6692ZM183.049 64.4692C183.018 64.2534 182.929 64.0501 182.792 63.881C182.655 63.7118 182.474 63.5833 182.269 63.5092C178.829 62.2692 139.569 63.0892 138.009 64.5892C137.029 65.5092 137.389 100.589 138.409 104.029C138.479 104.176 138.586 104.303 138.719 104.398C138.852 104.492 139.007 104.551 139.169 104.569C142.449 105.109 177.329 105.949 181.929 104.749C182.609 104.569 182.829 104.309 182.949 103.869C183.749 100.849 184.089 68.5492 183.049 64.4692V64.4692ZM181.489 103.329C174.409 104.289 143.749 103.689 139.629 103.329C138.689 98.6292 137.929 68.0292 138.429 65.1092C140.209 63.9092 177.989 63.8892 181.649 64.8892C182.589 69.3292 182.089 99.9492 181.489 103.329V103.329ZM234.889 52.6492C235.329 52.2892 235.369 51.2092 235.469 50.1692C236.069 38.2434 236.069 26.295 235.469 14.3692C235.209 11.7092 235.089 11.6292 232.289 11.3892C224.589 10.7492 191.689 11.3892 190.169 12.7892C189.129 13.7692 189.629 49.0492 190.589 52.2292C190.647 52.3812 190.747 52.5131 190.879 52.6089C191.01 52.7048 191.166 52.7605 191.329 52.7692C194.089 53.2092 232.689 54.4492 234.889 52.6492ZM190.709 13.2292C194.709 12.0092 230.349 12.0292 233.909 13.0292C234.849 17.5092 234.429 48.0492 233.749 51.5492C226.669 52.5092 195.989 51.8892 191.889 51.5492C190.8 38.8068 190.406 26.0145 190.709 13.2292V13.2292ZM62.4888 130.829C62.7688 131.609 63.8088 131.949 64.6688 132.149C71.9888 133.929 98.8688 132.969 107.169 131.389C108.049 131.229 109.809 130.909 110.289 130.169C112.129 127.209 111.389 79.6292 109.189 76.9892C106.989 74.3492 68.3288 74.8092 64.9288 77.4092C62.3688 79.3892 61.7688 128.749 62.4888 130.829V130.829ZM65.7888 78.4292C69.0288 76.1692 107.169 75.5092 108.709 77.3692C110.709 79.7692 110.469 126.549 109.089 129.369C105.349 131.369 68.6888 132.629 63.9488 130.329C63.3088 129.949 63.9088 82.5292 65.7888 78.4292ZM13.6088 145.009C13.7679 145.248 13.9815 145.444 14.2319 145.584C14.4824 145.723 14.7625 145.8 15.0488 145.809C22.2366 146.396 29.4646 146.275 36.6288 145.449C37.2832 145.424 37.913 145.193 38.4288 144.789C39.5088 143.369 38.9488 123.469 37.7288 122.269C36.5088 121.069 16.9888 121.009 15.0288 122.269C14.7294 122.525 14.5308 122.88 14.4688 123.269C13.5649 130.478 13.2772 137.751 13.6088 145.009V145.009ZM37.2688 143.949C33.7167 144.444 30.1352 144.698 26.5488 144.709C26.8166 144.165 27.1171 143.637 27.4488 143.129C28.6363 141.575 30.1827 140.332 31.9557 139.507C33.7286 138.681 35.6752 138.298 37.6288 138.389C37.6204 140.248 37.5002 142.105 37.2688 143.949V143.949ZM15.8888 123.329C18.2888 122.389 36.7088 122.129 37.3088 122.709C37.4898 123.314 37.5973 123.939 37.6288 124.569C34.5688 124.969 34.0888 130.749 34.0088 133.829C32.7685 131.817 31.392 129.893 29.8888 128.069C29.3624 127.648 28.738 127.366 28.0736 127.251C27.4093 127.136 26.7265 127.19 26.0888 127.409C24.6288 128.049 24.9088 129.849 25.1088 131.269C25.6224 133.088 26.3473 134.84 27.2688 136.489C26.0688 135.529 21.2688 131.649 19.9088 131.409C18.5488 131.169 17.2288 131.249 16.5488 132.449C14.5488 135.969 19.3688 141.809 22.2288 144.669C19.8225 144.701 17.4169 144.567 15.0288 144.269C14.79 137.278 15.0774 130.278 15.8888 123.329V123.329Z" fill="black"/>
<path d="M6.48871 152.369C6.76871 153.029 7.68871 153.269 8.48871 153.409C14.4887 154.649 36.0887 153.949 42.7887 152.869C43.5487 152.729 44.9887 152.509 45.4087 151.949C46.9687 149.829 46.3087 116.709 44.4887 114.789C42.9487 113.189 11.5487 113.049 8.60871 114.969C8.22159 115.342 7.97442 115.836 7.90871 116.369C6.36871 122.409 5.88871 150.889 6.48871 152.369V152.369ZM9.36871 116.069C12.1287 114.569 42.7487 114.069 43.9687 115.229C45.1887 116.389 45.3687 147.689 44.2087 151.049C40.3487 152.289 16.5887 153.289 7.90871 151.769C7.50871 150.409 7.86871 120.349 9.36871 116.069V116.069ZM311.149 111.549C311.925 112.437 312.753 113.279 313.629 114.069C313.649 114.103 313.676 114.132 313.709 114.155C313.741 114.178 313.778 114.193 313.817 114.201C313.856 114.208 313.896 114.207 313.934 114.198C313.973 114.188 314.009 114.171 314.04 114.147C314.072 114.123 314.097 114.092 314.116 114.057C314.135 114.022 314.146 113.984 314.148 113.944C314.151 113.905 314.145 113.865 314.132 113.828C314.118 113.791 314.096 113.757 314.069 113.729C312.527 110.707 310.35 108.053 307.689 105.949C307.638 105.893 307.568 105.86 307.493 105.856C307.418 105.853 307.344 105.879 307.289 105.929C307.233 105.98 307.2 106.05 307.196 106.125C307.192 106.2 307.218 106.273 307.269 106.329C308.391 108.19 309.69 109.938 311.149 111.549V111.549ZM290.849 119.049C291.643 116.013 291.772 112.84 291.229 109.749C291.229 109.675 291.199 109.604 291.147 109.551C291.094 109.499 291.023 109.469 290.949 109.469C290.874 109.469 290.803 109.499 290.751 109.551C290.698 109.604 290.669 109.675 290.669 109.749C290.415 110.909 290.248 112.085 290.169 113.269C289.96 115.18 290 117.109 290.289 119.009C290.249 119.389 290.809 119.429 290.849 119.049ZM264.789 116.789C265.69 115.488 266.447 114.093 267.049 112.629C267.734 111.19 268.237 109.672 268.549 108.109C268.54 108.06 268.518 108.015 268.486 107.977C268.454 107.94 268.412 107.911 268.365 107.895C268.319 107.879 268.268 107.875 268.22 107.885C268.171 107.894 268.126 107.917 268.089 107.949C267.889 108.269 267.269 109.189 266.889 109.949C265.712 112.059 264.849 114.33 264.329 116.689C264.293 116.725 264.268 116.769 264.255 116.818C264.243 116.867 264.244 116.918 264.258 116.966C264.272 117.014 264.299 117.058 264.336 117.092C264.372 117.127 264.418 117.15 264.467 117.161C264.516 117.172 264.567 117.169 264.615 117.153C264.663 117.137 264.705 117.109 264.738 117.071C264.771 117.033 264.793 116.986 264.802 116.937C264.811 116.887 264.806 116.836 264.789 116.789V116.789ZM140.929 254.749C151.509 255.429 151.649 243.989 140.929 245.809C134.089 246.169 136.189 254.389 140.929 254.749ZM140.929 246.409C149.869 245.949 149.149 253.729 140.929 253.229C138.089 253.089 135.589 247.309 141.009 246.409H140.929ZM179.609 248.549C190.229 249.229 190.329 237.789 179.609 239.609C172.849 239.949 174.889 248.189 179.609 248.549ZM179.609 240.209C188.549 239.749 187.849 247.529 179.609 247.029C176.809 246.889 174.289 241.109 179.689 240.209H179.609ZM202.329 253.429C212.929 254.109 213.049 242.669 202.329 244.469C195.549 244.849 197.589 253.069 202.329 253.429ZM202.329 245.089C211.269 244.629 210.569 252.409 202.329 251.909C199.529 251.769 196.989 245.949 202.409 245.089H202.329ZM208.509 237.069C219.089 237.749 219.249 226.309 208.509 228.129C201.729 228.489 203.789 236.729 208.509 237.069ZM208.509 228.749C217.449 228.289 216.729 236.049 208.509 235.569C205.709 235.409 203.169 229.629 208.589 228.749H208.509ZM128.749 212.269C131.492 212.932 134.382 212.606 136.909 211.349C140.909 209.189 141.089 204.269 138.729 200.429C135.069 194.429 127.449 195.049 124.729 199.349C123.564 201.42 123.174 203.837 123.629 206.169C123.899 207.535 124.51 208.81 125.405 209.877C126.3 210.943 127.45 211.766 128.749 212.269ZM125.129 205.949C124.721 203.97 124.996 201.912 125.909 200.109C126.869 198.732 128.275 197.729 129.889 197.27C131.504 196.81 133.228 196.923 134.769 197.589C138.889 199.909 141.069 207.709 136.209 210.089C134.043 211.125 131.593 211.406 129.249 210.889C128.208 210.47 127.287 209.799 126.568 208.937C125.849 208.075 125.354 207.049 125.129 205.949V205.949Z" fill="black"/>
<path d="M129.329 200.929C129.089 200.529 127.809 200.169 127.909 201.389C128.009 202.609 130.089 202.149 129.329 200.929ZM133.789 200.969C134.229 200.269 132.489 198.969 132.309 200.629C132.249 201.169 133.009 202.149 133.789 200.969ZM128.809 205.949C128.069 206.449 130.369 208.749 133.209 207.469C133.646 207.29 134.025 206.993 134.304 206.612C134.582 206.231 134.75 205.78 134.789 205.309C134.801 205.271 134.805 205.231 134.801 205.191C134.798 205.152 134.786 205.113 134.768 205.078C134.749 205.042 134.724 205.011 134.693 204.986C134.662 204.96 134.627 204.941 134.589 204.929C134.551 204.917 134.511 204.913 134.471 204.917C134.431 204.92 134.393 204.932 134.357 204.95C134.322 204.969 134.291 204.994 134.265 205.025C134.24 205.056 134.221 205.091 134.209 205.129C133.525 205.686 132.713 206.062 131.846 206.223C130.98 206.383 130.086 206.324 129.249 206.049C129.2 205.982 129.129 205.934 129.048 205.916C128.967 205.897 128.882 205.909 128.809 205.949V205.949ZM152.949 216.229C154.769 216.989 163.389 216.769 164.809 214.969C165.169 214.529 164.929 214.089 164.669 213.589C163.789 211.909 158.889 203.709 157.129 204.009C155.369 204.309 153.609 209.009 153.129 210.549C152.649 212.089 151.489 215.609 152.949 216.229V216.229ZM154.949 208.589C155.209 207.809 156.329 204.769 157.129 204.589C157.929 204.409 163.129 213.989 163.249 214.189C160.087 215.024 156.796 215.255 153.549 214.869C153.74 212.716 154.239 210.601 155.029 208.589H154.949ZM204.869 112.149C204.839 111.966 204.746 111.8 204.604 111.68C204.463 111.56 204.284 111.494 204.099 111.494C203.914 111.494 203.734 111.56 203.593 111.68C203.452 111.8 203.358 111.966 203.329 112.149C203.349 112.618 203.429 113.082 203.569 113.529C203.585 113.64 203.625 113.746 203.686 113.84C203.746 113.933 203.827 114.013 203.921 114.073C204.015 114.134 204.121 114.173 204.232 114.188C204.343 114.204 204.456 114.195 204.563 114.164C204.67 114.132 204.769 114.077 204.853 114.004C204.938 113.93 205.005 113.839 205.051 113.737C205.097 113.635 205.121 113.525 205.121 113.413C205.12 113.301 205.096 113.191 205.049 113.089C204.959 112.782 204.899 112.468 204.869 112.149V112.149ZM209.149 118.929C209.661 118.701 210.129 118.383 210.529 117.989C210.849 117.689 210.709 117.349 210.249 117.429L208.909 117.709C208.643 116.735 208.475 115.737 208.409 114.729C208.409 113.969 208.069 111.529 207.669 111.369C207.269 111.209 207.169 111.989 207.049 112.669C206.689 114.949 206.989 119.769 209.149 118.929V118.929ZM212.449 111.609C212.478 111.792 212.572 111.958 212.713 112.079C212.854 112.199 213.034 112.265 213.219 112.265C213.404 112.265 213.583 112.199 213.724 112.079C213.866 111.958 213.959 111.792 213.989 111.609V110.509C213.964 110.306 213.864 110.119 213.709 109.986C213.553 109.853 213.353 109.783 213.149 109.789C212.944 109.809 212.754 109.908 212.62 110.065C212.486 110.221 212.418 110.423 212.429 110.629C212.349 110.769 212.449 111.609 212.449 111.609V111.609ZM213.229 120.189C212.949 120.189 213.229 120.189 211.729 121.369C211.584 121.487 211.43 121.594 211.269 121.689C209.789 122.549 209.109 122.069 208.969 122.509C208.829 122.949 210.009 123.649 211.309 123.329C213.429 122.809 213.769 120.349 213.229 120.189V120.189ZM68.4288 124.229C68.6488 124.909 69.4888 125.209 70.1888 125.369C75.8888 126.809 96.3288 125.989 102.409 124.789C103.169 124.629 104.409 124.369 104.869 123.749C106.309 121.369 105.609 84.4292 103.949 82.3492C102.289 80.2692 73.0088 80.5292 70.3288 82.6092C68.3288 84.2092 67.8688 122.589 68.4288 124.229V124.229ZM100.629 106.229C101.225 106.015 101.862 105.938 102.492 106.004C103.122 106.07 103.73 106.277 104.269 106.609C104.354 112.07 104.147 117.531 103.649 122.969L103.249 123.109C101.885 118.018 99.1123 113.415 95.2488 109.829C96.8994 108.411 98.7041 107.184 100.629 106.169V106.229ZM93.2888 90.2292C96.5888 92.3492 96.4888 97.7892 90.7288 97.8492C87.2288 97.8492 85.7288 96.1692 85.7288 94.1692C85.7079 93.2813 85.9348 92.4051 86.384 91.639C86.8332 90.8728 87.487 90.247 88.272 89.8316C89.0571 89.4163 89.9423 89.2278 90.8284 89.2874C91.7145 89.3471 92.5665 89.6524 93.2888 90.1692V90.2292ZM73.5688 107.029C79.4288 103.529 83.7688 103.329 89.5688 107.029C94.7488 110.369 100.429 117.029 101.789 123.449C95.7888 124.529 72.7488 125.449 69.7888 123.829C69.5288 122.749 69.4288 111.429 69.4288 110.189C70.7012 108.984 72.0878 107.906 73.5688 106.969V107.029ZM264.969 330.389C264.042 330.459 263.124 330.62 262.229 330.869C261.289 331.229 260.469 331.809 260.929 332.709C261.509 333.996 262.394 335.122 263.509 335.989C263.789 336.289 264.229 335.849 263.949 335.549C263.669 335.249 263.629 334.629 262.509 332.409C263.46 331.997 264.376 331.509 265.249 330.949C265.306 330.903 265.346 330.839 265.362 330.768C265.378 330.696 265.369 330.621 265.336 330.556C265.303 330.49 265.249 330.438 265.182 330.407C265.115 330.377 265.04 330.371 264.969 330.389ZM260.909 324.649C260.527 324.615 260.144 324.692 259.805 324.87C259.465 325.047 259.184 325.319 258.995 325.651C258.805 325.984 258.715 326.365 258.735 326.747C258.756 327.13 258.885 327.498 259.109 327.809C259.126 327.878 259.166 327.939 259.223 327.983C259.279 328.026 259.348 328.05 259.419 328.05C259.49 328.05 259.559 328.026 259.615 327.983C259.671 327.939 259.711 327.878 259.729 327.809C259.73 327.3 259.864 326.801 260.116 326.359C260.369 325.917 260.731 325.549 261.169 325.289C261.469 325.069 261.409 324.549 260.909 324.649V324.649ZM209.449 125.789C209.24 125.783 209.035 125.844 208.864 125.965C208.694 126.086 208.567 126.259 208.504 126.458C208.441 126.657 208.444 126.871 208.513 127.068C208.583 127.265 208.715 127.434 208.889 127.549C209.097 127.681 209.349 127.728 209.591 127.68C209.833 127.631 210.047 127.491 210.189 127.289C210.279 127.147 210.33 126.985 210.339 126.817C210.348 126.649 210.314 126.482 210.24 126.332C210.165 126.181 210.054 126.052 209.915 125.957C209.777 125.862 209.616 125.804 209.449 125.789V125.789ZM212.969 127.109C212.717 127.133 212.483 127.248 212.31 127.432C212.138 127.616 212.037 127.857 212.029 128.109C212.027 128.295 212.08 128.478 212.182 128.634C212.284 128.79 212.43 128.912 212.601 128.985C212.773 129.058 212.962 129.078 213.145 129.043C213.328 129.008 213.496 128.92 213.629 128.789C213.777 128.659 213.881 128.486 213.927 128.294C213.974 128.103 213.96 127.901 213.888 127.718C213.816 127.534 213.689 127.377 213.524 127.268C213.36 127.16 213.166 127.104 212.969 127.109ZM212.909 124.089C212.869 124.232 212.862 124.381 212.889 124.527C212.917 124.672 212.977 124.809 213.066 124.927C213.156 125.045 213.271 125.141 213.403 125.207C213.535 125.274 213.681 125.309 213.829 125.309C213.97 125.305 214.109 125.271 214.236 125.21C214.364 125.149 214.477 125.062 214.569 124.955C214.662 124.847 214.73 124.722 214.772 124.587C214.813 124.452 214.826 124.31 214.809 124.169C214.765 123.955 214.651 123.762 214.484 123.62C214.318 123.478 214.109 123.396 213.89 123.387C213.672 123.378 213.456 123.442 213.279 123.569C213.101 123.696 212.971 123.879 212.909 124.089V124.089ZM218.349 128.209C218.556 128.215 218.759 128.153 218.927 128.031C219.094 127.91 219.217 127.737 219.277 127.539C219.336 127.34 219.328 127.128 219.254 126.935C219.181 126.741 219.045 126.578 218.869 126.469C218.725 126.381 218.56 126.333 218.391 126.329C218.222 126.325 218.055 126.366 217.907 126.447C217.759 126.528 217.635 126.647 217.548 126.791C217.46 126.935 217.412 127.1 217.409 127.269C217.414 127.517 217.515 127.753 217.69 127.928C217.865 128.103 218.101 128.204 218.349 128.209V128.209ZM220.089 123.749C220.223 123.722 220.349 123.666 220.46 123.586C220.57 123.506 220.663 123.403 220.73 123.285C220.798 123.166 220.84 123.034 220.852 122.898C220.865 122.762 220.849 122.625 220.804 122.496C220.76 122.367 220.688 122.249 220.594 122.149C220.501 122.05 220.387 121.972 220.26 121.92C220.134 121.868 219.998 121.844 219.861 121.849C219.725 121.854 219.591 121.888 219.469 121.949C219.26 122.053 219.096 122.229 219.008 122.445C218.92 122.66 218.913 122.901 218.989 123.121C219.065 123.342 219.218 123.527 219.421 123.642C219.623 123.758 219.861 123.796 220.089 123.749Z" fill="black"/>
<path d="M369.828 221.289C366.018 220.139 361.923 220.373 358.268 221.949C366.528 211.349 370.968 200.749 370.968 186.469C370.968 178.369 370.168 170.749 362.508 168.209C357.788 166.629 349.528 169.089 345.048 171.369C345.048 162.889 345.748 51.1091 342.708 43.0291C342.468 42.3291 341.108 42.0291 340.308 41.8291C331.688 39.7291 290.308 35.9691 288.308 37.7091C287.008 38.8291 287.448 47.2891 287.528 48.9691C284.828 48.9691 271.968 48.7891 270.248 50.8491C267.588 53.9891 253.428 90.5091 254.248 94.5691C254.288 94.7984 254.4 95.0088 254.568 95.1691C263.048 103.429 319.128 101.929 321.688 96.7891C323.348 93.7891 312.088 54.2091 310.088 51.9491C308.088 49.6891 291.428 49.0891 288.248 49.0491C288.039 45.7121 288.159 42.3625 288.608 39.0491C288.808 38.2091 288.948 38.2891 289.268 38.2291C294.628 37.2491 338.368 41.5691 341.648 43.6291C343.128 48.1891 343.148 77.2891 343.808 172.169C338.107 175.431 333.595 180.426 330.928 186.429C328.288 186.029 324.688 189.029 322.808 190.909C320.246 193.525 318.016 196.447 316.168 199.609C315.826 193.824 314.867 188.091 313.308 182.509C308.768 170.289 295.088 148.509 285.548 157.709C281.931 161.787 279.472 166.759 278.428 172.109C274.948 168.804 271.119 165.887 267.008 163.409C264.588 154.905 259.24 147.531 251.908 142.589C248.928 140.495 245.769 138.668 242.468 137.129C242.442 137.065 242.409 137.005 242.368 136.949C240.368 134.689 235.228 134.009 232.168 133.889C232.448 131.589 230.468 121.589 229.988 119.149C230.585 119.161 231.173 119.009 231.688 118.709C233.688 118.589 241.528 118.209 242.948 116.949C243.21 116.651 243.377 116.282 243.428 115.889C243.761 113.83 243.975 111.753 244.068 109.669C245.048 94.8891 244.388 95.6691 244.848 95.6691C251.168 98.0091 253.248 91.9091 244.848 88.9491V88.3491C247.308 87.8091 250.168 86.6691 249.028 84.3491C248.565 83.6962 247.945 83.1706 247.225 82.8211C246.505 82.4715 245.708 82.3091 244.908 82.3491C244.908 77.2691 246.248 6.16911 243.048 2.34911C239.468 -1.91089 130.088 0.189112 126.348 4.14911C124.088 6.42911 125.488 106.869 128.088 116.429C128.228 116.929 128.768 117.029 129.288 117.109C137.948 118.509 189.288 119.109 201.288 119.229C201.542 120.52 201.87 121.795 202.268 123.049C203.187 125.338 204.546 127.424 206.268 129.189C207.776 130.243 209.551 130.846 211.388 130.929C210.788 132.289 209.628 134.809 209.028 136.069C203.386 137.731 198.002 140.168 193.028 143.309C179.588 152.569 169.648 169.809 162.088 183.949C160.674 186.75 159.451 189.643 158.428 192.609C150.108 192.389 115.908 193.589 115.008 194.609C114.548 195.049 115.008 195.969 115.128 196.789C116.688 202.569 122.508 221.409 124.908 228.169C121.288 228.749 117.668 229.489 114.048 230.169C113.952 229.902 113.839 229.642 113.708 229.389C113.659 229.273 113.586 229.168 113.495 229.081C113.404 228.993 113.296 228.925 113.178 228.88C113.06 228.836 112.934 228.815 112.808 228.82C112.682 228.825 112.558 228.855 112.444 228.909C112.33 228.962 112.228 229.039 112.144 229.133C112.059 229.227 111.995 229.337 111.954 229.456C111.914 229.576 111.898 229.702 111.907 229.828C111.916 229.954 111.951 230.077 112.008 230.189C112.047 230.274 112.081 230.36 112.108 230.449C107.828 231.029 105.288 230.969 95.8485 232.309C95.7837 232.094 95.644 231.909 95.4548 231.788C95.2656 231.667 95.0393 231.618 94.8169 231.649C94.5945 231.681 94.3907 231.791 94.2424 231.96C94.0941 232.128 94.0111 232.345 94.0085 232.569C88.5285 233.389 83.6285 234.249 77.8085 235.329C77.7294 235.077 77.6359 234.83 77.5285 234.589C77.4273 234.361 77.2413 234.181 77.0098 234.088C76.7783 233.994 76.5196 233.995 76.2885 234.089C76.1737 234.137 76.0697 234.207 75.9823 234.296C75.895 234.384 75.826 234.489 75.7795 234.605C75.733 234.72 75.7099 234.843 75.7114 234.968C75.7129 235.092 75.7391 235.215 75.7885 235.329C75.7885 235.449 75.7885 235.549 75.9285 235.669C70.9685 236.589 65.9285 237.549 61.0685 238.449V237.609C61.0293 237.365 60.9014 237.145 60.7095 236.99C60.5175 236.835 60.2749 236.756 60.0285 236.769C59.9047 236.782 59.7847 236.818 59.6754 236.878C59.566 236.937 59.4695 237.017 59.3913 237.114C59.3132 237.21 59.2551 237.322 59.2202 237.441C59.1854 237.56 59.1746 237.686 59.1885 237.809C59.2085 238.135 59.2085 238.463 59.1885 238.789C56.7285 239.229 54.2485 239.629 51.7685 240.029C51.6931 239.826 51.5501 239.656 51.3635 239.546C51.1769 239.436 50.9582 239.394 50.7443 239.427C50.5304 239.46 50.3345 239.566 50.1895 239.727C50.0445 239.887 49.9593 240.093 49.9485 240.309C33.5085 242.849 36.9485 242.029 32.3485 232.869C31.5695 230.772 30.2437 228.921 28.5085 227.509C28.2336 227.35 27.9298 227.248 27.6149 227.208C27.2999 227.169 26.9803 227.192 26.6746 227.278C26.369 227.364 26.0836 227.51 25.8352 227.707C25.5869 227.905 25.3806 228.151 25.2285 228.429C23.9485 230.229 24.8485 236.289 25.2285 238.609C25.6085 240.929 27.6485 251.689 29.0485 253.089C29.5685 253.609 31.2685 253.649 32.7885 253.729V254.189C18.9085 255.489 1.30846 260.389 0.0684576 274.349C-0.851542 284.809 7.62846 288.949 17.8485 291.169C17.2085 294.669 8.64846 340.369 9.10846 343.029C9.66846 346.049 16.9085 347.809 18.1285 344.549C20.0085 339.449 26.8685 298.009 27.7685 292.549C37.9994 293.478 48.3016 293.277 58.4885 291.949C59.4085 297.389 66.2285 338.589 68.1085 343.689C69.3085 346.929 76.5685 345.169 77.1085 342.169C77.5885 339.509 69.1085 294.289 68.2885 289.809C79.6685 286.409 91.2685 279.449 89.6885 267.629C104.248 266.969 120.908 265.169 135.308 263.289C135.295 265.867 135.898 268.412 137.068 270.709C138.488 273.369 143.588 275.189 146.448 276.109C145.928 278.889 136.188 330.669 136.688 333.489C137.188 336.309 144.488 338.249 145.688 335.009C147.688 329.709 154.968 285.249 156.108 278.609C178.268 283.189 188.548 281.849 196.488 280.949C196.688 283.329 200.488 332.529 201.748 334.949C203.068 337.709 210.528 337.509 210.848 334.069C211.348 328.529 206.848 285.069 206.428 279.649C218.62 278.1 230.596 275.175 242.128 270.929C244.528 280.069 250.628 302.929 251.148 304.789C245.343 307.069 240.431 311.166 237.148 316.469C233.624 318.04 230.192 319.809 226.868 321.769C225.033 322.576 223.267 323.532 221.588 324.629C220.002 325.633 218.641 326.954 217.588 328.509C217.473 328.767 217.413 329.046 217.413 329.329C217.413 329.612 217.473 329.891 217.588 330.149C218.076 331.14 218.755 332.024 219.588 332.749C223.248 335.929 225.108 334.429 232.068 344.369C235.628 349.429 236.928 355.889 241.388 361.349C244.528 365.189 246.088 369.349 253.388 367.489C257.388 366.489 259.588 364.749 265.048 363.269C267.828 362.529 270.688 361.989 273.468 361.149C290.708 355.989 286.648 357.389 298.448 355.709C300.448 355.409 302.588 354.949 304.648 354.629C308.26 354.334 311.885 354.227 315.508 354.309C315.964 354.19 316.373 353.935 316.68 353.577C316.988 353.22 317.179 352.778 317.228 352.309C317.403 351.259 317.45 350.191 317.368 349.129C317.573 346.696 316.969 344.263 315.648 342.209C324.888 343.809 349.228 341.889 351.268 340.689C351.457 340.592 351.611 340.438 351.708 340.249C352.908 337.669 354.608 314.589 354.628 305.749C355.299 305.642 355.966 305.516 356.628 305.369C358.028 305.029 358.228 298.489 357.348 296.709C357.277 296.535 357.168 296.379 357.03 296.251C356.892 296.123 356.727 296.027 356.548 295.969C350.828 294.669 335.168 294.989 329.008 295.229C328.783 287.777 327.974 280.354 326.588 273.029C334.003 271.325 341.212 268.824 348.088 265.569C360.908 259.229 368.348 256.729 376.928 244.349C383.068 235.549 379.968 224.649 369.828 221.289V221.289ZM309.608 52.2691C311.608 54.2691 320.948 90.2691 320.788 95.8291C320.668 100.429 263.968 101.829 255.788 94.2491C255.888 87.9891 269.228 53.9891 271.208 51.5891C273.188 49.1891 307.008 49.4691 309.608 52.2691V52.2691ZM349.888 170.929C353.228 169.829 358.688 168.529 362.028 169.649C368.948 171.949 369.428 179.209 369.428 186.469C369.428 201.549 364.348 212.309 355.208 223.329C351.008 225.645 347.179 228.578 343.848 232.029C345.646 224.541 346.086 216.792 345.148 209.149C344.994 207.791 344.706 206.451 344.288 205.149C345.682 200.932 347.407 196.833 349.448 192.889C352.668 186.889 353.968 186.989 353.448 186.489C353.422 186.459 353.39 186.435 353.354 186.419C353.317 186.403 353.278 186.394 353.238 186.394C353.199 186.394 353.159 186.403 353.123 186.419C353.087 186.435 353.055 186.459 353.028 186.489C348.798 191.266 345.567 196.842 343.528 202.889C341.668 197.929 336.868 189.029 332.168 186.889C333.85 183.143 336.294 179.788 339.345 177.04C342.396 174.292 345.987 172.211 349.888 170.929V170.929ZM323.768 191.949C325.466 190.03 327.681 188.641 330.148 187.949C333.948 187.349 342.868 201.229 343.608 209.429C344.668 217.825 343.987 226.348 341.608 234.469C339.607 236.651 337.743 238.955 336.028 241.369C332.248 246.729 330.228 247.809 327.068 256.389C327.608 235.149 329.288 207.869 329.288 206.969C329.309 206.923 329.317 206.873 329.312 206.823C329.308 206.773 329.291 206.724 329.263 206.683C329.235 206.641 329.197 206.607 329.153 206.583C329.108 206.56 329.059 206.548 329.008 206.549C328.668 206.549 328.668 206.969 328.628 207.289C328.088 212.389 326.088 245.949 325.688 258.969C322.148 241.909 313.688 235.469 310.828 231.329C309.728 217.549 313.888 201.689 323.768 191.949V191.949ZM283.768 207.289C285.768 212.789 289.348 220.609 293.768 224.389C289.206 223.43 284.474 223.664 280.028 225.069C281.048 221.489 283.228 211.589 283.808 207.229L283.768 207.289ZM277.268 229.949C277.233 229.409 277.366 228.871 277.648 228.409C281.648 223.129 303.228 222.989 315.648 239.649C321.656 248.136 324.973 258.233 325.168 268.629C319.628 259.269 300.428 240.909 288.048 236.629C288.01 236.616 287.97 236.61 287.93 236.613C287.89 236.615 287.85 236.626 287.814 236.643C287.778 236.661 287.746 236.686 287.719 236.716C287.692 236.746 287.672 236.781 287.658 236.819C287.645 236.857 287.64 236.897 287.642 236.938C287.645 236.978 287.655 237.017 287.673 237.053C287.69 237.09 287.715 237.122 287.745 237.149C287.775 237.175 287.81 237.196 287.848 237.209C302.428 242.549 325.348 267.389 325.048 272.449C323.811 272.425 322.573 272.505 321.348 272.689C319.614 272.688 317.882 272.554 316.168 272.289C310.688 271.349 307.168 268.829 298.828 260.989C292.959 255.621 287.51 249.811 282.528 243.609C280.628 240.309 277.208 233.809 277.268 229.949V229.949ZM279.668 172.889C280.591 167.614 282.959 162.698 286.508 158.689C294.788 150.689 307.808 172.229 311.788 182.949C313.477 189.209 314.482 195.633 314.788 202.109C310.909 210.512 309.105 219.724 309.528 228.969C303.808 220.329 295.848 201.549 292.948 186.969C292.408 184.389 290.228 170.769 290.228 169.189C290.468 168.789 289.628 168.329 289.588 169.189C290.074 178.022 291.366 186.792 293.448 195.389C296.507 206.105 300.788 216.433 306.208 226.169C310.528 234.169 311.388 231.089 301.848 226.709C299.913 225.863 297.905 225.194 295.848 224.709C294.78 223.925 293.789 223.041 292.888 222.069C284.988 212.929 277.748 187.469 279.668 172.909V172.889ZM129.288 234.889C132.228 235.049 135.508 234.229 136.728 231.589L151.028 231.949C150.897 233.238 151.268 234.529 152.066 235.55C152.864 236.572 154.026 237.245 155.308 237.429C156.48 237.583 157.671 237.493 158.806 237.167C159.942 236.84 160.998 236.282 161.908 235.529C162.383 235.112 162.752 234.588 162.985 234C163.218 233.413 163.308 232.778 163.248 232.149L172.668 232.289C173.168 233.009 201.148 229.749 203.648 228.569C204.888 227.989 204.528 225.949 203.808 224.789C204.048 224.789 203.928 224.789 204.208 225.249C204.378 225.666 204.662 226.027 205.028 226.289C208.454 226.707 211.93 226.302 215.168 225.109C215.808 224.669 215.728 224.149 215.588 223.329C233.348 220.809 231.868 221.329 241.948 219.009C242.508 218.889 234.948 221.509 230.448 223.929C228.276 225.073 226.26 226.492 224.448 228.149C219.888 232.529 209.848 263.989 201.828 265.509C192.034 267.151 182.06 267.433 172.188 266.349C172.473 265.65 172.545 264.882 172.395 264.143C172.246 263.403 171.882 262.723 171.348 262.189C170.514 261.424 169.537 260.83 168.473 260.442C167.409 260.055 166.28 259.88 165.148 259.929C161.668 259.929 159.928 262.069 160.548 264.849C151.394 263.371 142.358 261.239 133.508 258.469C132.628 255.949 129.748 237.949 129.288 234.889V234.889ZM128.968 231.289L134.968 231.549C134.246 232.259 133.372 232.796 132.413 233.122C131.454 233.447 130.434 233.552 129.428 233.429C129.348 233.209 129.188 232.329 128.968 231.289ZM161.768 232.129C161.778 232.262 161.778 232.396 161.768 232.529C161.711 233.019 161.537 233.489 161.263 233.899C160.988 234.31 160.62 234.649 160.188 234.889C158.718 235.736 157.016 236.093 155.328 235.909C154.514 235.741 153.771 235.324 153.205 234.714C152.638 234.105 152.276 233.334 152.168 232.509C152.158 232.329 152.158 232.149 152.168 231.969L161.768 232.129ZM180.348 217.369L175.528 217.969C190.228 198.289 181.888 207.169 180.348 217.369ZM174.568 219.369L180.568 218.689C181.068 219.569 185.868 221.129 186.788 221.429C186.613 221.763 186.466 222.111 186.348 222.469C182.048 222.149 177.528 221.849 172.848 221.689L174.568 219.369ZM214.188 223.949C211.466 224.724 208.637 225.061 205.808 224.949C203.653 219.989 201.81 214.899 200.288 209.709C202.579 207.704 205.326 206.289 208.288 205.589C209.168 207.689 214.088 221.829 214.188 223.949V223.949ZM203.368 223.409C192.128 224.109 189.368 224.509 187.588 224.069C187.468 219.209 195.808 216.689 200.648 215.909C201.608 218.849 202.608 221.529 203.368 223.389V223.409ZM180.268 227.789C182.548 227.469 200.268 225.109 202.548 225.649C202.826 226.128 202.958 226.677 202.928 227.229C200.168 228.069 173.468 231.629 173.228 231.649C172.974 230.874 172.839 230.065 172.828 229.249V229.089C173.828 229.069 170.088 229.189 180.268 227.769V227.789ZM171.688 223.029C175.688 223.189 179.868 223.409 186.088 223.909C186.088 224.449 186.088 224.949 186.648 225.349C187.208 225.749 188.648 225.169 179.808 226.829C177.313 227.167 174.86 227.763 172.488 228.609C171.288 222.549 171.228 223.569 171.688 223.009V223.029ZM170.808 265.729C160.508 264.649 161.208 265.009 161.188 264.569C161.129 264.041 161.215 263.507 161.437 263.024C161.659 262.541 162.009 262.128 162.448 261.829C164.688 260.369 172.088 262.129 170.808 265.709V265.729ZM241.008 137.209C240.468 137.629 221.868 151.769 219.128 153.489C217.742 151.329 216.212 149.264 214.548 147.309C216.788 144.829 231.868 134.449 231.868 134.449C232.508 134.449 238.648 135.109 241.008 137.189V137.209ZM201.448 139.949C203.895 138.96 206.408 138.145 208.968 137.509C212.968 147.209 211.928 145.089 212.608 146.809C209.688 148.122 206.844 149.598 204.088 151.229C202.868 148.329 201.048 143.009 201.448 139.949ZM243.448 80.0691V82.5891C237.448 83.3691 237.448 84.5891 237.448 83.8091C240.708 81.9491 242.808 81.4491 243.468 79.9491L243.448 80.0691ZM235.608 95.5891C235.2 95.2259 234.742 94.9229 234.248 94.6891C233.948 94.5291 234.248 94.6891 234.248 94.2291C234.323 93.8595 234.323 93.4787 234.248 93.1091C234.746 93.2401 235.255 93.3205 235.768 93.3491C235.668 93.9491 235.648 94.7891 235.628 95.5091L235.608 95.5891ZM229.088 84.8491C228.448 85.7091 227.688 86.5891 227.088 87.4891C227.973 83.9823 229.815 80.7902 232.408 78.2691C233.263 77.7195 234.078 77.1114 234.848 76.4491C237.328 73.5891 232.848 70.6691 229.208 73.9291C226.503 76.2527 224.652 79.4133 223.948 82.9091C223.428 85.5691 224.208 85.2491 223.248 85.0091C222.37 84.6914 221.407 84.6914 220.528 85.0091C219.888 83.1291 215.688 83.1491 214.268 84.1691C213.688 84.5891 214.088 84.5091 213.628 84.1691C212.733 83.9175 211.794 83.8677 210.877 84.0233C209.961 84.179 209.09 84.5362 208.328 85.0691C208.148 85.1891 207.508 85.9891 207.148 86.3691C206.362 86.3298 205.576 86.4665 204.848 86.7691C204.096 87.1137 203.508 87.7378 203.208 88.5091V88.9691C202.851 88.9042 202.486 88.9042 202.128 88.9691C200.781 89.5311 199.71 90.602 199.148 91.9491C198.822 92.5621 198.729 93.273 198.888 93.9491C197.148 94.8891 195.328 96.2491 195.628 98.2091C195.796 98.7013 196.046 99.1613 196.368 99.5691C195.868 99.9291 194.508 100.089 194.788 103.129L193.288 103.009C192.248 97.7491 191.608 65.1291 192.128 64.7691C194.508 63.6691 231.488 63.5291 235.308 64.5891C235.759 69.1077 235.946 73.6487 235.868 78.1891C233.184 79.8909 230.882 82.1315 229.108 84.7691L229.088 84.8491ZM241.748 115.849C239.292 116.505 236.769 116.888 234.228 116.989C234.581 116.732 234.848 116.376 234.998 115.967C235.148 115.557 235.172 115.113 235.068 114.689C235.461 114.615 235.829 114.447 236.142 114.2C236.456 113.952 236.705 113.633 236.868 113.269C237.089 112.676 237.089 112.023 236.868 111.429C236.748 111.149 236.628 111.429 237.248 111.089C237.621 110.913 237.951 110.66 238.217 110.345C238.482 110.031 238.678 109.664 238.79 109.268C238.901 108.872 238.927 108.456 238.865 108.049C238.802 107.642 238.654 107.254 238.428 106.909C238.736 106.554 238.934 106.118 238.998 105.653C239.062 105.187 238.989 104.714 238.788 104.289C238.46 103.708 237.956 103.246 237.348 102.969C237.647 102.47 237.773 101.886 237.708 101.308C237.643 100.731 237.39 100.19 236.988 99.7691C236.988 98.0491 237.148 95.8891 237.228 93.4691C239.291 93.4886 241.314 94.0323 243.108 95.0491C242.988 98.3091 242.548 112.809 241.768 115.769L241.748 115.849ZM129.368 115.849C126.688 104.349 125.048 6.46911 126.768 4.70911C130.088 1.06911 234.668 -0.270889 242.088 3.34911C242.455 4.65579 242.689 5.99578 242.788 7.34911C244.228 22.0491 243.808 63.3491 243.548 78.4891C242.608 76.2691 239.648 76.4891 237.408 77.3491C237.46 72.9264 237.239 68.5048 236.748 64.1091C236.727 63.8902 236.642 63.6824 236.503 63.5117C236.364 63.3409 236.178 63.2148 235.968 63.1491C232.468 61.8891 193.268 62.7291 191.708 64.2091C190.748 65.1491 191.088 100.209 192.128 103.669C192.191 103.816 192.294 103.942 192.425 104.034C192.555 104.126 192.709 104.18 192.868 104.189C193.428 104.189 194.728 104.369 195.168 104.389C195.508 105.009 196.048 105.129 196.348 105.389C196.171 105.536 196.033 105.724 195.946 105.937C195.859 106.149 195.825 106.38 195.848 106.609C195.957 107.647 196.359 108.632 197.008 109.449C197.968 110.589 198.848 110.249 199.828 110.249C200.028 111.909 200.448 114.649 201.068 117.689C186.748 117.709 135.848 116.949 129.388 115.709L129.368 115.849ZM213.108 129.849C212.884 129.663 212.6 129.564 212.308 129.569C210.575 129.537 208.879 129.054 207.388 128.169C205.803 126.56 204.534 124.667 203.648 122.589C202.094 117.31 201.115 111.879 200.728 106.389C200.908 103.909 203.408 100.849 207.928 99.9091C211.493 99.2825 215.163 99.7352 218.468 101.209C221.128 102.269 224.808 106.509 226.288 108.809C226.357 108.904 226.459 108.97 226.575 108.992C226.69 109.015 226.809 108.992 226.908 108.929C227.537 108.524 228.207 108.188 228.908 107.929C229.505 107.79 230.132 107.89 230.656 108.207C231.179 108.525 231.557 109.036 231.708 109.629C232.748 111.989 228.848 115.929 228.308 116.689C228.233 116.889 228.233 117.109 228.308 117.309C229.412 122.692 230.2 128.134 230.668 133.609C230.008 133.989 229.188 134.609 222.368 139.729C219.435 141.601 216.629 143.666 213.968 145.909C213.228 143.549 211.348 139.389 210.388 137.289C213.548 130.209 213.588 130.249 213.128 129.789L213.108 129.849ZM163.408 184.649C171.408 169.489 183.928 147.289 200.728 140.469C200.651 144.724 201.511 148.944 203.248 152.829C203.315 152.924 203.403 153.002 203.506 153.055C203.609 153.109 203.723 153.136 203.838 153.136C203.954 153.136 204.068 153.109 204.171 153.055C204.274 153.002 204.362 152.924 204.428 152.829C205.198 152.172 206.053 151.62 206.968 151.189C207.342 152.627 207.98 153.984 208.848 155.189C208.408 157.709 200.388 190.709 200.848 192.649C202.266 196.323 204.141 199.804 206.428 203.009C206.868 203.609 207.348 204.069 207.968 203.569C210.986 200.513 213.497 196.995 215.408 193.149C215.528 192.729 215.568 193.009 214.188 155.909C214.848 155.149 216.188 153.549 216.808 152.629C218.448 154.929 217.528 154.629 218.108 155.089C218.688 155.549 219.028 155.289 219.528 155.089C222.808 153.209 239.528 140.289 242.148 137.789C245.404 139.275 248.517 141.056 251.448 143.109C264.588 151.509 267.448 166.209 268.828 181.689C269.748 192.569 268.368 201.809 260.328 208.729C255.018 213.033 248.77 216.027 242.088 217.469C237.728 218.549 218.768 221.329 215.168 221.829C213.588 216.88 211.759 212.014 209.688 207.249C216.228 204.409 227.968 200.229 234.648 197.969C234.765 197.937 234.866 197.866 234.935 197.767C235.004 197.669 235.037 197.549 235.028 197.429C234.588 191.829 234.008 177.209 236.168 172.009C236.328 171.649 235.748 171.409 235.588 171.769C233.268 177.069 233.588 191.289 233.908 197.069C227.048 199.269 215.708 203.069 209.108 205.929C208.828 205.329 208.808 205.049 208.248 204.989C206.548 204.849 200.008 207.629 199.108 209.329C198.708 210.069 199.928 213.809 200.348 215.149C196.188 215.509 190.348 216.889 187.588 220.089C185.583 219.519 183.64 218.749 181.788 217.789C182.668 211.789 187.508 202.249 190.548 197.189C191.708 195.189 193.168 182.209 193.308 180.069C193.42 178.157 193.42 176.241 193.308 174.329C193.291 174.26 193.251 174.199 193.195 174.156C193.139 174.112 193.07 174.088 192.998 174.088C192.927 174.088 192.858 174.112 192.802 174.156C192.746 174.199 192.706 174.26 192.688 174.329C192.568 175.569 192.348 177.009 192.088 178.649C191.968 179.549 190.548 194.169 189.088 196.649C184.448 203.229 175.868 215.269 170.908 221.629C170.728 220.829 164.768 194.149 163.608 193.429C162.419 193.053 161.176 192.87 159.928 192.889C160.906 190.069 162.069 187.316 163.408 184.649V184.649ZM116.508 195.729C122.768 195.089 160.508 193.189 162.968 194.409C163.088 195.349 165.708 202.249 167.968 212.989C169.668 220.989 171.968 228.989 172.408 231.649C171.368 231.649 129.048 229.969 127.088 229.649C125.568 226.229 117.528 199.729 116.508 195.729V195.729ZM30.0885 251.809C28.8885 249.809 24.7685 231.609 26.5085 229.169C28.7485 226.049 32.5085 237.369 33.7485 239.589C36.1485 244.289 40.3085 243.209 50.4885 241.589C50.8485 242.649 50.9685 243.589 51.8885 243.589C52.0423 243.586 52.1933 243.546 52.3285 243.473C52.4638 243.4 52.5795 243.295 52.6657 243.167C52.752 243.04 52.8064 242.894 52.8242 242.741C52.8421 242.588 52.823 242.433 52.7685 242.289C52.6085 241.889 52.4885 241.509 52.3885 241.189C60.0485 239.969 59.2285 239.909 59.2485 240.229C59.2485 240.478 59.3475 240.717 59.5238 240.894C59.7001 241.07 59.9392 241.169 60.1885 241.169C60.4378 241.169 60.6769 241.07 60.8531 240.894C61.0294 240.717 61.1285 240.478 61.1285 240.229V239.769C66.2485 238.849 71.3485 237.769 76.4685 236.909C76.4685 237.189 76.6085 237.449 76.7085 237.709C76.7907 237.945 76.9633 238.139 77.1883 238.248C77.4134 238.356 77.6724 238.371 77.9085 238.289C78.1445 238.207 78.3382 238.034 78.447 237.809C78.5558 237.584 78.5707 237.325 78.4885 237.089C78.4885 236.909 78.4885 236.729 78.3285 236.569C83.9085 235.529 88.7485 234.569 94.1885 233.849V235.209C94.199 235.333 94.2337 235.453 94.2906 235.563C94.3476 235.673 94.4256 235.77 94.5203 235.85C94.6151 235.93 94.7246 235.991 94.8426 236.028C94.9607 236.066 95.085 236.08 95.2085 236.069C95.3319 236.059 95.4521 236.024 95.5621 235.967C95.6721 235.91 95.7698 235.832 95.8497 235.737C95.9296 235.643 95.99 235.533 96.0275 235.415C96.0651 235.297 96.079 235.173 96.0685 235.049V233.589C106.068 232.129 107.888 232.309 112.708 231.589L113.048 232.529C113.165 232.729 113.35 232.881 113.569 232.955C113.788 233.03 114.027 233.023 114.242 232.935C114.456 232.847 114.632 232.685 114.736 232.478C114.84 232.271 114.866 232.034 114.808 231.809C114.733 231.639 114.666 231.466 114.608 231.289C118.228 230.689 121.828 229.929 125.468 229.289C126.108 230.969 126.028 230.949 127.988 231.109C128.208 231.109 128.928 239.289 131.568 253.969C109.088 255.209 65.9885 255.969 44.7685 252.609C43.4885 252.409 41.4885 252.329 41.6885 252.329C39.3885 249.269 35.1685 243.449 33.3685 246.769C32.5345 248.359 32.2598 250.184 32.5885 251.949C31.7528 251.963 30.9173 251.916 30.0885 251.809V251.809ZM52.3485 255.089C50.0112 255.669 47.7132 256.397 45.4685 257.269C44.5196 256.214 43.6315 255.105 42.8085 253.949C44.8885 254.149 46.1885 254.529 52.3085 255.089H52.3485ZM16.7685 343.949C16.3285 345.149 13.0885 344.789 11.4685 343.629C10.2085 342.709 9.78846 346.889 18.7085 291.289C21.4774 291.844 24.275 292.245 27.0885 292.489C21.2285 322.449 17.7285 341.289 16.7685 343.949ZM75.6285 340.949C75.6285 341.849 75.8885 342.149 74.9685 342.829C73.3885 343.969 70.1085 344.389 69.6485 343.169C68.6485 340.489 64.7485 319.489 59.3685 291.849C62.1539 291.399 64.9116 290.791 67.6285 290.029C69.9085 304.289 75.4885 339.389 75.6285 340.849V340.949ZM43.6285 282.509C32.1885 282.509 7.82846 282.089 2.06846 272.149C5.02846 260.529 21.2885 256.769 33.2085 255.549C34.2111 259.418 35.4399 263.224 36.8885 266.949C37.5948 268.694 38.919 270.118 40.6085 270.949C41.9687 271.306 43.3909 271.358 44.7738 271.103C46.1566 270.847 47.4659 270.289 48.6085 269.469C76.4285 266.589 65.8485 268.509 86.2085 267.809C78.8285 279.229 57.4485 282.429 43.6485 282.409L43.6285 282.509ZM61.8485 266.769C61.3485 266.769 48.3285 267.829 47.8485 268.109C46.8874 268.805 45.7907 269.291 44.6295 269.536C43.4683 269.781 42.2687 269.778 41.1085 269.529C39.8084 268.851 38.7939 267.73 38.2485 266.369C37.0285 263.309 31.9085 249.309 34.7485 247.549C36.8885 247.829 43.2885 258.169 44.8485 258.909C44.9754 258.974 45.1159 259.008 45.2585 259.008C45.401 259.008 45.5415 258.974 45.6685 258.909C49.3039 257.486 53.0498 256.362 56.8685 255.549C81.7646 256.849 106.716 256.649 131.588 254.949C131.819 256.368 132.14 257.771 132.548 259.149C132.582 259.231 132.633 259.304 132.699 259.363C132.765 259.422 132.843 259.465 132.928 259.489C134.928 260.129 137.388 260.929 140.448 261.789C87.5685 268.329 76.2485 265.589 61.8685 266.669L61.8485 266.769ZM144.328 334.489C143.888 335.689 140.628 335.309 139.028 334.149C137.788 333.269 137.168 338.429 147.148 276.329C149.668 277.109 152.508 277.849 155.528 278.489C148.708 313.349 145.348 331.729 144.348 334.389L144.328 334.489ZM209.388 333.989C209.268 335.249 206.048 335.749 204.188 335.049C202.708 334.489 203.428 338.829 197.308 280.889C200.108 280.569 202.928 280.209 205.768 279.809C208.088 312.769 209.668 331.129 209.408 333.949L209.388 333.989ZM242.928 270.709C245.588 269.669 248.228 268.549 250.788 267.329L259.608 302.189C257.207 302.619 254.856 303.289 252.588 304.189C250.088 295.269 245.428 279.249 242.948 270.609L242.928 270.709ZM267.608 303.009C272.423 303.187 277.188 304.035 281.768 305.529C283.394 305.981 284.997 306.515 286.568 307.129C291.471 309.368 295.877 312.564 299.528 316.529C303.088 320.729 303.888 326.189 303.528 331.729C303.268 335.069 301.108 337.249 298.488 339.369C298.208 337.109 294.488 335.369 292.328 335.029C292.008 335.029 291.968 335.149 292.828 334.669C294.367 333.815 295.598 332.5 296.348 330.909C296.628 330.609 296.168 330.189 295.908 330.489C293.728 331.989 292.568 333.189 289.628 335.029C289.428 335.029 289.468 335.509 288.188 335.449C286.406 335.028 284.579 334.827 282.748 334.849C281.844 332.572 281.502 330.11 281.753 327.673C282.004 325.235 282.839 322.894 284.188 320.849C287.628 316.229 288.928 317.909 288.928 317.049C288.928 315.709 280.168 318.129 280.268 328.809C280.342 330.92 280.933 332.98 281.988 334.809C279.609 334.927 277.268 335.455 275.068 336.369C274.608 335.949 272.688 336.949 271.448 336.369C272.506 332.791 272.899 329.049 272.608 325.329C272.31 323.109 271.372 321.025 269.908 319.329C268.275 317.467 266.217 316.026 263.908 315.129C259.148 313.409 257.528 315.829 254.708 316.729C254.241 316.886 253.736 316.886 253.268 316.729C251.468 316.149 246.608 314.729 245.548 316.349C244.728 317.569 245.928 319.369 246.708 320.729C247.488 322.089 247.748 322.169 246.448 325.469C246.061 326.563 245.551 327.61 244.928 328.589C243.908 329.649 240.488 330.429 239.848 331.669C238.548 334.069 243.488 336.489 244.408 337.669C245.328 338.849 246.928 341.029 247.788 341.949C251.048 345.509 259.028 346.329 263.168 345.009C265.166 344.38 266.97 343.251 268.408 341.729C269.668 342.789 269.428 344.449 269.088 346.109C268.888 347.069 267.868 347.629 267.088 348.109C264.52 349.769 261.478 350.541 258.428 350.309C257.634 350.052 256.864 349.724 256.128 349.329C254.133 348.854 252.228 348.057 250.488 346.969C248.978 345.441 247.211 344.188 245.268 343.269C235.808 340.849 234.008 329.489 236.988 320.569C240.668 309.249 255.408 302.689 267.628 302.909L267.608 303.009ZM261.088 344.469C263.088 341.029 261.948 336.469 259.788 333.269C257.188 329.269 254.868 330.669 253.088 329.749C250.568 328.429 250.188 326.949 249.188 326.229C248.708 325.916 248.182 325.679 247.628 325.529C248.095 324.512 248.386 323.423 248.488 322.309C248.348 320.949 246.148 318.029 246.488 317.369C247.548 316.869 251.488 317.969 252.608 318.349C254.748 319.069 257.208 317.049 259.088 316.349C262.188 315.329 266.528 317.949 268.628 320.349C272.048 324.349 271.288 329.249 270.268 334.349C269.996 336.773 268.963 339.048 267.318 340.849C265.672 342.649 263.498 343.881 261.108 344.369L261.088 344.469ZM257.208 338.269C257.368 338.549 256.988 338.929 256.648 338.569C256.389 338.312 256.196 337.996 256.088 337.647C255.98 337.298 255.959 336.928 256.028 336.569C256.061 336.212 256.198 335.871 256.422 335.591C256.646 335.31 256.947 335.101 257.288 334.989C257.828 334.809 257.888 335.309 257.688 335.469C257.409 335.853 257.222 336.297 257.142 336.765C257.062 337.234 257.092 337.714 257.228 338.169L257.208 338.269ZM316.048 349.269C316.048 350.389 316.288 352.149 315.548 352.869C315.168 353.249 309.928 352.429 304.568 353.209C302.568 353.509 300.428 353.969 298.368 354.249C286.828 355.889 290.368 354.549 273.148 359.749C270.388 360.569 267.568 361.109 264.788 361.849C259.388 363.309 257.048 365.089 253.148 366.049C246.928 367.609 245.848 364.209 242.748 360.449C238.388 355.129 237.128 348.769 233.468 343.589C226.268 333.409 224.388 334.929 220.688 331.769C219.96 331.169 219.362 330.427 218.928 329.589C218.865 329.483 218.831 329.362 218.831 329.239C218.831 329.116 218.865 328.995 218.928 328.889C219.904 327.683 221.049 326.625 222.328 325.749C223.949 324.673 225.655 323.73 227.428 322.929C230.188 321.429 233.888 319.129 236.288 318.089C231.748 327.689 233.368 342.089 244.688 344.809C245.411 345.055 246.087 345.42 246.688 345.889C248.091 347.183 249.634 348.317 251.288 349.269C252.648 349.869 254.188 350.189 255.548 350.689C256.657 351.345 257.904 351.732 259.189 351.819C260.474 351.906 261.762 351.69 262.948 351.189C265.147 350.526 267.188 349.424 268.948 347.949C269.317 347.566 269.573 347.088 269.688 346.569C270.048 344.569 270.208 342.709 268.688 341.469C269.761 340.153 270.575 338.647 271.088 337.029C271.785 337.285 272.537 337.354 273.268 337.229C270.268 339.689 271.148 341.809 275.008 342.789C278.728 343.711 282.587 343.934 286.388 343.449C290.148 343.109 295.208 343.329 298.248 341.009C301.288 338.689 304.368 335.989 304.748 331.849C305.128 327.709 304.528 326.749 305.128 328.049C306.308 330.569 307.228 333.229 308.588 335.609C310.908 339.609 315.228 341.929 315.848 346.649C315.984 347.483 316.065 348.325 316.088 349.169L316.048 349.269ZM350.548 339.609C350.548 339.609 350.548 339.489 350.548 339.609C350.948 340.349 321.388 342.769 314.348 340.609C314.048 340.249 313.748 339.889 313.408 339.529C311.408 332.869 308.788 314.789 307.988 308.689C323.397 308.746 338.795 307.831 354.088 305.949C353.868 311.629 351.668 336.489 350.568 339.509L350.548 339.609ZM356.548 297.129C357.338 299.621 357.338 302.297 356.548 304.789C355.708 306.109 309.228 307.809 305.688 306.909C304.716 304.585 304.351 302.053 304.628 299.549C304.628 299.549 305.548 299.129 306.508 298.909C316.488 296.589 355.588 295.469 356.648 297.029L356.548 297.129ZM327.828 295.409C322.448 295.629 310.728 296.249 305.668 297.549C304.768 297.789 303.508 298.149 303.268 298.969C302.668 300.869 303.368 306.589 304.708 308.029C305.128 308.509 306.328 308.549 307.208 308.609C307.948 316.029 309.668 329.769 311.208 337.089C307.908 333.209 307.208 328.849 304.468 324.549C303.967 321.25 302.586 318.148 300.468 315.569C296.669 311.409 292.071 308.056 286.948 305.709C285.428 305.089 283.848 304.609 282.008 304.049C275.232 301.699 267.999 300.966 260.888 301.909C260.388 299.909 253.888 276.289 251.308 267.009C264.168 260.649 271.968 249.149 276.788 235.629C277.979 238.696 279.445 241.648 281.168 244.449C283.368 248.049 303.028 268.249 310.748 271.689C314.058 273.058 317.631 273.673 321.208 273.489C322.44 273.453 323.669 273.347 324.888 273.169C325.328 275.049 326.448 280.369 327.928 295.309L327.828 295.409ZM375.608 243.589C367.208 255.709 359.748 258.169 347.368 264.309C340.911 267.41 334.157 269.849 327.208 271.589C329.108 266.929 334.488 261.109 337.888 257.589C346.273 249.085 355.141 241.072 364.448 233.589C364.512 233.541 364.554 233.47 364.565 233.392C364.577 233.313 364.556 233.233 364.508 233.169C364.461 233.105 364.39 233.063 364.311 233.052C364.232 233.041 364.152 233.061 364.088 233.109C344.868 246.149 330.088 263.109 326.588 269.629C326.635 267.182 326.494 264.735 326.168 262.309C326.956 258.65 328.228 255.113 329.948 251.789C331.956 248.304 334.28 245.01 336.888 241.949C343.868 232.289 357.868 218.929 369.268 222.749C378.568 225.769 381.208 235.549 375.708 243.489L375.608 243.589Z" fill="black"/>
<path d="M87.2686 240.849C87.4284 240.847 87.5851 240.805 87.7246 240.727C87.8641 240.649 87.9819 240.537 88.0673 240.402C88.1527 240.267 88.2031 240.113 88.2138 239.953C88.2245 239.794 88.1952 239.634 88.1286 239.489C87.7486 238.649 87.5486 237.849 87.0086 236.869C86.8862 236.652 86.6843 236.491 86.4454 236.42C86.2066 236.349 85.9495 236.374 85.7286 236.489C85.6192 236.548 85.5225 236.628 85.4441 236.724C85.3657 236.82 85.3071 236.931 85.2718 237.05C85.2365 237.169 85.2251 237.294 85.2382 237.417C85.2514 237.541 85.2889 237.66 85.3486 237.769C86.2286 239.389 86.2086 240.849 87.2686 240.849ZM69.4686 242.989C69.484 243.237 69.5947 243.469 69.7774 243.636C69.96 243.804 70.2006 243.895 70.4486 243.889C70.572 243.884 70.6933 243.854 70.8054 243.802C70.9175 243.75 71.0182 243.677 71.1018 243.586C71.1854 243.495 71.2502 243.388 71.2926 243.272C71.3349 243.156 71.3539 243.033 71.3486 242.909C71.3486 240.909 71.7886 239.309 70.2886 239.209C70.0372 239.234 69.806 239.358 69.645 239.552C69.484 239.747 69.4062 239.997 69.4286 240.249C69.5286 241.209 69.4286 241.949 69.4686 242.989V242.989ZM104.589 237.769C104.599 237.893 104.634 238.013 104.691 238.123C104.748 238.233 104.826 238.33 104.92 238.41C105.015 238.49 105.125 238.551 105.243 238.588C105.361 238.626 105.485 238.64 105.609 238.629C105.732 238.619 105.852 238.584 105.962 238.527C106.072 238.47 106.17 238.392 106.25 238.297C106.33 238.202 106.39 238.093 106.428 237.975C106.465 237.857 106.479 237.733 106.469 237.609C106.469 236.669 106.469 235.829 106.309 234.749C106.242 234.526 106.097 234.334 105.9 234.21C105.703 234.086 105.467 234.037 105.237 234.074C105.007 234.111 104.798 234.23 104.649 234.409C104.5 234.589 104.422 234.816 104.429 235.049C104.569 235.949 104.509 236.789 104.589 237.769Z" fill="black"/>
</svg>
