<svg width="381" height="290" viewBox="0 0 381 290" fill="none" xmlns="http://www.w3.org/2000/svg">
<path fill-rule="evenodd" clip-rule="evenodd" d="M100.155 100.206C100.519 100.377 100.913 100.473 101.315 100.491C101.717 100.508 102.118 100.445 102.495 100.306C102.569 100.288 102.634 100.245 102.681 100.186C102.728 100.126 102.753 100.052 102.753 99.9762C102.753 99.9003 102.728 99.8265 102.681 99.7667C102.634 99.7069 102.569 99.6645 102.495 99.6462C100.94 98.9776 99.6183 97.8642 98.6949 96.4462C98.671 96.3731 98.6229 96.3102 98.5587 96.268C98.4944 96.2257 98.4177 96.2065 98.3411 96.2134C98.2644 96.2204 98.1924 96.2531 98.1368 96.3063C98.0812 96.3595 98.0453 96.4299 98.0349 96.5062C97.9382 97.2695 98.0928 98.0436 98.4753 98.7112C98.8578 99.3788 99.4475 99.9036 100.155 100.206V100.206ZM250.655 51.3862C232.655 53.7262 220.815 55.3862 220.815 55.3862C220.495 55.3862 220.615 55.7062 220.615 56.0262V144.906C220.615 145.066 221.115 145.206 221.295 145.226C236.115 146.906 257.955 148.586 280.335 150.086C295.535 151.086 369.035 155.046 369.035 155.046C369.243 155.046 369.443 154.968 369.595 154.826C369.676 154.757 369.741 154.671 369.786 154.575C369.831 154.478 369.854 154.373 369.855 154.266C369.975 146.766 371.415 39.8462 371.415 39.8462C371.414 39.7339 371.39 39.6229 371.346 39.5198C371.301 39.4168 371.236 39.3237 371.155 39.2462C371.073 39.167 370.976 39.1051 370.869 39.0638C370.763 39.0226 370.649 39.003 370.535 39.0062C346.915 40.4862 319.975 43.1262 295.515 45.8862C278.795 47.8262 263.215 49.7462 250.655 51.3862ZM369.755 40.7862L368.275 153.486C364.395 153.326 295.615 149.926 280.395 149.026C258.175 147.706 236.395 146.206 221.615 144.666V56.6662C224.895 56.2062 294.695 47.5662 310.675 45.9062C330.495 43.8262 351.115 41.9462 369.755 40.7862V40.7862Z" fill="black"/>
<path fill-rule="evenodd" clip-rule="evenodd" d="M253.155 98.2465C253.112 108.356 257.074 118.071 264.175 125.266C267.689 128.842 271.88 131.682 276.504 133.621C281.128 135.559 286.091 136.558 291.105 136.558C296.118 136.558 301.082 135.559 305.705 133.621C310.329 131.682 314.52 128.842 318.035 125.266C323.388 119.851 327 112.958 328.408 105.475C329.815 97.9909 328.954 90.2572 325.935 83.2665C328.653 83.276 331.317 82.5084 333.613 81.0542C335.91 79.6 337.743 77.5198 338.896 75.0586C340.05 72.5974 340.476 69.8577 340.125 67.1624C339.773 64.4671 338.659 61.9284 336.912 59.8454C335.166 57.7624 332.861 56.2219 330.268 55.4053C327.676 54.5887 324.904 54.5301 322.279 55.2364C319.654 55.9427 317.286 57.3844 315.453 59.3918C313.621 61.3991 312.4 63.8885 311.935 66.5665C306.213 62.8343 299.591 60.7136 292.765 60.4276C285.94 60.1416 279.164 61.7008 273.15 64.9411C267.136 68.1815 262.106 72.9831 258.591 78.8407C255.076 84.6983 253.205 91.3952 253.175 98.2265L253.155 98.2465ZM322.195 65.9865L324.575 71.3865L329.455 59.0665L332.175 60.7665L326.535 76.0065L322.535 76.3865L319.175 69.0465L322.195 65.9865ZM291.095 61.1065C298.5 61.1271 305.717 63.4396 311.755 67.7265V69.0465C311.755 72.5633 313.056 75.9557 315.409 78.5701C317.761 81.1845 320.997 82.836 324.495 83.2065C327.475 90.0003 328.348 97.5323 327 104.828C325.652 112.123 322.146 118.846 316.935 124.126C313.566 127.538 309.553 130.246 305.129 132.094C300.706 133.943 295.959 134.895 291.165 134.895C286.37 134.895 281.624 133.943 277.2 132.094C272.776 130.246 268.764 127.538 265.395 124.126C258.58 117.219 254.745 107.916 254.711 98.2132C254.677 88.5103 258.448 79.1808 265.215 72.2265C268.567 68.7385 272.584 65.9575 277.029 64.0476C281.474 62.1377 286.257 61.1377 291.095 61.1065V61.1065Z" fill="black"/>
<path fill-rule="evenodd" clip-rule="evenodd" d="M269.695 83.6662L276.395 83.8461C276.515 84.7861 280.395 110.506 280.395 110.506C280.424 110.699 280.52 110.875 280.667 111.003C280.813 111.132 281.001 111.203 281.195 111.206L304.435 110.706C304.509 110.688 304.575 110.645 304.621 110.586C304.668 110.526 304.694 110.452 304.694 110.376C304.694 110.3 304.668 110.226 304.621 110.167C304.575 110.107 304.509 110.064 304.435 110.046C304.435 110.046 292.815 109.666 290.435 109.626H281.835C281.715 108.806 281.475 107.306 281.175 105.406C283.175 105.406 302.455 104.926 302.455 104.926C302.648 104.923 302.833 104.85 302.976 104.722C303.119 104.593 303.211 104.417 303.235 104.226L305.235 90.0661C305.248 89.9515 305.236 89.8354 305.202 89.7253C305.168 89.6152 305.111 89.5134 305.035 89.4261C304.958 89.3378 304.863 89.2671 304.756 89.2188C304.649 89.1705 304.533 89.1457 304.415 89.1461C304.415 89.1461 280.415 89.6861 278.595 89.7661C277.375 82.9861 277.455 82.8062 276.815 82.8062L269.615 83.0661C269.525 83.0661 269.439 83.102 269.375 83.1657C269.311 83.2295 269.275 83.316 269.275 83.4061C269.275 83.4963 269.311 83.5828 269.375 83.6466C269.439 83.7103 269.525 83.7462 269.615 83.7462L269.695 83.6662ZM295.555 102.846V103.606C294.915 103.606 289.375 104.006 287.395 104.166C287.4 102.108 287.226 100.054 286.875 98.0262L295.775 97.8262C295.563 99.4905 295.489 101.17 295.555 102.846V102.846ZM297.835 91.8461V90.7061H303.575L302.775 96.5061H301.095C300.135 96.5061 298.935 96.4062 297.615 96.3862C297.785 94.879 297.859 93.3626 297.835 91.8461V91.8461ZM297.455 97.8461C298.855 97.7461 300.115 97.6262 301.115 97.5262L302.655 97.3661L301.835 103.366L296.455 103.646C296.455 103.466 296.455 103.266 296.595 103.046C297.02 101.305 297.307 99.5325 297.455 97.7462V97.8461ZM296.935 90.8062C296.469 92.6185 296.141 94.4639 295.955 96.3262L286.655 96.5862C286.38 94.5552 285.945 92.549 285.355 90.5862C289.655 90.6462 292.635 90.6861 296.935 90.7061V90.8062ZM286.595 104.326L281.175 104.726C280.835 102.726 280.455 100.346 280.055 97.9261L282.235 98.0461H285.235C285.511 100.141 285.966 102.209 286.595 104.226V104.326ZM284.595 90.6261C284.61 92.6359 284.777 94.6417 285.095 96.6261L282.295 96.8661L279.995 97.0862C279.835 96.0662 279.075 91.6062 278.875 90.4462C279.875 90.5062 282.035 90.5061 284.515 90.5061L284.595 90.6261Z" fill="black"/>
<path fill-rule="evenodd" clip-rule="evenodd" d="M379.775 30.8866C379.692 30.8101 379.594 30.7512 379.487 30.7134C379.381 30.6756 379.268 30.6597 379.155 30.6666C352.875 32.3666 322.895 35.3866 295.675 38.5466C277.055 40.7066 212.535 49.4066 212.535 49.4066C212.215 49.4066 212.375 49.7266 212.375 50.0466V151.907C212.375 152.067 212.895 152.207 213.075 152.227C229.335 154.107 253.235 156.007 277.795 157.687C278.315 159.687 280.495 167.687 281.555 173.847C281.928 175.717 282.109 177.62 282.095 179.527C282.111 179.87 282.028 180.21 281.855 180.507C279.855 182.507 268.475 186.007 268.135 186.147C267.966 186.197 267.82 186.304 267.722 186.45C267.623 186.596 267.578 186.771 267.595 186.947L267.915 190.827C267.924 191.006 267.998 191.176 268.123 191.305C268.248 191.433 268.416 191.512 268.595 191.527C315.375 197.767 312.595 197.667 313.015 197.527C317.098 195.807 321.054 193.802 324.855 191.527C326.031 190.803 327.112 189.936 328.075 188.947C328.619 188.415 328.953 187.705 329.015 186.947C328.57 184.098 327.902 181.29 327.015 178.547C325.015 171.807 322.235 163.147 321.355 160.547L377.475 163.527C377.582 163.536 377.69 163.52 377.79 163.482C377.89 163.444 377.981 163.384 378.055 163.307C378.133 163.237 378.196 163.15 378.237 163.053C378.279 162.956 378.298 162.852 378.295 162.747C378.435 154.147 380.035 31.6266 380.035 31.6266C380.052 31.4916 380.037 31.3544 379.992 31.226C379.947 31.0976 379.873 30.9815 379.775 30.8866V30.8866ZM290.795 192.887L269.415 190.007L269.195 187.387H269.375C271.035 187.627 283.475 189.227 285.955 189.507C291.335 190.107 310.655 192.047 311.955 192.167C311.664 193.376 311.664 194.637 311.955 195.847L290.795 192.887ZM325.835 178.767C326.639 181.381 327.228 184.056 327.595 186.767C327.523 187.151 327.318 187.499 327.015 187.747C326.115 188.621 325.114 189.386 324.035 190.027C320.606 192.068 317.045 193.879 313.375 195.447C313.539 194.254 313.444 193.039 313.095 191.887C314.135 191.447 317.715 189.887 320.915 188.347C322.737 187.521 324.484 186.537 326.135 185.407C326.166 185.377 326.19 185.341 326.207 185.302C326.224 185.262 326.232 185.22 326.232 185.177C326.232 185.134 326.224 185.091 326.207 185.052C326.19 185.012 326.166 184.976 326.135 184.947C326.071 184.883 325.985 184.847 325.895 184.847C325.805 184.847 325.719 184.883 325.655 184.947C324.414 185.723 323.11 186.392 321.755 186.947C318.095 188.527 313.335 190.307 312.355 190.667C311.475 190.667 273.015 186.867 271.115 186.667C283.115 182.487 283.115 181.327 283.295 179.527C283.274 177.508 283.039 175.496 282.595 173.527C281.435 167.527 279.135 159.927 278.435 157.527L321.335 160.507H320.635C321.335 162.727 324.035 171.807 325.835 178.807V178.767ZM376.735 161.747C372.595 161.567 295.775 157.747 278.835 156.607C254.095 155.067 229.855 153.347 213.375 151.567V50.6266C216.875 50.1266 294.735 40.1866 312.515 38.2666C334.515 35.8866 357.615 33.7066 378.375 32.3866L376.735 161.747Z" fill="black"/>
<path fill-rule="evenodd" clip-rule="evenodd" d="M312.575 180.946C311.495 180.946 296.955 180.226 295.615 180.206C294.275 180.186 287.115 180.206 287.115 180.206C287.07 180.204 287.026 180.21 286.983 180.224C286.941 180.239 286.902 180.262 286.869 180.292C286.835 180.321 286.808 180.357 286.789 180.398C286.769 180.438 286.758 180.482 286.755 180.526C286.755 180.613 286.788 180.697 286.848 180.76C286.907 180.823 286.988 180.861 287.075 180.866C287.935 180.866 298.975 182.246 312.515 182.426H321.015C321.058 182.432 321.101 182.429 321.142 182.416C321.183 182.404 321.221 182.382 321.254 182.354C321.286 182.326 321.312 182.29 321.329 182.251C321.347 182.212 321.356 182.169 321.355 182.126C321.358 182.082 321.352 182.037 321.337 181.995C321.322 181.952 321.3 181.913 321.27 181.88C321.24 181.846 321.204 181.819 321.164 181.8C321.124 181.78 321.08 181.769 321.035 181.766C321.035 181.766 314.535 181.106 312.575 180.946V180.946ZM348.495 105.506L350.675 109.506L352.415 108.246L350.315 104.626L353.575 103.046L344.855 95.3464L345.355 107.026L348.495 105.506V105.506ZM338.735 117.426C338.715 117.465 338.703 117.508 338.701 117.552C338.698 117.596 338.704 117.64 338.719 117.681C338.734 117.722 338.758 117.76 338.788 117.792C338.818 117.824 338.855 117.849 338.895 117.866C339.59 118.37 340.311 118.837 341.055 119.266C341.895 119.746 343.815 120.606 344.715 120.966C345.255 121.186 348.355 122.326 348.595 121.806C348.615 121.767 348.627 121.724 348.629 121.681C348.632 121.637 348.626 121.593 348.611 121.552C348.596 121.51 348.572 121.473 348.542 121.441C348.512 121.409 348.476 121.384 348.435 121.366L347.575 120.766C345.365 119.355 342.959 118.277 340.435 117.566C339.655 117.346 339.175 117.266 339.175 117.266C339.095 117.232 339.005 117.229 338.923 117.259C338.841 117.288 338.774 117.348 338.735 117.426V117.426ZM330.895 134.826C329.742 132.955 328.113 131.423 326.175 130.386C326.145 130.356 326.109 130.332 326.07 130.316C326.03 130.3 325.988 130.291 325.945 130.291C325.902 130.291 325.86 130.3 325.821 130.316C325.781 130.332 325.745 130.356 325.715 130.386C325.685 130.417 325.661 130.452 325.645 130.492C325.628 130.531 325.62 130.574 325.62 130.616C325.62 130.659 325.628 130.701 325.645 130.741C325.661 130.78 325.685 130.816 325.715 130.846C325.849 131.13 326.003 131.404 326.175 131.666C327.326 133.463 328.916 134.936 330.795 135.946C330.823 135.98 330.858 136.007 330.898 136.026C330.938 136.044 330.981 136.054 331.025 136.054C331.069 136.054 331.112 136.044 331.152 136.026C331.192 136.007 331.227 135.98 331.255 135.946C331.313 135.884 331.345 135.802 331.345 135.716C331.345 135.631 331.313 135.549 331.255 135.486L330.895 134.826ZM246.575 109.526C246.526 109.454 246.452 109.402 246.368 109.38C246.283 109.358 246.193 109.367 246.115 109.406C241.949 110.959 238.065 113.182 234.615 115.986C234.543 116.035 234.49 116.109 234.468 116.194C234.446 116.278 234.456 116.368 234.495 116.446C234.541 116.523 234.615 116.578 234.701 116.6C234.787 116.623 234.878 116.61 234.955 116.566C239.111 114.993 242.993 112.772 246.455 109.986C246.528 109.937 246.58 109.864 246.602 109.779C246.624 109.694 246.614 109.605 246.575 109.526V109.526ZM256.035 125.986C254.115 127.121 252.324 128.463 250.695 129.986C244.515 135.366 246.115 135.486 246.455 135.166C246.455 135.166 247.015 134.846 247.875 134.266C251.066 132.056 253.963 129.448 256.495 126.506C256.528 126.479 256.555 126.445 256.575 126.407C256.595 126.369 256.607 126.327 256.61 126.285C256.614 126.242 256.609 126.199 256.596 126.158C256.584 126.117 256.563 126.079 256.535 126.046C256.508 126.014 256.474 125.986 256.436 125.967C256.398 125.947 256.356 125.935 256.313 125.931C256.271 125.927 256.228 125.932 256.187 125.945C256.146 125.958 256.108 125.979 256.075 126.006L256.035 125.986ZM287.255 216.986C285.654 215.894 283.893 215.057 282.035 214.506C281.966 214.17 281.83 213.85 281.635 213.566C281.28 213.087 280.831 212.686 280.315 212.386C278.556 211.389 276.608 210.769 274.595 210.566C272.089 210.254 269.544 210.577 267.195 211.506C263.435 213.066 254.215 218.726 243.935 222.406C238.662 224.451 233.07 225.548 227.415 225.646C219.705 225.686 212.018 226.51 204.475 228.106C194.655 230.106 185.875 232.746 182.735 234.686L176.475 225.566H176.655C178.049 225.028 179.388 224.358 180.655 223.566C181.578 223.072 182.389 222.391 183.035 221.566C183.079 221.494 183.103 221.411 183.103 221.326C183.103 221.242 183.079 221.159 183.035 221.086C182.967 220.961 182.852 220.867 182.715 220.826C182.503 220.692 182.274 220.584 182.035 220.506C179.568 220.41 177.098 220.45 174.635 220.626C169.306 207.144 162.49 194.298 154.315 182.326C149.483 175.229 144.135 168.498 138.315 162.186C140.635 157.826 143.255 152.646 147.695 142.706C149.324 141.911 150.727 140.72 151.775 139.242C152.823 137.764 153.483 136.046 153.695 134.246C156.095 135.166 157.695 131.726 158.195 128.966C161.275 130.166 166.835 132.286 169.975 133.286C170.487 133.473 171.016 133.607 171.555 133.686C173.695 133.686 181.555 122.186 182.955 119.686C183.364 119.024 183.623 118.28 183.715 117.506C183.693 117.247 183.611 116.997 183.476 116.775C183.34 116.552 183.155 116.365 182.935 116.226C179.855 113.866 166.255 110.746 161.075 109.966C156.595 109.306 156.735 109.466 153.995 112.946C152.955 114.266 151.815 115.826 150.835 117.186C149.019 117.249 147.215 117.511 145.455 117.966C139.335 119.566 137.455 121.766 136.415 125.506C135.55 128.425 135.151 131.463 135.235 134.506C130.275 139.406 126.595 143.286 122.655 147.546C112.379 138.976 101.12 131.657 89.1151 125.746L90.3151 117.746C97.1951 117.746 106.695 115.746 109.135 109.286C110.269 106.099 111.125 102.821 111.695 99.4864C112.475 95.1064 112.795 91.2864 112.895 89.9664L116.775 88.1464C116.943 88.0679 117.077 87.9322 117.154 87.7637C117.231 87.5951 117.246 87.4046 117.195 87.2264C117.195 87.2264 112.375 69.2264 112.075 67.9864C114.575 67.4264 116.435 66.9064 116.435 66.9064C116.435 34.9064 86.4351 28.2064 86.4351 28.2064C86.4351 28.2064 95.9151 16.2064 97.0351 8.44637C98.1551 0.686367 88.6351 -1.91363 76.1351 1.42637C63.6351 4.76637 71.7951 26.8064 71.7951 26.8064C66.0951 25.5464 55.3351 31.9864 55.3351 31.9864C47.3351 -9.71363 25.4351 7.78637 23.3351 20.1264C21.2351 32.4664 49.0351 35.2864 49.0351 35.2864C30.4151 43.0864 23.8751 106.006 23.8751 106.006C28.1551 109.306 36.6751 111.326 45.8751 112.546C28.5186 124.785 15.2161 141.932 7.67513 161.786C4.3697 170.348 2.11979 179.28 0.975127 188.386C-1.15074 206.603 0.206706 225.057 4.97513 242.766C8.00129 254.543 12.0155 266.044 16.9751 277.146C17.0096 277.226 17.0743 277.289 17.1549 277.32C17.1948 277.336 17.2375 277.344 17.2804 277.343C17.3234 277.343 17.3657 277.333 17.4051 277.316C17.4445 277.299 17.4802 277.275 17.51 277.244C17.5399 277.213 17.5634 277.177 17.5792 277.137C17.595 277.097 17.6027 277.054 17.602 277.011C17.6013 276.968 17.5922 276.926 17.5751 276.886C12.7923 265.762 8.93258 254.263 6.03513 242.506C1.47682 224.888 0.269204 206.57 2.47513 188.506C3.6489 179.529 5.8984 170.726 9.17513 162.286C16.7156 142.555 30.0542 125.57 47.4351 113.566C79.8951 118.126 124.175 141.566 153.295 183.026C161.554 194.891 168.469 207.636 173.915 221.026C166.606 227.759 158.555 233.637 149.915 238.546C145.582 241.022 141.093 243.214 136.475 245.106C131.877 247.01 127.127 248.522 122.275 249.626C118.675 244.506 101.295 214.506 101.155 214.346C101.136 214.308 101.109 214.273 101.077 214.245C101.044 214.217 101.006 214.196 100.965 214.183C100.924 214.169 100.881 214.165 100.838 214.169C100.795 214.173 100.753 214.186 100.715 214.206C100.674 214.225 100.637 214.253 100.607 214.287C100.577 214.321 100.554 214.361 100.541 214.405C100.528 214.448 100.524 214.494 100.53 214.539C100.536 214.584 100.551 214.628 100.575 214.666C100.575 214.666 101.375 216.426 102.735 219.206C107.335 228.586 114.895 242.066 121.675 250.026C119.675 253.246 116.195 260.426 119.995 260.126C122.375 259.946 125.355 256.906 125.995 256.526C135.077 266.174 145.489 274.478 156.915 281.186C165.035 285.706 173.935 289.006 182.635 289.186H182.755C194.415 287.186 206.755 280.626 218.195 272.486C237.615 258.666 254.575 240.486 261.895 233.106C263.105 231.895 264.394 230.765 265.755 229.726C267.942 230.109 270.155 230.317 272.375 230.346C274.041 230.375 275.707 230.268 277.355 230.026C280.193 229.697 282.924 228.748 285.355 227.246C286.655 226.452 287.8 225.429 288.735 224.226C289.448 223.336 289.83 222.227 289.815 221.086C289.785 220.38 289.579 219.693 289.215 219.086C288.717 218.256 288.049 217.54 287.255 216.986V216.986ZM56.0351 113.586C70.3551 114.686 83.6151 114.366 83.6151 114.366C82.8951 109.606 76.4551 86.8464 76.4551 86.8464C71.4351 87.2464 67.0351 83.6464 70.1351 76.6664C73.2351 69.6864 80.4751 74.6664 80.4751 74.6664C86.4931 72.622 91.918 69.1335 96.2751 64.5064C96.8758 66.1835 97.8308 67.7115 99.0751 68.9864C100.355 70.2864 106.675 69.1664 111.315 68.1464C111.635 69.9064 112.175 72.5264 112.775 75.2464C113.215 77.3464 115.235 85.9664 115.475 86.9664L111.715 88.5064C110.795 88.9264 111.715 89.6264 109.995 99.0064C109.451 102.243 108.635 105.427 107.555 108.526C107.035 109.74 106.279 110.839 105.331 111.759C104.384 112.678 103.264 113.402 102.035 113.886C98.1351 115.476 93.9844 116.363 89.7751 116.506C89.6352 116.501 89.4985 116.55 89.394 116.643C89.2895 116.736 89.2254 116.867 89.2151 117.006L87.1151 124.786C77.2197 119.872 66.7909 116.114 56.0351 113.586V113.586ZM154.035 132.906C153.035 132.906 154.495 128.066 154.555 127.766L157.135 128.766C156.755 130.146 155.595 132.886 154.035 132.906V132.906ZM157.095 111.026C161.955 111.246 179.495 115.646 181.675 117.706C181.255 119.806 174.815 128.286 172.355 130.946C170.755 132.646 174.355 133.526 150.015 125.226C151.255 123.346 153.155 119.986 151.035 119.226C150.734 119.143 150.416 119.143 150.115 119.226C152.251 116.313 154.612 113.572 157.175 111.026H157.095ZM152.955 127.026C152.615 128.166 152.095 131.526 151.075 131.026C150.055 130.526 150.475 127.586 150.935 126.246L152.955 127.026ZM125.215 149.766L123.215 148.066C124.375 147.026 131.215 140.766 131.835 140.066C134.475 137.526 136.655 135.386 136.655 135.386C136.742 135.301 136.808 135.197 136.849 135.083C136.891 134.969 136.906 134.847 136.895 134.726C136.713 131.783 136.983 128.828 137.695 125.966C138.074 124.144 139.105 122.522 140.595 121.406C143.474 119.635 146.688 118.477 150.035 118.006L148.935 119.566C144.935 121.726 139.975 128.866 139.815 129.066C139.788 129.099 139.767 129.137 139.754 129.178C139.741 129.219 139.736 129.262 139.74 129.305C139.744 129.347 139.756 129.389 139.775 129.427C139.795 129.465 139.822 129.499 139.855 129.526C139.888 129.554 139.926 129.575 139.967 129.588C140.008 129.601 140.051 129.605 140.093 129.602C140.136 129.598 140.178 129.586 140.216 129.566C140.254 129.546 140.288 129.519 140.315 129.486C141.075 128.766 149.395 120.266 150.495 120.706C151.595 121.146 144.495 130.346 145.155 130.886C145.815 131.426 149.335 126.386 149.715 125.806L150.375 126.066C149.255 128.246 148.375 131.226 150.535 132.446C150.798 132.592 151.094 132.668 151.395 132.668C151.696 132.668 151.992 132.592 152.255 132.446C152.315 132.882 152.472 133.299 152.715 133.666C152.322 135.976 151.116 138.068 149.315 139.566C145.315 143.106 147.795 137.246 140.635 154.046C139.995 155.526 139.415 156.966 138.915 158.206C138.415 159.446 137.875 160.826 137.595 161.566C133.668 157.428 129.537 153.49 125.215 149.766V149.766ZM120.635 258.266C120.395 258.379 120.138 258.453 119.875 258.486C120.494 255.869 121.52 253.365 122.915 251.066C127.738 249.933 132.46 248.408 137.035 246.506C141.693 244.537 146.21 242.252 150.555 239.666C159.214 234.543 167.236 228.414 174.455 221.406C176.906 221.258 179.364 221.258 181.815 221.406C181.249 221.882 180.64 222.304 179.995 222.666C178.78 223.378 177.501 223.974 176.175 224.446C175.801 224.526 175.45 224.69 175.148 224.926C174.847 225.161 174.603 225.462 174.435 225.806C173.975 226.986 174.915 228.026 173.735 229.806C172.135 232.146 169.915 230.866 167.115 231.526C163.775 232.306 165.115 237.526 163.115 239.246C161.115 240.966 156.995 237.926 155.115 240.726C154.075 242.306 154.595 244.886 153.675 246.326C152.755 247.766 147.975 243.766 145.155 246.646C144.227 248.057 143.392 249.527 142.655 251.046C141.275 253.166 139.255 250.566 136.655 250.426C131.855 250.186 135.675 261.546 129.235 256.426C128.619 255.903 127.948 255.447 127.235 255.066C124.915 253.766 124.215 256.766 120.635 258.266V258.266ZM260.635 231.846C253.355 239.126 236.475 257.306 217.195 271.146C205.975 279.146 193.935 285.766 182.475 287.786C173.995 287.786 165.295 284.546 157.355 280.226C146.212 273.815 136.008 265.893 127.035 256.686C127.544 257.008 128.032 257.362 128.495 257.746C136.155 263.746 135.255 251.966 136.855 252.046C139.775 252.186 142.195 256.746 145.715 249.186C145.922 248.663 146.212 248.176 146.575 247.746C148.715 245.546 153.255 250.346 155.275 247.146C156.635 244.966 155.695 241.386 157.275 241.146C158.855 240.906 160.295 241.706 161.975 241.446C167.295 240.666 164.835 233.446 167.475 232.826C168.468 232.618 169.482 232.53 170.495 232.566C171.279 232.587 172.06 232.458 172.795 232.186C173.62 231.837 174.318 231.244 174.795 230.486C176.135 228.486 175.275 227.006 175.535 226.266C175.574 226.167 175.645 226.083 175.735 226.026L182.275 235.926C182.301 235.969 182.336 236.005 182.377 236.033C182.419 236.061 182.466 236.079 182.515 236.086C182.611 236.125 182.719 236.125 182.815 236.086C185.595 234.206 194.575 231.306 204.635 229.426C212.107 227.844 219.718 227.013 227.355 226.946C233.173 226.909 238.937 225.832 244.375 223.766C254.695 220.146 263.975 214.546 267.755 213.006C269.858 212.184 272.135 211.902 274.375 212.186C275.935 212.364 277.455 212.797 278.875 213.466C279.401 213.689 279.866 214.031 280.235 214.466C280.306 214.578 280.36 214.699 280.395 214.826H279.995C279.358 214.53 278.686 214.315 277.995 214.186C275.271 213.684 272.479 213.684 269.755 214.186C269.65 214.202 269.549 214.238 269.458 214.293C269.367 214.348 269.288 214.42 269.225 214.506C269.161 214.591 269.116 214.688 269.09 214.791C269.064 214.894 269.059 215.001 269.075 215.106C269.091 215.211 269.127 215.312 269.182 215.403C269.237 215.494 269.309 215.574 269.394 215.637C269.48 215.7 269.577 215.746 269.68 215.771C269.783 215.797 269.89 215.802 269.995 215.786C271.923 215.517 273.871 215.43 275.815 215.526H276.855C277.261 215.592 277.662 215.685 278.055 215.806C279.095 216.036 280.018 216.633 280.655 217.486C277.413 216.987 274.102 217.17 270.935 218.026H270.695C270.506 218.099 270.35 218.238 270.255 218.418C270.16 218.597 270.134 218.804 270.18 219.002C270.226 219.199 270.342 219.373 270.507 219.492C270.671 219.61 270.873 219.665 271.075 219.646H271.355C273.401 219.202 275.483 218.948 277.575 218.886H279.035C279.66 218.941 280.276 219.061 280.875 219.246C281.086 219.322 281.288 219.423 281.475 219.546C281.573 219.607 281.682 219.648 281.795 219.666C282 219.774 282.178 219.925 282.32 220.108C282.461 220.29 282.562 220.501 282.615 220.726L282.355 220.846C281.998 220.984 281.63 221.091 281.255 221.166C277.817 221.777 274.462 222.784 271.255 224.166C267.296 226.061 263.718 228.664 260.695 231.846H260.635ZM287.395 223.046C286.55 224.146 285.505 225.075 284.315 225.786C282.088 227.149 279.602 228.034 277.015 228.386C275.435 228.662 273.838 228.836 272.235 228.906C270.363 229.006 268.487 229.006 266.615 228.906C267.695 228.146 268.735 227.506 269.755 226.906C273.855 224.862 278.226 223.414 282.735 222.606C283.955 222.206 284.395 221.546 284.315 220.766C284.25 220.273 284.072 219.801 283.795 219.388C283.517 218.975 283.148 218.632 282.715 218.386C282.555 217.427 282.093 216.544 281.395 215.866L281.635 215.626C281.745 215.48 281.833 215.318 281.895 215.146C282.935 215.617 283.938 216.165 284.895 216.786C286.066 217.5 287.053 218.48 287.775 219.646C288.074 220.178 288.203 220.789 288.146 221.396C288.089 222.004 287.848 222.579 287.455 223.046H287.395Z" fill="black"/>
<path fill-rule="evenodd" clip-rule="evenodd" d="M153.016 121.986C158.831 124.503 164.853 126.511 171.016 127.986C176.696 129.326 172.596 126.906 161.016 123.286C156.836 121.986 153.676 121.286 153.376 121.286C153.332 121.264 153.283 121.252 153.234 121.25C153.184 121.248 153.135 121.257 153.09 121.276C153.044 121.295 153.003 121.324 152.97 121.361C152.937 121.398 152.912 121.441 152.897 121.488C152.882 121.535 152.878 121.585 152.885 121.634C152.891 121.683 152.908 121.73 152.935 121.772C152.961 121.814 152.996 121.849 153.038 121.876C153.08 121.902 153.127 121.92 153.176 121.926L153.016 121.986ZM161.856 114.166L157.676 113.166L155.896 115.066L160.516 116.286L161.856 114.166ZM284.036 114.506C282.996 114.506 282.156 115.666 282.156 117.106C282.156 118.546 282.996 119.686 284.036 119.686C285.076 119.686 285.896 118.526 285.896 117.106C285.896 115.686 285.136 114.506 284.036 114.506ZM302.196 114.506C301.156 114.506 300.316 115.666 300.316 117.106C300.316 118.546 301.156 119.686 302.196 119.686C303.236 119.686 304.056 118.526 304.056 117.106C304.056 115.686 303.216 114.506 302.196 114.506ZM104.796 82.0864C104.973 82.0894 105.149 82.0559 105.314 81.988C105.478 81.9202 105.626 81.8195 105.75 81.692C105.874 81.5646 105.97 81.4132 106.033 81.2471C106.096 81.081 106.124 80.9038 106.116 80.7264C106.116 79.8064 106.116 78.9064 106.216 77.9864C106.251 77.6203 106.148 77.2542 105.925 76.9613C105.703 76.6683 105.378 76.4702 105.016 76.4064C103.256 76.1664 103.476 78.6264 103.476 80.6064C103.469 80.974 103.601 81.3306 103.846 81.6049C104.09 81.8793 104.43 82.0512 104.796 82.0864V82.0864Z" fill="black"/>
</svg>
